<?xml version="1.0" encoding="UTF-8"?>
<!DOCTYPE svg PUBLIC "-//W3C//DTD SVG 1.1//EN" "http://www.w3.org/Graphics/SVG/1.1/DTD/svg11.dtd">
<!-- Creator: CorelDRAW -->
<svg xmlns="http://www.w3.org/2000/svg" xml:space="preserve" width="0.142197in" height="0.124346in" style="shape-rendering:geometricPrecision; text-rendering:geometricPrecision; image-rendering:optimizeQuality; fill-rule:evenodd; clip-rule:evenodd"
viewBox="0 0 0.00500713 0.00437857"
 xmlns:xlink="http://www.w3.org/1999/xlink">
 <defs>
  <style type="text/css">
   <![CDATA[
    .fil1 {fill:#319E94}
    .fil2 {fill:#959E48}
    .fil4 {fill:#A7377F}
    .fil0 {fill:#B56FAD}
    .fil3 {fill:#F38081}
    .fil5 {fill:#0077BD;fill-rule:nonzero}
   ]]>
  </style>
 </defs>
 <g id="Layer_x0020_1">
  <metadata id="CorelCorpID_0Corel-Layer"/>
  <path class="fil0" d="M-0 0.00138425l0.00107704 0c-2.12108e-005,-0.000566314 0.000658782,-0.000740021 0.00092163,-0.00080296 0.000262986,-6.29392e-005 0.000371674,-0.000206701 0.000371674,-0.00032953 0,-0.000122828 -6.6405e-005,-0.000140851 -0.000126849,-0.000140851 -6.04438e-005,0 -9.06657e-005,2.09335e-005 -9.06657e-005,8.08228e-005 0,6.00279e-005 8.1516e-005,6.59891e-005 8.1516e-005,6.59891e-005 -0.000187293,6.58505e-005 -0.000181193,-8.98339e-005 -0.000181193,-8.98339e-005 0,0 2.91128e-006,-0.000167884 0.000175232,-0.000167884 0.000256886,0 0.000232626,0.000248707 0.000232626,0.000248707 0,0 9.14975e-006,0.000350602 -0.000468301,0.000467469 -0.000547322,0.000133919 -0.000728376,0.000437386 -0.000728376,0.000665021 0,0.000227773 0.000123938,0.000320657 0.000229714,0.000320657 0.000105777,0 0.000102727,-3.29946e-005 0.000102727,-3.29946e-005 0,0 -0.00016927,3.00833e-005 -0.00016927,-0.000137801 0,-0.000167745 0.00017537,-0.000158734 0.00017537,-0.000158734 0,0 0.000199354,-5.9612e-006 0.000199354,0.000224723 0,0.000230685 -0.000157071,0.000293624 -0.000320241,0.000293624 -0.000163171,0 -0.000347552,-0.000137801 -0.000380824,-0.000308596l-0.00104071 0c0,0 -3.63217e-005,-0.000133365 -6.04438e-005,-0.000197829z"/>
  <path class="fil1" d="M0.00154423 0.000330084c-8.31796e-006,-1.82995e-005 -1.28928e-005,-3.88171e-005 -1.28928e-005,-6.04438e-005 0,-7.95751e-005 6.30778e-005,-0.000144039 0.000140989,-0.000144039 7.79115e-005,0 0.000140989,6.44642e-005 0.000140989,0.000144039 0,6.59891e-005 -4.32534e-005,0.000121442 -0.000102311,0.000138633 0,0 4.29761e-005,4.71351e-005 0.000224308,4.71351e-005 0.000181331,0 0.000290019,-0.000122828 0.000290019,-0.000122828 0,0 5.73939e-005,-1.49723e-005 2.7172e-005,4.79669e-005 -3.02219e-005,6.29392e-005 -0.000163171,0.000140851 -0.000356563,0.000140851 -0.000193392,0 -0.000444872,-0.000134196 -0.00061941,-0.000311646 -0.000120888,-0.000122828 -0.000338541,-0.000110906 -0.000338541,-0.000110906 0,0 -0.000314835,1.5111e-005 -0.00031123,0.000320657 3.04992e-006,0.000254668 0.000232626,0.000263679 0.000232626,0.000263679 0,0 0.000199492,5.9612e-006 0.000199492,-0.000164834 0,-0.000122828 -0.000105777,-0.000107856 -0.000105777,-0.000107856 0,0 -7.86047e-005,0 -7.86047e-005,7.19503e-005 0,7.19503e-005 8.16546e-005,8.08228e-005 8.16546e-005,8.08228e-005 0,0 -0.00015111,5.10168e-005 -0.00015111,-8.38727e-005 0,-0.000134751 0.00014806,-0.000137801 0.00014806,-0.000137801 0,0 0.00017232,-1.80222e-005 0.00017232,0.000179806 0,0.00019769 -0.000178282,0.000233596 -0.000271997,0.000233596 -9.37156e-005,0 -0.000347552,-9.8845e-005 -0.000296119,-0.000404391 0,0 -0.000105777,0.000158734 -0.00031428,0.000158734 -0.000208503,0 -0.000214603,-0.000209751 -0.000214603,-0.000209751 0,0 -3.04992e-006,-0.000137801 0.00014806,-0.000137801 0.00015111,0 0.000117838,0.000140851 6.94549e-005,0.000155823 0,0 4.53329e-005,-0.000107856 -7.54161e-005,-0.000107856 -0.000120888,0 -8.77544e-005,0.000110906 -8.77544e-005,0.000110906 0,0 1.81609e-005,0.000137801 0.000181331,0.000137801 0.000163171,0 0.000305269,-0.000218762 0.000338541,-0.000260629 3.31332e-005,-4.20057e-005 0.000132949,-0.000164834 0.000389835,-0.000164834 0.000208503,0 0.000359474,0.000158734 0.000404946,0.000194779 4.51942e-005,3.59058e-005 0.000146812,0.000102311 0.000146812,0.000102311z"/>
  <path class="fil2" d="M0.00251771 0.000485491c0,0 0.000231932,0.000239557 0.000222921,0.000428375 -9.14975e-006,0.000188818 -0.000133087,0.000398569 -0.000133087,0.000764004 0,0 -4.22829e-005,1.49723e-005 -9.66269e-005,1.49723e-005 -5.4344e-005,0 -8.30409e-005,-1.49723e-005 -8.30409e-005,-1.49723e-005 0,-0.000365436 -0.000123938,-0.000575187 -0.000133087,-0.000764004 -9.01112e-006,-0.000188818 0.000222921,-0.000428375 0.000222921,-0.000428375z"/>
  <path class="fil2" d="M0.00229187 0.00181872c0,0 8.45659e-005,-0.000901805 -0.000701204,-0.00079991 0,0 0.00016622,5.08782e-005 0.000187431,0.000191729 2.12108e-005,0.000140712 0.00013281,0.000297506 0.000359613,0.000395519 0.000117838,5.08782e-005 0.000123938,0.000227635 0.000123938,0.000227635 0,0 1.81609e-005,4.79669e-005 3.02219e-005,-1.49723e-005z"/>
  <path class="fil2" d="M0.00233111 0.0022202c0,0 -9.37156e-005,-0.000122828 -0.000277958,-0.000122828 -9.67656e-005,0 -0.000102865,7.98524e-005 -0.000326341,9.8845e-005 -0.000105777,9.01112e-006 -0.000163309,7.19503e-005 -0.000163309,7.19503e-005 0,0 -3.9233e-005,-0.000380547 0.000344502,-0.000380547 0.000383874,0 0.000423107,0.00033258 0.000423107,0.00033258z"/>
  <path class="fil3" d="M0.00236438 0.00386813c0,0 -0.000229714,-1.19224e-005 -0.000281008,-0.000245657 -5.14327e-005,-0.000233735 -0.000247875,-3.89558e-005 -0.000226664,9.57951e-005 2.10722e-005,0.00013489 0.000175232,0.000317607 0.000519734,0.000182856 0,0 3.32718e-005,-3.29946e-005 -1.2061e-005,-3.29946e-005z"/>
  <path class="fil1" d="M0.00349118 0.000330084c8.31796e-006,-1.82995e-005 1.28928e-005,-3.88171e-005 1.28928e-005,-6.04438e-005 0,-7.95751e-005 -6.30778e-005,-0.000144039 -0.000140989,-0.000144039 -7.79115e-005,0 -0.000140989,6.44642e-005 -0.000140989,0.000144039 0,6.59891e-005 4.32534e-005,0.000121442 0.000102311,0.000138633 0,0 -4.28375e-005,4.71351e-005 -0.000224169,4.71351e-005 -0.000181331,0 -0.000290158,-0.000122828 -0.000290158,-0.000122828 0,0 -5.73939e-005,-1.49723e-005 -2.7172e-005,4.79669e-005 3.02219e-005,6.29392e-005 0.000163171,0.000140851 0.000356563,0.000140851 0.000193392,0 0.000444872,-0.000134196 0.000619549,-0.000311646 0.000120749,-0.000122828 0.000338402,-0.000110906 0.000338402,-0.000110906 0,0 0.000314835,1.5111e-005 0.00031123,0.000320657 -3.04992e-006,0.000254668 -0.000232626,0.000263679 -0.000232626,0.000263679 0,0 -0.000199492,5.9612e-006 -0.000199492,-0.000164834 0,-0.000122828 0.000105777,-0.000107856 0.000105777,-0.000107856 0,0 7.86047e-005,0 7.86047e-005,7.19503e-005 0,7.19503e-005 -8.16546e-005,8.08228e-005 -8.16546e-005,8.08228e-005 0,0 0.00015111,5.10168e-005 0.00015111,-8.38727e-005 0,-0.000134751 -0.00014806,-0.000137801 -0.00014806,-0.000137801 0,0 -0.000172182,-1.80222e-005 -0.000172182,0.000179806 0,0.00019769 0.000178282,0.000233596 0.000271859,0.000233596 9.37156e-005,0 0.000347552,-9.8845e-005 0.000296119,-0.000404391 0,0 0.000105777,0.000158734 0.00031428,0.000158734 0.000208503,0 0.000214603,-0.000209751 0.000214603,-0.000209751 0,0 3.04992e-006,-0.000137801 -0.00014806,-0.000137801 -0.00015111,0 -0.000117838,0.000140851 -6.94549e-005,0.000155823 0,0 -4.53329e-005,-0.000107856 7.54161e-005,-0.000107856 0.000120888,0 8.77544e-005,0.000110906 8.77544e-005,0.000110906 0,0 -1.81609e-005,0.000137801 -0.000181331,0.000137801 -0.000163171,0 -0.000305269,-0.000218762 -0.000338541,-0.000260629 -3.31332e-005,-4.20057e-005 -0.000132949,-0.000164834 -0.000389835,-0.000164834 -0.000208365,0 -0.000359474,0.000158734 -0.000404807,0.000194779 -4.53329e-005,3.59058e-005 -0.000146951,0.000102311 -0.000146951,0.000102311z"/>
  <path class="fil2" d="M0.00274354 0.00181872c0,0 -8.45659e-005,-0.000901805 0.000701204,-0.00079991 0,0 -0.00016622,5.08782e-005 -0.000187431,0.000191729 -2.12108e-005,0.000140712 -0.00013281,0.000297506 -0.000359613,0.000395519 -0.000117838,5.08782e-005 -0.000123938,0.000227635 -0.000123938,0.000227635 0,0 -1.81609e-005,4.79669e-005 -3.02219e-005,-1.49723e-005z"/>
  <path class="fil2" d="M0.00270431 0.0022202c0,0 9.37156e-005,-0.000122828 0.000277958,-0.000122828 9.67656e-005,0 0.000102865,7.98524e-005 0.00032648,9.8845e-005 0.000105777,9.01112e-006 0.000163171,7.19503e-005 0.000163171,7.19503e-005 0,0 3.9233e-005,-0.000380547 -0.000344502,-0.000380547 -0.000383874,0 -0.000423107,0.00033258 -0.000423107,0.00033258z"/>
  <path class="fil4" d="M0.00251895 0.0032989c0,0 0.000140019,4.24216e-005 0.000140019,-0.000188818 0,-0.000293624 -0.00015208,-0.000395519 -0.000140019,-0.000584198l-2.49539e-006 0c1.2061e-005,0.000188679 -0.000140019,0.00030111 -0.000140019,0.000584198 0,0.000231239 0.000140019,0.000188818 0.000140019,0.000188818l2.49539e-006 0z"/>
  <path class="fil4" d="M0.00251771 0.00233111c0,0 0.000180638,-0.00026964 0.000180638,-0.000422552 0,-0.000152773 -8.87249e-005,-0.000191729 -0.000179391,-0.000188679l-2.49539e-006 0c-9.06657e-005,-3.04992e-006 -0.000179252,3.59058e-005 -0.000179252,0.000188679 0,0.000152912 0.0001805,0.000422552 0.0001805,0.000422552z"/>
  <path class="fil3" d="M0.00251895 0.00384123c0,0 0.000387755,1.19224e-005 0.000387755,-0.000311646 0,-0.000209751 -0.000250786,-0.000164834 -0.000250786,-0.000164834 0,0 -7.34753e-005,2.39834e-005 -0.000136969,2.39834e-005l-2.49539e-006 0c-6.34937e-005,0 -0.000136969,-2.39834e-005 -0.000136969,-2.39834e-005 0,0 -0.000250786,-4.4917e-005 -0.000250786,0.000164834 0,0.000323569 0.000387755,0.000311646 0.000387755,0.000311646l2.49539e-006 0z"/>
  <path class="fil3" d="M0.00267103 0.00386813c0,0 0.000229714,-1.19224e-005 0.000281147,-0.000245657 5.12941e-005,-0.000233735 0.000247736,-3.89558e-005 0.000226526,9.57951e-005 -2.10722e-005,0.00013489 -0.000175232,0.000317607 -0.000519734,0.000182856 0,0 -3.32718e-005,-3.29946e-005 1.2061e-005,-3.29946e-005z"/>
  <path class="fil5" d="M0.0025202 0.00422746c9.98155e-006,-1.53882e-005 2.01017e-005,-2.92515e-005 3.00833e-005,-4.28375e-005l0 -1.38633e-007c2.39834e-005,-3.244e-005 4.74124e-005,-6.40483e-005 6.01666e-005,-0.000123522 7.90206e-006,-3.70149e-005 -1.01202e-005,-5.5453e-005 -2.99446e-005,-6.41869e-005l0 1.38633e-007c-2.92515e-005,-1.28928e-005 -6.23847e-005,-1.30315e-005 -6.28006e-005,-1.30315e-005 -6.93163e-007,0 -0.000109242,1.38633e-007 -9.27452e-005,7.70797e-005 1.2061e-005,5.64235e-005 3.56286e-005,8.66454e-005 5.93348e-005,0.000117006 1.2061e-005,1.55269e-005 2.43993e-005,3.1331e-005 3.59058e-005,4.94918e-005zm0.000114649 1.96858e-005c-2.41221e-005,3.25787e-005 -4.96305e-005,6.68209e-005 -6.61278e-005,0.000131424l-0.000102588 -2.77265e-006c-1.33087e-005,-6.68209e-005 -3.93717e-005,-0.00010037 -6.47414e-005,-0.000132949 -3.1331e-005,-4.02035e-005 -6.23847e-005,-7.9991e-005 -7.95751e-005,-0.000159982 -4.38079e-005,-0.000204483 0.000194224,-0.000204622 0.000195888,-0.000204622 5.5453e-007,0 5.53144e-005,1.38633e-007 0.000105222,2.21812e-005l0 1.38633e-007c5.90575e-005,2.62016e-005 0.000112847,7.8882e-005 9.06657e-005,0.000182302 -1.74677e-005,8.1516e-005 -4.76896e-005,0.000122274 -7.87433e-005,0.00016428z"/>
  <path class="fil0" d="M0.00355343 0.00189067c-0.000162893,9.70428e-006 -0.000320241,-6.29392e-005 -0.000320241,-0.000293624 0,-0.000230685 0.000199354,-0.000224723 0.000199354,-0.000224723 0,0 0.00017537,-9.01112e-006 0.00017537,0.000158734 0,0.000167884 -0.00016927,0.000137801 -0.00016927,0.000137801 0,0 -3.04992e-006,3.29946e-005 0.000102727,3.29946e-005 0.000105777,0 0.000229714,-9.28838e-005 0.000229714,-0.000320657 0,-0.000227635 -0.000181054,-0.000531102 -0.000728237,-0.000665021 -0.000477589,-0.000116867 -0.00046844,-0.000467469 -0.00046844,-0.000467469 0,0 -2.42607e-005,-0.000248707 0.000232626,-0.000248707 0.00017232,0 0.000175232,0.000167884 0.000175232,0.000167884 0,0 6.09983e-006,0.000155684 -0.000181193,8.98339e-005 0,0 8.1516e-005,-5.9612e-006 8.1516e-005,-6.59891e-005 0,-5.98893e-005 -3.02219e-005,-8.08228e-005 -9.06657e-005,-8.08228e-005 -6.04438e-005,0 -0.000126849,1.80222e-005 -0.000126849,0.000140851 0,0.000122828 0.000108688,0.000266591 0.000371674,0.00032953 0.000262847,6.29392e-005 0.00094284,0.000233735 0.00092163,0.00079991 0,0 -3.04992e-005,0.000487016 -0.000404946,0.000509475z"/>
 </g>
</svg>
