<?xml version="1.0" encoding="utf-8"?>
<!-- Generator: Adobe Illustrator 15.0.0, SVG Export Plug-In . SVG Version: 6.00 Build 0)  -->
<!DOCTYPE svg PUBLIC "-//W3C//DTD SVG 1.1//EN" "http://www.w3.org/Graphics/SVG/1.1/DTD/svg11.dtd">
<svg version="1.1" id="Layer_1" xmlns="http://www.w3.org/2000/svg" xmlns:xlink="http://www.w3.org/1999/xlink" x="0px" y="0px"
	 width="10.238px" height="8.953px" viewBox="0 0 10.238 8.953" enable-background="new 0 0 10.238 8.953" xml:space="preserve">
<g id="Layer_x0020_1">
	<path fill="#B56FAD" d="M0,6.123C0.049,5.99,0.123,5.719,0.123,5.719h2.128c0.068-0.35,0.445-0.631,0.779-0.632
		c0.333,0,0.654,0.129,0.654,0.601S3.277,6.146,3.277,6.146S2.919,6.165,2.919,5.822s0.346-0.281,0.346-0.281
		s0.006-0.068-0.21-0.068s-0.47,0.19-0.47,0.656c0,0.465,0.37,1.086,1.489,1.359c0.977,0.239,0.958,0.956,0.958,0.956
		s0.049,0.509-0.476,0.509c-0.353,0-0.358-0.344-0.358-0.344s-0.013-0.318,0.37-0.184c0,0-0.167,0.013-0.167,0.135
		c0,0.123,0.063,0.166,0.186,0.166c0.124,0,0.26-0.037,0.26-0.288s-0.222-0.546-0.76-0.674C3.549,7.636,2.158,7.281,2.202,6.123H0
		L0,6.123z"/>
	<path fill="#319E94" d="M2.857,8.487C2.764,8.561,2.455,8.886,2.029,8.886c-0.525,0-0.729-0.251-0.797-0.337
		C1.164,8.463,0.873,8.016,0.54,8.016c-0.334,0-0.371,0.281-0.371,0.281s-0.067,0.228,0.18,0.228s0.154-0.221,0.154-0.221
		C0.602,8.334,0.67,8.622,0.36,8.622c-0.309,0-0.303-0.281-0.303-0.281S0.07,7.912,0.497,7.912c0.426,0,0.643,0.324,0.643,0.324
		C1.034,7.611,1.553,7.409,1.745,7.409c0.191,0,0.556,0.073,0.556,0.478S1.948,8.255,1.948,8.255S1.646,8.248,1.646,7.973
		s0.31-0.172,0.31-0.172S1.788,7.819,1.788,7.967c0,0.146,0.16,0.146,0.16,0.146s0.217,0.031,0.217-0.221
		c0-0.349-0.408-0.336-0.408-0.336s-0.47,0.018-0.476,0.539C1.274,8.721,1.918,8.751,1.918,8.751S2.362,8.775,2.61,8.524
		c0.356-0.362,0.871-0.638,1.266-0.638c0.396,0,0.668,0.16,0.729,0.288C4.667,8.304,4.55,8.273,4.55,8.273S4.328,8.021,3.957,8.021
		S3.498,8.118,3.498,8.118c0.121,0.035,0.209,0.148,0.209,0.284c0,0.162-0.129,0.294-0.288,0.294S3.131,8.564,3.131,8.402
		c0-0.045,0.01-0.087,0.026-0.124C3.157,8.278,2.949,8.414,2.857,8.487z"/>
	<path fill="#959E48" d="M4.692,7.084C4.711,6.698,4.964,6.27,4.964,5.522c0,0,0.059-0.031,0.17-0.031
		c0.111,0,0.197,0.031,0.197,0.031c0,0.747,0.253,1.176,0.272,1.562C5.622,7.471,5.148,7.96,5.148,7.96S4.674,7.471,4.692,7.084z"/>
	<path fill="#959E48" d="M4.625,5.203c0,0-0.013,0.362-0.253,0.466c-0.464,0.2-0.692,0.521-0.735,0.809
		C3.592,6.766,3.252,6.87,3.252,6.87c1.607,0.208,1.434-1.636,1.434-1.636C4.662,5.105,4.625,5.203,4.625,5.203z"/>
	<path fill="#959E48" d="M3.901,5.094c-0.785,0-0.705-0.778-0.705-0.778S3.314,4.444,3.53,4.462C3.987,4.501,4,4.665,4.198,4.665
		c0.376,0,0.568-0.251,0.568-0.251S4.686,5.094,3.901,5.094z"/>
	<path fill="#F38081" d="M4.859,0.977C4.154,0.701,3.839,1.074,3.796,1.351C3.753,1.626,4.154,2.023,4.26,1.547
		c0.104-0.479,0.575-0.503,0.575-0.503C4.927,1.044,4.859,0.977,4.859,0.977z"/>
	<path fill="#319E94" d="M7.439,8.487c0.092,0.073,0.401,0.398,0.827,0.398c0.525,0,0.729-0.251,0.798-0.337
		c0.067-0.086,0.357-0.533,0.691-0.533s0.371,0.281,0.371,0.281s0.067,0.228-0.18,0.228S9.793,8.304,9.793,8.304
		c-0.099,0.03-0.167,0.318,0.143,0.318c0.309,0,0.303-0.281,0.303-0.281s-0.013-0.43-0.439-0.43c-0.426,0-0.643,0.325-0.643,0.325
		c0.105-0.625-0.414-0.827-0.605-0.827S7.995,7.482,7.995,7.887s0.353,0.368,0.353,0.368S8.65,8.248,8.65,7.973
		s-0.31-0.172-0.31-0.172s0.167,0.019,0.167,0.166c0,0.146-0.16,0.146-0.16,0.146S8.131,8.145,8.131,7.893
		c0-0.349,0.408-0.337,0.408-0.337s0.469,0.019,0.476,0.539C9.021,8.72,8.378,8.751,8.378,8.751S7.934,8.775,7.686,8.524
		C7.329,8.161,6.814,7.887,6.42,7.887c-0.396,0-0.668,0.159-0.729,0.288s0.056,0.098,0.056,0.098S5.969,8.021,6.34,8.021
		c0.37,0,0.457,0.097,0.457,0.097c-0.12,0.035-0.209,0.148-0.209,0.283c0,0.163,0.129,0.295,0.289,0.295
		c0.158,0,0.288-0.132,0.288-0.295c0-0.044-0.01-0.086-0.026-0.123C7.139,8.278,7.346,8.414,7.439,8.487z"/>
	<path fill="#959E48" d="M5.672,5.203c0,0,0.012,0.362,0.253,0.466c0.464,0.2,0.692,0.521,0.735,0.809
		C6.703,6.766,7.043,6.87,7.043,6.87C5.437,7.078,5.61,5.234,5.61,5.234C5.635,5.105,5.672,5.203,5.672,5.203z"/>
	<path fill="#959E48" d="M6.395,5.094C7.18,5.094,7.1,4.315,7.1,4.315S6.982,4.444,6.766,4.462c-0.457,0.039-0.47,0.202-0.668,0.202
		c-0.377,0-0.568-0.251-0.568-0.251S5.61,5.094,6.395,5.094z"/>
	<path fill="#A7377F" d="M5.146,2.208c0,0-0.286-0.087-0.286,0.386c0,0.579,0.311,0.809,0.286,1.195H5.15
		C5.126,3.402,5.437,3.194,5.437,2.594c0-0.473-0.287-0.386-0.287-0.386H5.146z"/>
	<path fill="#A7377F" d="M4.779,5.051c0,0.313,0.181,0.392,0.367,0.386H5.15c0.186,0.006,0.367-0.073,0.367-0.386
		s-0.37-0.864-0.37-0.864S4.779,4.738,4.779,5.051z"/>
	<path fill="#F38081" d="M5.146,1.1c0,0-0.793-0.025-0.793,0.637c0,0.429,0.513,0.337,0.513,0.337s0.15-0.049,0.28-0.049H5.15
		c0.13,0,0.28,0.049,0.28,0.049s0.513,0.092,0.513-0.337C5.943,1.074,5.15,1.1,5.15,1.1H5.146z"/>
	<path fill="#F38081" d="M5.437,0.977C6.141,0.701,6.457,1.074,6.5,1.351c0.043,0.275-0.359,0.673-0.464,0.196
		C5.932,1.068,5.461,1.044,5.461,1.044C5.369,1.044,5.437,0.977,5.437,0.977z"/>
	<path fill="#0077BD" d="M5.08,0.41C5.031,0.473,4.983,0.534,4.958,0.649C4.925,0.807,5.146,0.807,5.148,0.807
		c0.001,0,0.069,0,0.128-0.025l0,0c0.041-0.018,0.078-0.056,0.061-0.132C5.312,0.527,5.264,0.463,5.215,0.396l0,0
		C5.194,0.369,5.173,0.341,5.153,0.309C5.129,0.346,5.104,0.379,5.08,0.41z M5.548,0.605c0.045,0.211-0.064,0.318-0.185,0.372v0.001
		C5.261,1.023,5.149,1.023,5.148,1.023c-0.003,0-0.49,0-0.4-0.418C4.783,0.441,4.846,0.359,4.91,0.277
		c0.052-0.066,0.105-0.135,0.132-0.271L5.252,0c0.034,0.133,0.086,0.202,0.135,0.27C5.451,0.355,5.513,0.438,5.548,0.605z"/>
	<path fill="#B56FAD" d="M7.266,5.087c0.766,0.046,0.828,1.042,0.828,1.042c0.043,1.157-1.348,1.507-1.885,1.636
		c-0.537,0.128-0.76,0.423-0.76,0.674s0.136,0.288,0.26,0.288c0.123,0,0.186-0.043,0.186-0.166c0-0.122-0.167-0.135-0.167-0.135
		c0.383-0.135,0.37,0.184,0.37,0.184S6.092,8.953,5.74,8.953c-0.526,0-0.476-0.509-0.476-0.509S5.245,7.728,6.222,7.488
		c1.119-0.273,1.489-0.895,1.489-1.359c0-0.466-0.254-0.656-0.47-0.656s-0.21,0.068-0.21,0.068s0.346-0.062,0.346,0.281
		S7.019,6.146,7.019,6.146S6.611,6.159,6.611,5.688S6.933,5.067,7.266,5.087L7.266,5.087z"/>
</g>
</svg>
