<?xml version="1.0" encoding="utf-8"?>
<!-- Generator: Adobe Illustrator 15.0.0, SVG Export Plug-In . SVG Version: 6.00 Build 0)  -->
<!DOCTYPE svg PUBLIC "-//W3C//DTD SVG 1.1//EN" "http://www.w3.org/Graphics/SVG/1.1/DTD/svg11.dtd">
<svg version="1.1" id="Layer_1" xmlns="http://www.w3.org/2000/svg" xmlns:xlink="http://www.w3.org/1999/xlink" x="0px" y="0px"
	 width="8.947px" height="10.238px" viewBox="0 -0.643 8.947 10.238" enable-background="new 0 -0.643 8.947 10.238"
	 xml:space="preserve">
<g id="Layer_x0020_1">
	<path fill="#B56FAD" d="M6.123-0.643v2.202c1.158-0.044,1.513,1.347,1.642,1.885c0.128,0.538,0.423,0.76,0.674,0.76
		s0.288-0.136,0.288-0.26c0-0.123-0.043-0.186-0.166-0.186c-0.122,0-0.135,0.167-0.135,0.167c-0.135-0.383,0.184-0.37,0.184-0.37
		s0.344,0.006,0.344,0.358c0,0.525-0.509,0.476-0.509,0.476S7.728,4.408,7.488,3.431C7.215,2.312,6.594,1.942,6.129,1.942
		c-0.466,0-0.656,0.254-0.656,0.47s0.068,0.21,0.068,0.21S5.479,2.276,5.822,2.276s0.324,0.358,0.324,0.358s0.013,0.407-0.459,0.407
		S5.087,2.72,5.087,2.387c0.001-0.334,0.282-0.711,0.632-0.779V-0.52C5.719-0.52,5.99-0.594,6.123-0.643L6.123-0.643z"/>
	<path fill="#319E94" d="M8.278,2.514c0.037-0.017,0.079-0.026,0.124-0.026c0.162,0,0.294,0.129,0.294,0.288
		S8.564,3.064,8.402,3.064c-0.136,0-0.249-0.088-0.284-0.209c0,0-0.097,0.088-0.097,0.459s0.252,0.593,0.252,0.593
		s0.03,0.118-0.099,0.056C8.047,3.901,7.887,3.628,7.887,3.233c0-0.395,0.275-0.909,0.638-1.266
		c0.251-0.248,0.227-0.692,0.227-0.692s-0.03-0.644-0.655-0.637C7.574,0.644,7.557,1.114,7.557,1.114S7.544,1.522,7.893,1.522
		c0.252,0,0.221-0.217,0.221-0.217s0-0.16-0.146-0.16c-0.147,0-0.166,0.167-0.166,0.167s-0.104-0.31,0.172-0.31
		s0.282,0.303,0.282,0.303s0.036,0.353-0.368,0.353S7.409,1.293,7.409,1.102c0-0.192,0.202-0.711,0.827-0.605
		c0,0-0.324-0.217-0.324-0.643c0-0.427,0.429-0.439,0.429-0.439s0.281-0.006,0.281,0.303c0,0.31-0.288,0.241-0.318,0.143
		c0,0,0.221,0.093,0.221-0.154s-0.228-0.18-0.228-0.18S8.016-0.437,8.016-0.103c0,0.333,0.447,0.624,0.533,0.692
		c0.086,0.067,0.337,0.271,0.337,0.797c0,0.426-0.325,0.734-0.398,0.828C8.414,2.306,8.278,2.514,8.278,2.514z"/>
	<path fill="#959E48" d="M7.96,4.505c0,0-0.489,0.474-0.876,0.456C6.698,4.942,6.27,4.688,5.522,4.688c0,0-0.031-0.086-0.031-0.197
		c0-0.111,0.031-0.17,0.031-0.17c0.747,0,1.176-0.253,1.562-0.272C7.471,4.031,7.96,4.505,7.96,4.505z"/>
	<path fill="#959E48" d="M5.234,4.043c0,0,1.844,0.173,1.636-1.434c0,0-0.104,0.34-0.393,0.384C6.19,3.036,5.869,3.264,5.669,3.728
		c-0.104,0.24-0.466,0.253-0.466,0.253S5.105,4.019,5.234,4.043z"/>
	<path fill="#959E48" d="M4.414,4.124c0,0,0.251-0.192,0.251-0.568c0-0.198-0.163-0.211-0.202-0.668
		C4.445,2.671,4.316,2.553,4.316,2.553s0.778-0.08,0.778,0.705C5.094,4.043,4.414,4.124,4.414,4.124z"/>
	<path fill="#F38081" d="M1.043,4.191c0,0,0.025-0.47,0.504-0.575C2.023,3.511,1.625,3.11,1.35,3.153S0.701,3.511,0.977,4.216
		C0.977,4.216,1.043,4.284,1.043,4.191z"/>
	<path fill="#319E94" d="M8.278,6.495c0.037,0.017,0.079,0.026,0.123,0.026c0.163,0,0.295-0.13,0.295-0.288
		c0-0.16-0.132-0.289-0.295-0.289c-0.135,0-0.248,0.089-0.283,0.209c0,0-0.097-0.087-0.097-0.457c0-0.371,0.251-0.594,0.251-0.594
		s0.031-0.117-0.098-0.056S7.887,5.38,7.887,5.776c0,0.395,0.274,0.909,0.638,1.266C8.775,7.29,8.751,7.734,8.751,7.734
		S8.72,8.378,8.095,8.371C7.574,8.364,7.556,7.896,7.556,7.896S7.544,7.487,7.893,7.487c0.252,0,0.221,0.217,0.221,0.217
		s0,0.16-0.146,0.16c-0.147,0-0.166-0.167-0.166-0.167s-0.104,0.31,0.172,0.31s0.282-0.303,0.282-0.303s0.036-0.353-0.368-0.353
		S7.409,7.716,7.409,7.907s0.202,0.711,0.827,0.605c0,0-0.325,0.217-0.325,0.643c0,0.427,0.43,0.439,0.43,0.439
		s0.281,0.006,0.281-0.303c0-0.31-0.288-0.241-0.318-0.143c0,0,0.221-0.093,0.221,0.154s-0.228,0.18-0.228,0.18
		S8.016,9.446,8.016,9.112s0.447-0.624,0.533-0.691c0.086-0.068,0.337-0.272,0.337-0.798c0-0.426-0.325-0.735-0.398-0.827
		C8.414,6.702,8.278,6.495,8.278,6.495z"/>
	<path fill="#959E48" d="M5.234,4.967c0,0,1.844-0.173,1.636,1.433c0,0-0.104-0.34-0.393-0.383C6.19,5.974,5.869,5.745,5.669,5.281
		C5.565,5.04,5.203,5.028,5.203,5.028S5.105,4.991,5.234,4.967z"/>
	<path fill="#959E48" d="M4.414,4.887c0,0,0.251,0.19,0.251,0.567c0,0.198-0.163,0.211-0.202,0.668
		C4.445,6.339,4.316,6.456,4.316,6.456s0.778,0.08,0.778-0.705C5.094,4.967,4.414,4.887,4.414,4.887z"/>
	<path fill="#A7377F" d="M2.207,4.507c0,0-0.086,0.287,0.387,0.287c0.6,0,0.808-0.311,1.195-0.287V4.502
		C3.402,4.527,3.172,4.216,2.594,4.216c-0.473,0-0.387,0.286-0.387,0.286V4.507z"/>
	<path fill="#A7377F" d="M4.187,4.505c0,0,0.551,0.37,0.864,0.37s0.392-0.182,0.386-0.367V4.502
		c0.006-0.186-0.073-0.367-0.386-0.367S4.187,4.505,4.187,4.505z"/>
	<path fill="#F38081" d="M1.1,4.507c0,0-0.025,0.792,0.637,0.792c0.428,0,0.336-0.512,0.336-0.512s-0.049-0.15-0.049-0.28V4.502
		c0-0.13,0.049-0.28,0.049-0.28s0.092-0.513-0.336-0.513C1.074,3.709,1.1,4.502,1.1,4.502V4.507z"/>
	<path fill="#F38081" d="M1.043,4.818c0,0,0.025,0.47,0.504,0.574C2.023,5.497,1.625,5.899,1.35,5.856S0.701,5.497,0.977,4.794
		C0.977,4.794,1.043,4.726,1.043,4.818z"/>
	<path fill="#0077BD" d="M0.309,4.51C0.34,4.53,0.369,4.551,0.396,4.572l0,0c0.066,0.049,0.131,0.097,0.252,0.123
		c0.076,0.017,0.115-0.021,0.133-0.061l0,0c0.025-0.06,0.025-0.127,0.025-0.128c0-0.001,0-0.223-0.158-0.189
		C0.533,4.34,0.473,4.388,0.41,4.437C0.379,4.461,0.346,4.486,0.309,4.51z M0.27,4.745C0.201,4.695,0.133,4.643,0,4.609l0.006-0.21
		c0.137-0.027,0.205-0.081,0.271-0.132C0.359,4.203,0.441,4.14,0.605,4.104c0.418-0.09,0.418,0.397,0.418,0.4
		c0,0.001,0,0.113-0.045,0.215H0.977c-0.053,0.121-0.16,0.23-0.371,0.185C0.438,4.87,0.355,4.808,0.27,4.745z"/>
	<path fill="#B56FAD" d="M5.087,6.622c-0.02-0.333,0.129-0.654,0.601-0.654s0.459,0.407,0.459,0.407s0.019,0.358-0.324,0.358
		S5.541,6.388,5.541,6.388s-0.068-0.006-0.068,0.21s0.19,0.47,0.656,0.47c0.465,0,1.086-0.37,1.359-1.489
		c0.239-0.976,0.956-0.957,0.956-0.957s0.509-0.05,0.509,0.476c0,0.352-0.344,0.357-0.344,0.357s-0.318,0.013-0.184-0.37
		c0,0,0.013,0.167,0.135,0.167c0.123,0,0.166-0.063,0.166-0.186c0-0.124-0.037-0.259-0.288-0.259S7.893,5.028,7.765,5.565
		C7.636,6.103,7.286,7.493,6.129,7.45C6.129,7.45,5.133,7.388,5.087,6.622L5.087,6.622z"/>
</g>
</svg>
