<?xml version="1.0" encoding="utf-8"?>
<!-- Generator: Adobe Illustrator 15.0.0, SVG Export Plug-In . SVG Version: 6.00 Build 0)  -->
<!DOCTYPE svg PUBLIC "-//W3C//DTD SVG 1.1//EN" "http://www.w3.org/Graphics/SVG/1.1/DTD/svg11.dtd">
<svg version="1.1" id="Layer_1" xmlns="http://www.w3.org/2000/svg" xmlns:xlink="http://www.w3.org/1999/xlink" x="0px" y="0px"
	 width="8.947px" height="10.238px" viewBox="0 -0.643 8.947 10.238" enable-background="new 0 -0.643 8.947 10.238"
	 xml:space="preserve">
<g id="Layer_x0020_1">
	<path fill="#B56FAD" d="M2.83-0.643C2.963-0.594,3.234-0.52,3.234-0.52v2.128c0.35,0.068,0.631,0.445,0.632,0.779
		c0,0.333-0.129,0.654-0.601,0.654S2.807,2.634,2.807,2.634S2.788,2.276,3.131,2.276s0.281,0.346,0.281,0.346S3.48,2.627,3.48,2.412
		s-0.19-0.47-0.656-0.47c-0.465,0-1.086,0.37-1.359,1.489C1.226,4.408,0.509,4.389,0.509,4.389S0,4.438,0,3.914
		c0-0.353,0.344-0.358,0.344-0.358s0.318-0.013,0.184,0.37c0,0-0.013-0.167-0.135-0.167c-0.123,0-0.166,0.063-0.166,0.186
		c0,0.124,0.037,0.26,0.288,0.26s0.546-0.222,0.674-0.76C1.317,2.906,1.672,1.515,2.83,1.559V-0.643L2.83-0.643z"/>
	<path fill="#319E94" d="M0.466,2.214C0.393,2.121,0.067,1.812,0.067,1.386c0-0.525,0.251-0.729,0.337-0.797
		C0.49,0.521,0.938,0.23,0.938-0.103c0-0.334-0.281-0.371-0.281-0.371s-0.228-0.067-0.228,0.18S0.649-0.14,0.649-0.14
		c-0.03,0.099-0.318,0.167-0.318-0.143c0-0.309,0.281-0.303,0.281-0.303s0.429,0.013,0.429,0.439c0,0.426-0.324,0.643-0.324,0.643
		C1.342,0.391,1.544,0.91,1.544,1.102c0,0.191-0.073,0.556-0.478,0.556S0.698,1.305,0.698,1.305S0.705,1.002,0.98,1.002
		s0.172,0.31,0.172,0.31S1.134,1.145,0.986,1.145c-0.146,0-0.146,0.16-0.146,0.16S0.809,1.522,1.061,1.522
		c0.349,0,0.336-0.408,0.336-0.408s-0.018-0.47-0.539-0.476C0.232,0.631,0.202,1.275,0.202,1.275S0.178,1.719,0.429,1.967
		c0.362,0.356,0.638,0.871,0.638,1.266c0,0.396-0.16,0.668-0.288,0.729C0.649,4.024,0.68,3.907,0.68,3.907s0.252-0.222,0.252-0.593
		S0.835,2.855,0.835,2.855C0.8,2.976,0.687,3.064,0.551,3.064c-0.162,0-0.294-0.129-0.294-0.288s0.132-0.288,0.294-0.288
		c0.045,0,0.087,0.01,0.124,0.026C0.675,2.514,0.539,2.306,0.466,2.214z"/>
	<path fill="#959E48" d="M1.869,4.049c0.386,0.019,0.814,0.272,1.562,0.272c0,0,0.031,0.059,0.031,0.17
		c0,0.111-0.031,0.197-0.031,0.197c-0.747,0-1.176,0.253-1.562,0.272C1.482,4.979,0.993,4.505,0.993,4.505S1.482,4.031,1.869,4.049z
		"/>
	<path fill="#959E48" d="M3.75,3.981c0,0-0.362-0.013-0.466-0.253c-0.2-0.464-0.521-0.692-0.809-0.735
		C2.188,2.949,2.083,2.609,2.083,2.609C1.875,4.216,3.719,4.043,3.719,4.043C3.848,4.019,3.75,3.981,3.75,3.981z"/>
	<path fill="#959E48" d="M3.859,3.258c0-0.785,0.778-0.705,0.778-0.705S4.508,2.671,4.491,2.887
		c-0.039,0.457-0.202,0.47-0.202,0.668c0,0.376,0.251,0.568,0.251,0.568S3.859,4.043,3.859,3.258z"/>
	<path fill="#F38081" d="M7.977,4.216c0.275-0.705-0.098-1.021-0.373-1.063S6.93,3.511,7.406,3.617
		C7.885,3.721,7.91,4.191,7.91,4.191C7.91,4.284,7.977,4.216,7.977,4.216z"/>
	<path fill="#319E94" d="M0.466,6.796C0.393,6.888,0.067,7.197,0.067,7.623c0,0.525,0.251,0.729,0.337,0.798
		C0.49,8.488,0.938,8.778,0.938,9.112S0.656,9.483,0.656,9.483s-0.228,0.067-0.228-0.18s0.221-0.154,0.221-0.154
		c-0.03-0.099-0.318-0.167-0.318,0.143c0,0.309,0.281,0.303,0.281,0.303s0.43-0.013,0.43-0.439c0-0.426-0.325-0.643-0.325-0.643
		c0.625,0.105,0.827-0.414,0.827-0.605S1.471,7.352,1.066,7.352S0.698,7.704,0.698,7.704S0.705,8.007,0.98,8.007
		s0.172-0.31,0.172-0.31S1.134,7.864,0.986,7.864c-0.146,0-0.146-0.16-0.146-0.16S0.809,7.487,1.061,7.487
		c0.349,0,0.337,0.408,0.337,0.408S1.379,8.364,0.858,8.371C0.233,8.378,0.202,7.734,0.202,7.734S0.178,7.29,0.429,7.042
		c0.363-0.356,0.638-0.871,0.638-1.266c0-0.396-0.159-0.668-0.288-0.729S0.681,5.103,0.681,5.103s0.251,0.223,0.251,0.594
		c0,0.37-0.097,0.457-0.097,0.457C0.8,6.033,0.687,5.944,0.552,5.944c-0.163,0-0.295,0.129-0.295,0.289
		c0,0.158,0.132,0.288,0.295,0.288c0.044,0,0.086-0.01,0.123-0.026C0.675,6.495,0.539,6.702,0.466,6.796z"/>
	<path fill="#959E48" d="M3.75,5.028c0,0-0.362,0.012-0.466,0.253c-0.2,0.464-0.521,0.692-0.809,0.735
		C2.188,6.06,2.083,6.399,2.083,6.399C1.875,4.794,3.719,4.967,3.719,4.967C3.848,4.991,3.75,5.028,3.75,5.028z"/>
	<path fill="#959E48" d="M3.859,5.751c0,0.785,0.778,0.705,0.778,0.705S4.508,6.339,4.491,6.122
		c-0.039-0.457-0.202-0.47-0.202-0.668c0-0.377,0.251-0.567,0.251-0.567S3.859,4.967,3.859,5.751z"/>
	<path fill="#A7377F" d="M6.746,4.502c0,0,0.086-0.286-0.387-0.286c-0.578,0-0.808,0.311-1.195,0.286v0.005
		C5.551,4.483,5.76,4.794,6.359,4.794c0.473,0,0.387-0.287,0.387-0.287V4.502z"/>
	<path fill="#A7377F" d="M3.902,4.136c-0.313,0-0.392,0.181-0.386,0.367v0.005C3.511,4.693,3.59,4.875,3.902,4.875
		s0.864-0.37,0.864-0.37S4.215,4.136,3.902,4.136z"/>
	<path fill="#F38081" d="M7.854,4.502c0,0,0.025-0.793-0.637-0.793c-0.428,0-0.336,0.513-0.336,0.513s0.049,0.15,0.049,0.28v0.005
		c0,0.13-0.049,0.28-0.049,0.28S6.789,5.3,7.217,5.3c0.662,0,0.637-0.792,0.637-0.792V4.502z"/>
	<path fill="#F38081" d="M7.977,4.794c0.275,0.703-0.098,1.02-0.373,1.063S6.93,5.497,7.406,5.393
		C7.885,5.288,7.91,4.818,7.91,4.818C7.91,4.726,7.977,4.794,7.977,4.794z"/>
	<path fill="#0077BD" d="M8.543,4.437C8.48,4.388,8.42,4.34,8.305,4.315C8.146,4.282,8.146,4.503,8.146,4.505
		c0,0.001,0,0.069,0.025,0.128l0,0c0.018,0.041,0.057,0.078,0.133,0.061C8.426,4.668,8.49,4.621,8.557,4.572l0,0
		C8.584,4.551,8.613,4.53,8.645,4.51C8.607,4.486,8.574,4.461,8.543,4.437z M8.348,4.905C8.137,4.951,8.029,4.841,7.977,4.72H7.975
		C7.93,4.618,7.93,4.506,7.93,4.505c0-0.003,0-0.49,0.418-0.4C8.512,4.14,8.594,4.203,8.676,4.267
		c0.066,0.052,0.135,0.105,0.271,0.132l0.006,0.21C8.82,4.643,8.752,4.695,8.684,4.745C8.598,4.808,8.516,4.87,8.348,4.905z"/>
	<path fill="#B56FAD" d="M3.866,6.622C3.82,7.388,2.824,7.45,2.824,7.45C1.667,7.493,1.317,6.103,1.188,5.565
		C1.061,5.028,0.766,4.806,0.515,4.806S0.227,4.942,0.227,5.065c0,0.123,0.043,0.186,0.166,0.186c0.122,0,0.135-0.167,0.135-0.167
		c0.135,0.383-0.184,0.37-0.184,0.37S0,5.448,0,5.097c0-0.525,0.509-0.476,0.509-0.476s0.717-0.019,0.956,0.957
		c0.273,1.119,0.895,1.489,1.359,1.489c0.466,0,0.656-0.254,0.656-0.47s-0.068-0.21-0.068-0.21s0.062,0.346-0.281,0.346
		S2.807,6.375,2.807,6.375S2.794,5.968,3.266,5.968S3.886,6.289,3.866,6.622L3.866,6.622z"/>
</g>
</svg>
