<?xml version="1.0" encoding="utf-8"?>
<!-- Generator: Adobe Illustrator 15.0.0, SVG Export Plug-In . SVG Version: 6.00 Build 0)  -->
<!DOCTYPE svg PUBLIC "-//W3C//DTD SVG 1.1//EN" "http://www.w3.org/Graphics/SVG/1.1/DTD/svg11.dtd">
<svg version="1.1" id="Layer_1" xmlns="http://www.w3.org/2000/svg" xmlns:xlink="http://www.w3.org/1999/xlink" x="0px" y="0px"
	 width="14.527px" height="14.547px" viewBox="0 0 14.527 14.547" enable-background="new 0 0 14.527 14.547" xml:space="preserve">
<path id="_228931800" fill="#7E68AD" d="M11.192,10.268c0,0-0.435,0.092-0.649-0.282s-0.655-0.19-0.784-0.282
	c0,0-0.055,0.711,1.041,0.748c0,0-0.777,0.502-1.249,0.49c-0.472-0.013-0.54-0.27-1.373,0.208c0,0-0.195,0.067-0.3,0.024
	c0,0,0.337,0.649,1.789,0.012c0,0-0.745,0.452-1.128,1.33c-0.226,0.521-0.857,0.527-0.857,0.527s-0.465-0.008-0.484-0.447
	c-0.012-0.282,0.239-0.252,0.239-0.252s0.117-0.012,0.123,0.104c0.006,0.116-0.104,0.141-0.153,0.135c0,0,0.257,0.11,0.257-0.122
	c0-0.233-0.246-0.228-0.246-0.228s-0.331-0.048-0.331,0.38c0,0.43,0.447,0.552,0.558,0.552s0.65-0.067,0.791-0.337
	c0,0-0.386,1.709,0.809,1.709c0.766,0,0.68-0.557,0.68-0.557s0.013-0.479-0.429-0.479c-0.355,0-0.349,0.367-0.349,0.367
	s-0.019,0.276,0.281,0.276c0.227,0,0.141-0.228,0.141-0.228s-0.012,0.104-0.134,0.104c-0.123,0-0.147-0.11-0.147-0.177
	c0-0.068,0.03-0.197,0.227-0.197s0.288,0.19,0.288,0.344s-0.11,0.429-0.533,0.429s-0.747-0.275-0.747-0.98
	c0-0.704,0.264-1.2,0.618-1.587c0,0-0.698,0.963-0.067,1.605c0,0,0.019-0.275,0.185-0.472c0.165-0.196,0.227-0.408,0.122-1.06
	c-0.086-0.533,0.889-1.029,0.889-1.029s-0.276,0.227-0.27,0.803c0,0,0.165,0.006,0.195-0.104c0,0-0.061,0.171,0.024,0.398
	c0.086,0.226-0.184,0.472-0.184,0.472s0.606,0.037,0.644-0.771c0,0,0.073,0.122,0.214,0.115c0,0,0.122-0.416-0.066-0.832
	c-0.153-0.338,0.367-0.546,0.367-0.546S11.278,10.36,11.192,10.268z"/>
<path id="_228931728" fill="#7E68AD" d="M12.485,3.071c-0.013-0.509,0.152-0.699,0.152-0.699l-0.061-0.074
	c-0.355,0.355-0.404,0.858-0.49,1.667c-0.086,0.809-0.429,0.993-0.735,1.017s-0.441-0.11-0.453-0.331
	c-0.013-0.221,0.27-0.392,0.38-0.257c0.159,0.195-0.11,0.318-0.11,0.318c0.221,0.037,0.331-0.196,0.196-0.38
	c-0.135-0.184-0.613-0.061-0.601,0.27c0.018,0.481,0.441,0.662,0.98,0.392c0.538-0.27,0.6-2.095,0.6-2.095
	c-0.062,0.968,0.563,1.617,0.563,1.617s-0.673-0.049-0.403,0.674c0.27,0.723-0.368,0.772-0.368,0.772
	c1.103,0.232,1.127-0.968,1.127-0.968c1.164,1.323,1.013,2.369,1.013,2.369c0.065,0.684-0.477,1.01-0.794,1.04
	s-1.122,0.169-0.986,1.012c0,0,0.16-0.317,0.681-0.349s0.831-0.517,0.831-0.517s-0.438,1.088-2.182,1.663
	c0,0-0.112,0.115,0.038,0.145c0,0,0.785-0.25,1.066-0.461c0,0-0.605,0.428-0.646,0.979c-0.039,0.552-0.011,0.586-0.173,0.699
	c0,0,0.645,0.034,0.812-0.588c0.109-0.404-0.106-0.666,0.485-1.426c0,0,1.007-0.744,1.021-2.075c0,0,0.146-1.266-1.056-2.626
	c0,0,0.956,0.38,1.164-0.772c0,0-0.257,0.441-0.661,0.184c-0.404-0.257-0.625-0.319-0.809,0.159
	C13.067,4.431,12.504,3.843,12.485,3.071L12.485,3.071z"/>
<path id="_228931656" fill="#B56FAD" d="M11.701,11.727v-2.26c0.208,0,0.594-0.172,0.594-0.687s-0.588-0.539-0.588-0.539
	l-0.104-0.003c-0.22,0-0.398,0.164-0.398,0.364c0,0.201,0.179,0.37,0.398,0.364c0.129-0.004,0.202-0.064,0.202-0.064
	c-0.036,0.184-0.22,0.209-0.33,0.209s-0.724-0.074-1.165-0.98c-0.44-0.907-1.494-1.25-2.106-1.177C7.59,7.028,7.712,7.2,7.712,7.2
	c0.785-0.245,1.838,0.025,2.377,1.14c0.539,1.115,1.2,1.128,1.2,1.128v2.346L11.701,11.727z"/>
<path id="_228931584" fill="#F38081" d="M11.438,7.2c0,0-0.049,0.245-0.429,0.355s-0.545-0.166-0.582-0.27s-0.043-0.472,0.367-0.57
	c0.258-0.062,0.563,0.049,0.563,0.049s-0.539-0.392-0.943,0.117c0,0-0.221,0.006-0.221-0.294s0.301-0.459,0.447-0.496
	c0.147-0.037,0.778-0.141,0.926,0.778c0,0,0.631,0.797-0.043,1.268c0,0-0.711,0.344-0.84-0.379
	C10.684,7.758,11.517,7.862,11.438,7.2z"/>
<path id="_228931512" fill="#FCBD7A" d="M11.731,6.906c0,0-0.196-0.435,0.778-0.558c0.974-0.123,1.121,0.729,1.108,0.95
	c-0.012,0.22-0.129,0.509-0.472,0.509s-0.275-0.325-0.275-0.325s0.061-0.227,0.313-0.128c0,0-0.233-0.006-0.227,0.19
	c0.006,0.196,0.208,0.159,0.208,0.159s0.318,0.012,0.318-0.429c0-0.441-0.355-0.551-0.606-0.515
	C12.626,6.796,12.014,7.384,11.731,6.906z"/>
<path id="_228931440" fill="#4412B3" d="M13.729,2.899V2.881c0,0,0.073-0.123,0.073-0.239s-0.116-0.239-0.287-0.239
	c-0.172,0-0.368,0.141-0.368,0.38c0,0.239,0.172,0.496,0.533,0.496s0.619-0.306,0.619-0.699c0-0.392-0.344-0.723-0.803-0.723
	c-0.423,0-0.576,0.196-0.576,0.196s-0.098,0.049-0.08-0.08c0,0,0.27-0.239,0.668-0.227c0.398,0.013,0.895,0.251,0.895,0.876
	c0,0.625-0.533,0.784-0.747,0.766c-0.215-0.019-0.614-0.104-0.601-0.619c0.013-0.472,0.466-0.472,0.466-0.472
	S14.071,2.33,13.729,2.899z"/>
<path id="_228931368" fill="#7E68AD" d="M11.477,2.063c0.509,0.012,0.698-0.153,0.698-0.153l0.074,0.061
	c-0.355,0.355-0.858,0.404-1.667,0.49S9.59,2.89,9.565,3.196c-0.024,0.306,0.11,0.441,0.331,0.453c0.22,0.012,0.392-0.27,0.257-0.38
	C9.958,3.11,9.835,3.38,9.835,3.38c-0.037-0.221,0.196-0.331,0.38-0.196c0.184,0.134,0.062,0.612-0.27,0.6
	c-0.481-0.018-0.662-0.441-0.393-0.98s2.096-0.601,2.096-0.601c-0.968,0.062-1.617-0.563-1.617-0.563s0.049,0.674-0.674,0.404
	c-0.724-0.27-0.772,0.367-0.772,0.367C8.353,1.309,9.553,1.285,9.553,1.285C8.229,0.121,7.184,0.272,7.184,0.272
	C6.502,0.207,6.175,0.749,6.145,1.066c-0.031,0.317-0.17,1.122-1.012,0.986c0,0,0.316-0.16,0.348-0.681
	c0.031-0.52,0.518-0.831,0.518-0.831S4.91,0.979,4.334,2.722c0,0-0.115,0.112-0.145-0.038c0,0,0.25-0.785,0.462-1.066
	c0,0-0.428,0.605-0.979,0.646C3.121,2.302,3.086,2.274,2.973,2.436c0,0-0.033-0.645,0.588-0.812
	c0.404-0.109,0.668,0.107,1.426-0.485c0,0,0.744-1.006,2.075-1.021c0,0,1.267-0.145,2.626,1.056c0,0-0.38-0.956,0.772-1.164
	c0,0-0.441,0.257-0.184,0.662c0.257,0.404,0.318,0.625-0.16,0.809C10.116,1.48,10.705,2.044,11.477,2.063z"/>
<path id="_228931296" fill="#7E68AD" d="M4.174,3.564c0,0-0.6,0.961-0.588,1.433c0.013,0.472,0.27,0.54-0.208,1.373
	c0,0-0.067,0.195-0.024,0.3c0,0-0.65-0.337-0.012-1.789c0,0-0.452,0.745-1.33,1.128C1.49,6.235,1.484,6.866,1.484,6.866
	s0.008,0.465,0.447,0.483c0.282,0.013,0.252-0.238,0.252-0.238s0.012-0.116-0.104-0.123C1.962,6.982,1.937,7.092,1.944,7.141
	c0,0-0.11-0.257,0.122-0.257c0.233,0,0.227,0.245,0.227,0.245s0.049,0.33-0.379,0.33c-0.43,0-0.552-0.446-0.552-0.558
	c0-0.11,0.067-0.648,0.337-0.79c0,0-1.709,0.386-1.709-0.809c0-0.766,0.557-0.68,0.557-0.68s0.479-0.013,0.479,0.429
	c0,0.355-0.367,0.349-0.367,0.349S0.381,5.419,0.381,5.12c0-0.227,0.228-0.141,0.228-0.141S0.503,4.991,0.503,5.114
	c0,0.122,0.111,0.146,0.178,0.146c0.068,0,0.197-0.03,0.197-0.227s-0.19-0.288-0.344-0.288s-0.429,0.11-0.429,0.533
	s0.275,0.747,0.979,0.747c0.705,0,1.201-0.263,1.588-0.618c0,0-0.963,0.698-1.605,0.067c0,0,0.275-0.019,0.472-0.185
	c0.196-0.165,0.408-0.227,1.06-0.122C3.132,5.254,3.628,4.28,3.628,4.28s-0.227,0.276-0.803,0.27c0,0-0.006-0.165,0.104-0.195
	c0,0-0.171,0.062-0.398-0.024C2.305,4.244,2.06,4.513,2.06,4.513S2.023,3.907,2.832,3.87c0,0-0.122-0.073-0.115-0.214
	c0,0,0.416-0.123,0.832,0.067c0.338,0.152,0.545-0.368,0.545-0.368s0.074-0.086,0.166,0c0,0-0.03,1.17,1.643,1.336
	c0,0,0.777,0.019,1.09-0.582c0,0,0.196-0.08,0.172,0.135c0,0-0.515,0.545-1.158,0.551c0,0,0.919,0.209,0.918,0.956
	c0,0.637-0.478,0.619-0.478,0.619S6.024,6.4,6.024,5.99c0-0.288,0.288-0.275,0.288-0.275s0.215-0.007,0.215,0.232
	c0,0.171-0.16,0.165-0.16,0.165s0.074-0.055,0.074-0.159S6.3,5.818,6.3,5.818S6.128,5.824,6.128,6.001S6.3,6.241,6.447,6.241
	s0.349-0.123,0.349-0.496c0-0.374-0.343-0.79-1.359-1.011c0,0-0.478-0.11-0.576-0.251c0,0,0.803,0.79-0.037,1.764
	c0,0-0.031-0.404-0.154-0.618c-0.122-0.215-0.196-0.5-0.066-1.018C4.646,4.439,4.627,4.33,4.627,4.33S4.211,4.01,4.174,3.564z"/>
<path id="_228931224" fill="#B56FAD" d="M2.719,3.257h2.362c0,0,0.013,0.661,1.128,1.2C7.323,4.997,7.592,6.05,7.347,6.835
	c0,0,0.171,0.122,0.245-0.49c0.074-0.613-0.269-1.667-1.176-2.107C5.51,3.796,5.437,3.184,5.437,3.074s0.024-0.295,0.208-0.331
	c0,0-0.061,0.073-0.063,0.202c-0.007,0.22,0.163,0.398,0.364,0.398c0.2,0,0.363-0.179,0.363-0.398L6.307,2.84
	c0,0-0.025-0.588-0.539-0.588c-0.516,0-0.687,0.386-0.687,0.594H2.765C2.765,2.846,2.781,3.11,2.719,3.257z"/>
<path id="_228931152" fill="#F38081" d="M7.348,3.11c0,0-0.245,0.049-0.355,0.429s0.165,0.545,0.27,0.582
	c0.104,0.037,0.472,0.043,0.569-0.367C7.893,3.496,7.782,3.19,7.782,3.19s0.393,0.539-0.116,0.943c0,0-0.006,0.221,0.294,0.221
	c0.301,0,0.46-0.301,0.496-0.447C8.493,3.76,8.598,3.128,7.679,2.981c0,0-0.797-0.631-1.269,0.043c0,0-0.343,0.71,0.38,0.839
	C6.79,3.864,6.686,3.031,7.348,3.11z"/>
<path id="_228931080" fill="#FCBD7A" d="M7.642,2.816c0,0,0.435,0.196,0.558-0.778c0.122-0.974-0.729-1.121-0.95-1.109
	c-0.22,0.013-0.508,0.129-0.508,0.472c0,0.343,0.324,0.276,0.324,0.276s0.227-0.061,0.129-0.313c0,0,0.006,0.233-0.19,0.227
	C6.809,1.585,6.846,1.382,6.846,1.382S6.833,1.064,7.273,1.064c0.441,0,0.552,0.355,0.516,0.606
	C7.752,1.922,7.163,2.535,7.642,2.816z"/>
<path id="_228931008" fill="#4412B3" d="M11.667,0.819c0,0,0.122-0.073,0.238-0.073s0.239,0.116,0.239,0.288
	c0,0.171-0.141,0.367-0.38,0.367s-0.496-0.171-0.496-0.533s0.307-0.619,0.698-0.619c0.393,0,0.723,0.343,0.723,0.803
	c0,0.423-0.196,0.576-0.196,0.576s-0.049,0.098,0.08,0.08c0,0,0.239-0.27,0.227-0.668c-0.012-0.398-0.251-0.895-0.876-0.895
	s-0.784,0.533-0.766,0.748s0.104,0.614,0.619,0.6c0.472-0.012,0.472-0.465,0.472-0.465s-0.031-0.551-0.601-0.208"/>
<path id="_228930936" fill="#A7377F" d="M10.279,4.272c0.184,0.177,0.447,0.11,0.748-0.147c0.3-0.258,0.753-1.17,1.139-1.532
	s0.264-0.405,0.264-0.405l-0.07-0.071c0,0-0.043-0.122-0.405,0.264c-0.361,0.386-1.273,0.839-1.531,1.139
	c-0.257,0.3-0.324,0.564-0.146,0.748L10.279,4.272z"/>
<path id="_228930864" fill="#625FA8" d="M7.75,6.815c0.061-0.049,0.124-0.194,0.216-0.672C8.059,5.665,8.291,5.34,9.014,5.077
	C9.737,4.813,9.712,4.52,9.719,4.421c0.006-0.098,0.055-0.404-0.301-0.411S8.928,4.323,8.86,4.433S8.658,5.266,8.009,5.266
	S7.611,4.715,7.611,4.715S7.556,4.948,7.893,4.948s0.539-0.355,0.619-0.502c0.079-0.147,0.381-0.771,0.888-0.674
	c0.626,0.12,0.48,0.881,0.271,1.089c0.209-0.208,0.991-0.351,1.104,0.287c0.091,0.509-0.526,0.809-0.674,0.888
	C9.955,6.116,9.6,6.318,9.6,6.655c0,0.337,0.232,0.282,0.232,0.282S9.281,7.188,9.281,6.539s0.723-0.784,0.833-0.852
	s0.429-0.202,0.423-0.558c-0.007-0.355-0.313-0.306-0.411-0.3c-0.098,0.006-0.392-0.018-0.655,0.705
	C9.207,6.257,8.883,6.49,8.405,6.582C7.927,6.673,7.8,6.754,7.75,6.815z"/>
<path id="_228930792" fill="#F38081" d="M6.437,8.106c-0.882,0.289-1.041-0.3-1.06-0.423c-0.019-0.122,0.05-0.306,0.159-0.324
	c0.11-0.019,0.104,0.11,0.104,0.11c0.147,0.484,0.575,0.465,0.575,0.465C6.113,7.917,5.677,7.58,5.66,7.12
	C5.641,6.661,5.898,6.452,6.156,6.464C6.414,6.476,6.591,6.728,6.382,7.23C6.173,7.733,6.499,7.892,6.499,7.892
	C6.407,7.813,6.365,7.2,6.774,6.899c0.411-0.3,0.687,0.16,0.687,0.16l0.025,0.024c0,0,0.459,0.275,0.159,0.687
	c-0.3,0.41-0.913,0.367-0.993,0.275c0,0,0.16,0.324,0.662,0.117C7.816,7.954,8.067,8.131,8.08,8.389
	c0.012,0.257-0.196,0.514-0.656,0.496C6.965,8.867,6.628,8.432,6.609,8.328c0,0-0.018,0.429,0.466,0.575c0,0,0.129-0.006,0.11,0.104
	S6.983,9.185,6.86,9.167C6.738,9.149,6.15,8.989,6.437,8.106L6.437,8.106z"/>
<path id="_228930720" fill="#ED3237" d="M12.216,1.856c-0.056-0.043-0.064-0.124-0.021-0.179s0.124-0.064,0.179-0.021l0.52,0.519
	c0.044,0.055,0.034,0.135-0.021,0.179c-0.056,0.044-0.136,0.035-0.179-0.021L12.216,1.856z"/>
<polygon id="_228930648" fill="#A7377F" points="13.095,0.474 13.095,1.465 14.045,1.465 14.045,0.474 "/>
<path id="_228930576" fill="#959E48" d="M5.548,9.291c0,0-0.252,0.318,0.068,0.44c0,0,0.024-0.15-0.076-0.241
	C5.48,9.436,5.548,9.291,5.548,9.291z"/>
<path id="_228930504" fill="#959E48" d="M5.953,8.975c0,0-0.156,0.143-0.15,0.354s0.207,0.247,0.207,0.247s-0.037-0.061-0.023-0.13
	c0.027-0.128-0.102-0.156-0.09-0.275c0.01-0.119,0.051-0.173,0.051-0.173S5.974,8.967,5.953,8.975z"/>
<path id="_228930432" fill="#959E48" d="M6.298,8.557c0,0-0.132,0.155-0.132,0.375c0,0.219,0.259,0.381,0.413,0.27
	c0,0-0.221,0.035-0.209-0.172c0,0,0.075,0.021,0.059-0.061c-0.018-0.082-0.19-0.085-0.17-0.266C6.267,8.637,6.3,8.584,6.3,8.584
	S6.31,8.55,6.298,8.557z"/>
<path id="_228930360" fill="#959E48" d="M6.56,8.125c0,0-0.116,0.104-0.116,0.318S6.65,8.891,6.935,8.744
	c0,0-0.24,0.021-0.268-0.173c0,0,0.125-0.027,0.011-0.123C6.564,8.354,6.501,8.357,6.56,8.125z"/>
<path id="_228930288" fill="#319E94" d="M5.092,9.457c0.032-0.132,0.224-0.323,0.224-0.323C5.119,9.067,5.445,8.991,5.58,8.874
	c0.137-0.117-0.084-0.09-0.084-0.09S5.435,8.75,5.626,8.665S5.64,8.631,5.673,8.57s0.146-0.128,0.28-0.146
	C6.087,8.409,6.14,8.319,6.069,8.333S6,8.303,6,8.303C6.101,8.288,6.453,8.04,6.517,7.975C6.582,7.91,6.603,7.942,6.603,7.942
	l0.006,0.006c0,0,0.032,0.021-0.033,0.086C6.511,8.098,6.263,8.45,6.247,8.55c0,0-0.044,0.002-0.03-0.069
	c0.016-0.07-0.074-0.018-0.09,0.116c-0.018,0.134-0.084,0.247-0.146,0.28S5.972,8.733,5.886,8.924S5.767,9.055,5.767,9.055
	s0.027-0.221-0.09-0.084C5.56,9.106,5.484,9.432,5.417,9.235C5.417,9.235,5.224,9.424,5.092,9.457z"/>
<path id="_228930216" fill="#959E48" d="M5.26,9.003c0,0-0.317,0.251-0.44-0.069c0,0,0.149-0.025,0.241,0.076
	C5.115,9.071,5.26,9.003,5.26,9.003z"/>
<path id="_228930144" fill="#959E48" d="M5.576,8.598c0,0-0.143,0.156-0.354,0.15S4.974,8.542,4.974,8.542s0.06,0.037,0.13,0.023
	c0.128-0.027,0.156,0.102,0.275,0.09c0.118-0.01,0.173-0.052,0.173-0.052S5.583,8.578,5.576,8.598z"/>
<path id="_228930024" fill="#959E48" d="M5.993,8.252c0,0-0.154,0.131-0.374,0.131c-0.219,0-0.381-0.258-0.27-0.412
	c0,0-0.035,0.221,0.172,0.208c0,0-0.021-0.074,0.061-0.058s0.085,0.189,0.266,0.17C5.913,8.284,5.966,8.25,5.966,8.25
	S6,8.241,5.993,8.252z"/>
<path id="_228930048" fill="#959E48" d="M6.426,7.992c0,0-0.104,0.115-0.318,0.115S5.66,7.901,5.806,7.616
	c0,0-0.02,0.24,0.174,0.268c0,0,0.027-0.124,0.123-0.011C6.197,7.986,6.193,8.049,6.426,7.992z"/>
</svg>
