<?xml version="1.0" encoding="utf-8"?>
<!-- Generator: Adobe Illustrator 15.0.0, SVG Export Plug-In . SVG Version: 6.00 Build 0)  -->
<!DOCTYPE svg PUBLIC "-//W3C//DTD SVG 1.1//EN" "http://www.w3.org/Graphics/SVG/1.1/DTD/svg11.dtd">
<svg version="1.1" id="Layer_1" xmlns="http://www.w3.org/2000/svg" xmlns:xlink="http://www.w3.org/1999/xlink" x="0px" y="0px"
	 width="14.527px" height="14.547px" viewBox="0 0 14.527 14.547" enable-background="new 0 0 14.527 14.547" xml:space="preserve">
<path id="_228931800" fill="#7E68AD" d="M10.258,3.345c0,0,0.092,0.435-0.282,0.649C9.602,4.209,9.785,4.65,9.693,4.779
	c0,0,0.711,0.055,0.748-1.042c0,0,0.502,0.778,0.49,1.25c-0.013,0.472-0.27,0.54,0.208,1.373c0,0,0.067,0.196,0.024,0.3
	c0,0,0.649-0.337,0.012-1.789c0,0,0.452,0.745,1.33,1.127c0.521,0.226,0.527,0.857,0.527,0.857s-0.008,0.465-0.447,0.484
	c-0.282,0.012-0.252-0.239-0.252-0.239s-0.012-0.117,0.104-0.123c0.116-0.006,0.141,0.104,0.135,0.153c0,0,0.11-0.257-0.122-0.257
	c-0.233,0-0.228,0.246-0.228,0.246s-0.048,0.331,0.38,0.331c0.43,0,0.552-0.447,0.552-0.558s-0.067-0.649-0.337-0.79
	c0,0,1.709,0.386,1.709-0.809c0-0.766-0.557-0.68-0.557-0.68s-0.479-0.012-0.479,0.429c0,0.355,0.367,0.349,0.367,0.349
	s0.276,0.019,0.276-0.282c0-0.227-0.228-0.141-0.228-0.141s0.104,0.012,0.104,0.134c0,0.123-0.11,0.147-0.177,0.147
	c-0.068,0-0.197-0.031-0.197-0.227c0-0.196,0.19-0.288,0.344-0.288s0.429,0.11,0.429,0.533c0,0.423-0.275,0.748-0.98,0.748
	c-0.704,0-1.2-0.264-1.587-0.619c0,0,0.963,0.698,1.605,0.067c0,0-0.275-0.019-0.472-0.184s-0.408-0.227-1.06-0.123
	c-0.533,0.086-1.029-0.888-1.029-0.888s0.227,0.276,0.803,0.27c0,0,0.006-0.166-0.104-0.196c0,0,0.171,0.061,0.398-0.024
	c0.226-0.086,0.472,0.184,0.472,0.184s0.037-0.606-0.771-0.644c0,0,0.122-0.073,0.115-0.214c0,0-0.416-0.122-0.832,0.067
	c-0.338,0.153-0.546-0.368-0.546-0.368S10.35,3.259,10.258,3.345z"/>
<path id="_228931728" fill="#7E68AD" d="M3.061,2.052C2.552,2.064,2.362,1.899,2.362,1.899L2.289,1.96
	c0.355,0.355,0.858,0.404,1.667,0.49c0.809,0.086,0.993,0.429,1.017,0.735c0.024,0.306-0.11,0.441-0.331,0.453
	C4.421,3.651,4.25,3.37,4.384,3.259C4.58,3.1,4.703,3.37,4.703,3.37c0.037-0.221-0.196-0.331-0.38-0.196
	c-0.184,0.135-0.061,0.613,0.27,0.601c0.481-0.018,0.662-0.441,0.392-0.98c-0.27-0.539-2.095-0.6-2.095-0.6
	C3.857,2.255,4.506,1.63,4.506,1.63S4.458,2.303,5.18,2.034c0.723-0.27,0.772,0.368,0.772,0.368
	c0.232-1.103-0.968-1.127-0.968-1.127C6.308,0.11,7.354,0.262,7.354,0.262c0.684-0.065,1.01,0.477,1.04,0.794
	c0.03,0.317,0.169,1.123,1.012,0.986c0,0-0.317-0.16-0.349-0.681C9.025,0.841,8.54,0.531,8.54,0.531s1.088,0.437,1.663,2.181
	c0,0,0.115,0.112,0.145-0.038c0,0-0.25-0.785-0.461-1.066c0,0,0.428,0.605,0.979,0.645c0.552,0.039,0.586,0.011,0.699,0.173
	c0,0,0.034-0.644-0.588-0.812c-0.404-0.109-0.666,0.107-1.426-0.485c0,0-0.744-1.007-2.075-1.021c0,0-1.266-0.146-2.626,1.056
	c0,0,0.38-0.956-0.772-1.164c0,0,0.441,0.257,0.184,0.662C4.004,1.066,3.943,1.287,4.421,1.47C4.421,1.47,3.833,2.034,3.061,2.052
	L3.061,2.052z"/>
<path id="_228931656" fill="#B56FAD" d="M11.717,2.836h-2.26c0-0.208-0.172-0.594-0.687-0.594S8.231,2.831,8.231,2.831L8.229,2.935
	c0,0.22,0.164,0.398,0.364,0.398c0.201,0,0.37-0.178,0.364-0.398C8.953,2.806,8.893,2.732,8.893,2.732
	c0.184,0.037,0.209,0.22,0.209,0.331s-0.074,0.723-0.98,1.165c-0.907,0.441-1.25,1.495-1.176,2.107
	c0.073,0.613,0.245,0.49,0.245,0.49C6.945,6.041,7.214,4.987,8.329,4.448c1.115-0.539,1.128-1.201,1.128-1.201h2.346L11.717,2.836z"
	/>
<path id="_228931584" fill="#F38081" d="M7.19,3.1c0,0,0.245,0.049,0.355,0.429S7.38,4.074,7.276,4.111
	c-0.104,0.037-0.472,0.043-0.57-0.368C6.645,3.486,6.755,3.18,6.755,3.18S6.363,3.719,6.872,4.123c0,0,0.006,0.221-0.294,0.221
	s-0.459-0.3-0.496-0.447S5.94,3.118,6.859,2.971c0,0,0.797-0.631,1.268,0.043c0,0,0.344,0.71-0.379,0.839
	C7.748,3.854,7.852,3.021,7.19,3.1z"/>
<path id="_228931512" fill="#FCBD7A" d="M6.896,2.806c0,0-0.435,0.196-0.558-0.778s0.729-1.121,0.95-1.109
	c0.22,0.012,0.509,0.129,0.509,0.472S7.472,1.667,7.472,1.667S7.245,1.605,7.343,1.354c0,0-0.006,0.233,0.19,0.227
	c0.196-0.006,0.159-0.208,0.159-0.208s0.012-0.318-0.429-0.318c-0.441,0-0.551,0.355-0.515,0.606
	C6.786,1.911,7.374,2.524,6.896,2.806z"/>
<path id="_228931440" fill="#4412B3" d="M2.889,0.809H2.871c0,0-0.123-0.073-0.239-0.073S2.393,0.852,2.393,1.023
	s0.141,0.368,0.38,0.368c0.239,0,0.496-0.171,0.496-0.533c0-0.362-0.306-0.619-0.699-0.619c-0.392,0-0.723,0.343-0.723,0.803
	c0,0.422,0.196,0.576,0.196,0.576s0.049,0.098-0.08,0.08c0,0-0.239-0.27-0.227-0.668C1.75,0.631,1.988,0.135,2.614,0.135
	c0.625,0,0.784,0.533,0.766,0.748c-0.019,0.214-0.104,0.614-0.619,0.6C2.289,1.47,2.289,1.017,2.289,1.017S2.32,0.466,2.889,0.809z"
	/>
<path id="_228931368" fill="#7E68AD" d="M2.052,3.061c0.012-0.508-0.153-0.698-0.153-0.698L1.96,2.289
	c0.355,0.355,0.404,0.858,0.49,1.667s0.429,0.993,0.735,1.017c0.306,0.024,0.441-0.11,0.453-0.331c0.012-0.22-0.27-0.392-0.38-0.257
	C3.1,4.579,3.37,4.703,3.37,4.703c-0.221,0.037-0.331-0.196-0.196-0.38c0.134-0.184,0.612-0.062,0.6,0.27
	c-0.018,0.481-0.441,0.662-0.98,0.392S2.193,2.889,2.193,2.889C2.255,3.857,1.63,4.506,1.63,4.506S2.304,4.458,2.034,5.18
	c-0.27,0.723,0.367,0.772,0.367,0.772C1.299,6.185,1.274,4.984,1.274,4.984C0.11,6.308,0.262,7.354,0.262,7.354
	c-0.065,0.682,0.477,1.009,0.794,1.04c0.317,0.031,1.122,0.17,0.986,1.012c0,0-0.16-0.316-0.681-0.348
	C0.841,9.026,0.531,8.54,0.531,8.54s0.438,1.088,2.182,1.664c0,0,0.112,0.115-0.039,0.145c0,0-0.785-0.25-1.066-0.462
	c0,0,0.605,0.428,0.645,0.979c0.039,0.551,0.011,0.586,0.173,0.699c0,0-0.644,0.033-0.812-0.588
	c-0.109-0.404,0.107-0.668-0.485-1.426c0,0-1.007-0.744-1.021-2.076c0,0-0.145-1.266,1.056-2.626c0,0-0.956,0.38-1.164-0.772
	c0,0,0.257,0.441,0.662,0.184c0.404-0.257,0.625-0.318,0.809,0.16C1.47,4.421,2.034,3.833,2.052,3.061z"/>
<path id="_228931296" fill="#7E68AD" d="M3.554,10.364c0,0,0.961,0.6,1.433,0.588c0.472-0.013,0.54-0.27,1.373,0.208
	c0,0,0.196,0.067,0.3,0.024c0,0-0.337,0.65-1.789,0.012c0,0,0.745,0.452,1.127,1.33c0.227,0.521,0.857,0.527,0.857,0.527
	s0.465-0.008,0.484-0.447c0.012-0.282-0.239-0.252-0.239-0.252s-0.116-0.012-0.123,0.104c-0.006,0.116,0.104,0.142,0.153,0.135
	c0,0-0.257,0.11-0.257-0.122c0-0.233,0.245-0.227,0.245-0.227s0.331-0.049,0.331,0.379c0,0.43-0.447,0.552-0.558,0.552
	c-0.11,0-0.649-0.067-0.79-0.337c0,0,0.386,1.709-0.809,1.709c-0.766,0-0.68-0.557-0.68-0.557s-0.012-0.479,0.429-0.479
	c0.355,0,0.349,0.367,0.349,0.367s0.019,0.276-0.282,0.276c-0.227,0-0.141-0.228-0.141-0.228s0.012,0.105,0.135,0.105
	s0.147-0.111,0.147-0.178c0-0.068-0.031-0.197-0.227-0.197c-0.196,0-0.288,0.19-0.288,0.344s0.11,0.429,0.533,0.429
	c0.423,0,0.748-0.275,0.748-0.979c0-0.705-0.263-1.201-0.619-1.588c0,0,0.698,0.963,0.067,1.605c0,0-0.019-0.275-0.184-0.472
	c-0.165-0.196-0.227-0.408-0.122-1.06c0.085-0.533-0.889-1.029-0.889-1.029s0.276,0.227,0.27,0.803c0,0-0.165,0.006-0.196-0.104
	c0,0,0.062,0.171-0.024,0.398c-0.086,0.227,0.184,0.472,0.184,0.472s-0.606,0.037-0.643-0.771c0,0-0.074,0.122-0.214,0.115
	c0,0-0.123-0.416,0.067-0.832c0.153-0.338-0.368-0.545-0.368-0.545s-0.086-0.074,0-0.166c0,0,1.17,0.03,1.335-1.643
	c0,0,0.019-0.777-0.582-1.09c0,0-0.08-0.196,0.135-0.172c0,0,0.545,0.515,0.551,1.158c0,0,0.208-0.919,0.956-0.919
	c0.637,0,0.619,0.478,0.619,0.478s0.03,0.423-0.38,0.423c-0.288,0-0.275-0.288-0.275-0.288S5.698,8.01,5.937,8.01
	c0.171,0,0.166,0.16,0.166,0.16s-0.055-0.074-0.16-0.074c-0.104,0-0.134,0.141-0.134,0.141s0.006,0.172,0.184,0.172
	S6.23,8.237,6.23,8.09S6.108,7.741,5.734,7.741s-0.79,0.343-1.011,1.36c0,0-0.11,0.478-0.251,0.576c0,0,0.79-0.803,1.764,0.036
	c0,0-0.404,0.031-0.619,0.154c-0.214,0.122-0.5,0.196-1.017,0.066C4.429,9.891,4.319,9.911,4.319,9.911S4,10.327,3.554,10.364z"/>
<path id="_228931224" fill="#B56FAD" d="M3.247,11.818V9.457c0,0,0.662-0.013,1.201-1.128C4.987,7.214,6.041,6.945,6.825,7.19
	c0,0,0.122-0.171-0.49-0.245c-0.613-0.074-1.667,0.27-2.107,1.177C3.786,9.028,3.174,9.101,3.063,9.101S2.769,9.077,2.732,8.893
	c0,0,0.074,0.061,0.202,0.063c0.22,0.007,0.399-0.163,0.399-0.364c0-0.2-0.179-0.363-0.399-0.363L2.831,8.231
	c0,0-0.588,0.025-0.588,0.539c0,0.516,0.386,0.687,0.594,0.687v2.315C2.836,11.772,3.1,11.756,3.247,11.818z"/>
<path id="_228931152" fill="#F38081" d="M3.1,7.19c0,0,0.049,0.245,0.429,0.355c0.38,0.11,0.545-0.166,0.582-0.27
	c0.037-0.104,0.043-0.472-0.367-0.57C3.486,6.645,3.18,6.755,3.18,6.755s0.539-0.392,0.943,0.116c0,0,0.221,0.006,0.221-0.294
	s-0.3-0.459-0.447-0.496S3.118,5.94,2.971,6.859c0,0-0.631,0.796,0.043,1.269c0,0,0.711,0.343,0.839-0.38
	C3.854,7.748,3.021,7.852,3.1,7.19z"/>
<path id="_228931080" fill="#FCBD7A" d="M2.806,6.896c0,0,0.196-0.435-0.778-0.558s-1.121,0.729-1.109,0.95
	c0.013,0.22,0.129,0.508,0.472,0.508c0.343,0,0.276-0.325,0.276-0.325S1.605,7.245,1.354,7.343c0,0,0.233-0.006,0.227,0.19
	C1.575,7.729,1.372,7.692,1.372,7.692S1.054,7.705,1.054,7.264c0-0.441,0.355-0.552,0.606-0.515
	C1.912,6.786,2.524,7.374,2.806,6.896z"/>
<path id="_228931008" fill="#4412B3" d="M0.809,2.871c0,0-0.073-0.123-0.073-0.239s0.116-0.239,0.288-0.239
	c0.171,0,0.367,0.141,0.367,0.38c0,0.239-0.171,0.496-0.533,0.496S0.239,2.962,0.239,2.57s0.343-0.723,0.803-0.723
	c0.423,0,0.576,0.196,0.576,0.196s0.098,0.049,0.08-0.08c0,0-0.27-0.239-0.668-0.227C0.631,1.75,0.135,1.988,0.135,2.613
	s0.533,0.784,0.748,0.766c0.214-0.018,0.614-0.104,0.6-0.619C1.47,2.289,1.017,2.289,1.017,2.289S0.466,2.319,0.809,2.889"/>
<path id="_228930936" fill="#A7377F" d="M4.262,4.258c0.177-0.184,0.11-0.447-0.147-0.748c-0.258-0.3-1.17-0.753-1.532-1.139
	S2.178,2.107,2.178,2.107L2.107,2.178c0,0-0.122,0.043,0.264,0.405C2.757,2.944,3.21,3.857,3.51,4.114
	c0.3,0.257,0.564,0.325,0.748,0.147L4.262,4.258z"/>
<path id="_228930864" fill="#625FA8" d="M6.805,6.787C6.756,6.726,6.61,6.663,6.133,6.571C5.655,6.479,5.33,6.247,5.067,5.523
	C4.803,4.8,4.509,4.825,4.411,4.819C4.313,4.813,4.007,4.764,4,5.119c-0.006,0.355,0.313,0.49,0.423,0.558s0.833,0.202,0.833,0.852
	S4.705,6.926,4.705,6.926s0.233,0.055,0.233-0.282S4.583,6.105,4.436,6.026S3.665,5.645,3.762,5.138
	c0.12-0.625,0.881-0.48,1.089-0.271C4.643,4.658,4.5,3.875,5.138,3.762c0.509-0.091,0.809,0.527,0.888,0.674
	s0.282,0.502,0.619,0.502c0.337,0,0.282-0.233,0.282-0.233s0.251,0.551-0.398,0.551S5.744,4.533,5.677,4.423
	C5.609,4.313,5.475,3.994,5.119,4c-0.355,0.006-0.306,0.313-0.3,0.411c0.006,0.098-0.018,0.392,0.705,0.655
	C6.247,5.33,6.479,5.654,6.571,6.132S6.744,6.738,6.805,6.787z"/>
<path id="_228930792" fill="#F38081" d="M8.096,8.1c0.289,0.882-0.3,1.041-0.422,1.06S7.367,9.11,7.349,9
	c-0.018-0.11,0.11-0.104,0.11-0.104c0.484-0.147,0.465-0.575,0.465-0.575C7.906,8.424,7.569,8.86,7.11,8.877
	C6.65,8.896,6.442,8.639,6.454,8.381S6.718,7.946,7.22,8.155s0.662-0.116,0.662-0.116C7.803,8.13,7.189,8.172,6.889,7.763
	c-0.3-0.411,0.16-0.687,0.16-0.687l0.025-0.025c0,0,0.275-0.459,0.686-0.159c0.41,0.3,0.367,0.913,0.275,0.993
	c0,0,0.324-0.16,0.117-0.662C7.943,6.721,8.121,6.47,8.379,6.458c0.257-0.012,0.514,0.196,0.496,0.655
	C8.856,7.572,8.422,7.909,8.317,7.928c0,0,0.429,0.018,0.575-0.466c0,0-0.006-0.129,0.104-0.11s0.178,0.202,0.159,0.325
	C9.139,7.799,8.979,8.387,8.096,8.1L8.096,8.1z"/>
<path id="_228930720" fill="#ED3237" d="M1.846,2.322c-0.043,0.055-0.124,0.064-0.179,0.02C1.612,2.298,1.603,2.218,1.646,2.163
	l0.519-0.519C2.221,1.6,2.301,1.609,2.345,1.665S2.379,1.8,2.324,1.843L1.846,2.322z"/>
<polygon id="_228930648" fill="#A7377F" points="0.463,1.442 1.455,1.442 1.455,0.493 0.463,0.493 "/>
<path id="_228930576" fill="#959E48" d="M9.28,8.989c0,0,0.318,0.252,0.44-0.068c0,0-0.15-0.024-0.241,0.076
	C9.426,9.057,9.28,8.989,9.28,8.989z"/>
<path id="_228930504" fill="#959E48" d="M8.965,8.584c0,0,0.143,0.156,0.354,0.15s0.247-0.207,0.247-0.207s-0.061,0.037-0.13,0.023
	C9.309,8.524,9.28,8.653,9.161,8.641C9.042,8.631,8.988,8.59,8.988,8.59S8.957,8.563,8.965,8.584z"/>
<path id="_228930432" fill="#959E48" d="M8.547,8.239c0,0,0.155,0.132,0.375,0.132c0.219,0,0.381-0.259,0.27-0.413
	c0,0,0.035,0.221-0.172,0.209c0,0,0.021-0.075-0.061-0.059c-0.082,0.018-0.085,0.19-0.266,0.17C8.627,8.27,8.574,8.237,8.574,8.237
	S8.54,8.227,8.547,8.239z"/>
<path id="_228930360" fill="#959E48" d="M8.114,7.977c0,0,0.104,0.116,0.318,0.116s0.448-0.206,0.301-0.491
	c0,0,0.021,0.24-0.173,0.268c0,0-0.027-0.125-0.123-0.011C8.344,7.973,8.347,8.036,8.114,7.977z"/>
<path id="_228930288" fill="#319E94" d="M9.446,9.445C9.314,9.413,9.123,9.221,9.123,9.221C9.057,9.418,8.98,9.092,8.863,8.958
	c-0.117-0.137-0.09,0.084-0.09,0.084S8.74,9.102,8.654,8.911S8.621,8.897,8.56,8.864s-0.128-0.146-0.146-0.28
	C8.398,8.45,8.309,8.397,8.323,8.468s-0.03,0.068-0.03,0.068C8.277,8.436,8.029,8.084,7.965,8.02
	C7.899,7.956,7.932,7.934,7.932,7.934l0.006-0.006c0,0,0.021-0.032,0.086,0.033C8.088,8.026,8.439,8.274,8.54,8.291
	c0,0,0.002,0.044-0.069,0.03C8.4,8.305,8.453,8.395,8.587,8.411c0.134,0.018,0.247,0.084,0.28,0.146S8.723,8.565,8.914,8.651
	S9.045,8.77,9.045,8.77S8.824,8.743,8.961,8.86c0.135,0.117,0.461,0.193,0.264,0.26C9.225,9.12,9.414,9.313,9.446,9.445z"/>
<path id="_228930216" fill="#959E48" d="M8.993,9.277c0,0,0.251,0.317-0.069,0.44c0,0-0.025-0.149,0.076-0.241
	C9.061,9.422,8.993,9.277,8.993,9.277z"/>
<path id="_228930144" fill="#959E48" d="M8.588,8.961c0,0,0.156,0.143,0.15,0.354S8.531,9.563,8.531,9.563s0.037-0.06,0.023-0.13
	c-0.027-0.128,0.102-0.156,0.09-0.275C8.635,9.04,8.593,8.985,8.593,8.985S8.567,8.954,8.588,8.961z"/>
<path id="_228930024" fill="#959E48" d="M8.242,8.544c0,0,0.131,0.154,0.131,0.374c0,0.219-0.258,0.381-0.412,0.27
	c0,0,0.221,0.035,0.208-0.172c0,0-0.074,0.021-0.058-0.061s0.189-0.085,0.17-0.266C8.273,8.625,8.24,8.571,8.24,8.571
	S8.23,8.537,8.242,8.544z"/>
<path id="_228930048" fill="#959E48" d="M7.981,8.111c0,0,0.115,0.104,0.115,0.318S7.891,8.877,7.605,8.731
	c0,0,0.24,0.02,0.268-0.174c0,0-0.124-0.027-0.011-0.123C7.976,8.34,8.039,8.344,7.981,8.111z"/>
</svg>
