<?xml version="1.0" encoding="utf-8"?>
<!-- Generator: Adobe Illustrator 15.0.0, SVG Export Plug-In . SVG Version: 6.00 Build 0)  -->
<!DOCTYPE svg PUBLIC "-//W3C//DTD SVG 1.1//EN" "http://www.w3.org/Graphics/SVG/1.1/DTD/svg11.dtd">
<svg version="1.1" id="Layer_1" xmlns="http://www.w3.org/2000/svg" xmlns:xlink="http://www.w3.org/1999/xlink" x="0px" y="0px"
	 width="14.527px" height="14.547px" viewBox="0 0 14.527 14.547" enable-background="new 0 0 14.527 14.547" xml:space="preserve">
<path id="_228931800" fill="#7E68AD" d="M4.27,11.203c0,0-0.092-0.435,0.282-0.649s0.19-0.655,0.282-0.784
	c0,0-0.711-0.055-0.748,1.041c0,0-0.502-0.777-0.49-1.249c0.013-0.472,0.27-0.54-0.208-1.373c0,0-0.067-0.195-0.024-0.3
	c0,0-0.649,0.337-0.012,1.789c0,0-0.452-0.745-1.33-1.128C1.501,8.324,1.494,7.692,1.494,7.692s0.008-0.465,0.447-0.483
	c0.282-0.013,0.252,0.238,0.252,0.238S2.205,7.564,2.089,7.57S1.948,7.465,1.954,7.417c0,0-0.11,0.258,0.122,0.258
	c0.233,0,0.228-0.246,0.228-0.246s0.048-0.33-0.38-0.33c-0.43,0-0.552,0.447-0.552,0.558s0.067,0.649,0.337,0.79
	C1.709,8.446,0,8.06,0,9.254c0,0.766,0.557,0.68,0.557,0.68s0.479,0.013,0.479-0.429c0-0.355-0.367-0.349-0.367-0.349
	S0.392,9.138,0.392,9.438c0,0.227,0.228,0.141,0.228,0.141S0.515,9.567,0.515,9.445c0-0.123,0.11-0.147,0.177-0.147
	c0.068,0,0.197,0.03,0.197,0.227s-0.19,0.288-0.344,0.288s-0.429-0.11-0.429-0.533s0.275-0.747,0.98-0.747
	c0.704,0,1.2,0.264,1.587,0.618c0,0-0.963-0.698-1.605-0.067c0,0,0.275,0.019,0.472,0.185c0.196,0.165,0.408,0.227,1.06,0.122
	c0.533-0.086,1.029,0.889,1.029,0.889s-0.227-0.276-0.803-0.27c0,0-0.006,0.165,0.104,0.195c0,0-0.171-0.061-0.398,0.024
	c-0.226,0.086-0.472-0.184-0.472-0.184s-0.037,0.606,0.771,0.644c0,0-0.122,0.073-0.115,0.214c0,0,0.416,0.122,0.832-0.066
	c0.338-0.153,0.546,0.367,0.546,0.367S4.178,11.289,4.27,11.203z"/>
<path id="_228931728" fill="#7E68AD" d="M11.467,12.496c0.509-0.013,0.698,0.152,0.698,0.152l0.074-0.061
	c-0.355-0.355-0.858-0.404-1.667-0.49s-0.992-0.429-1.017-0.735s0.11-0.441,0.33-0.453c0.221-0.013,0.393,0.27,0.258,0.38
	c-0.195,0.159-0.318-0.11-0.318-0.11c-0.037,0.221,0.196,0.331,0.38,0.196s0.061-0.613-0.27-0.601
	c-0.481,0.018-0.662,0.441-0.393,0.98c0.27,0.538,2.096,0.6,2.096,0.6c-0.968-0.062-1.617,0.563-1.617,0.563
	s0.049-0.673-0.674-0.403c-0.724,0.27-0.772-0.368-0.772-0.368c-0.232,1.103,0.968,1.127,0.968,1.127
	c-1.323,1.164-2.369,1.013-2.369,1.013c-0.684,0.065-1.01-0.477-1.04-0.794s-0.169-1.122-1.012-0.986c0,0,0.317,0.16,0.349,0.681
	s0.517,0.831,0.517,0.831s-1.088-0.438-1.663-2.182c0,0-0.115-0.112-0.145,0.038c0,0,0.25,0.785,0.461,1.066
	c0,0-0.428-0.605-0.979-0.646c-0.552-0.039-0.586-0.011-0.699-0.173c0,0-0.034,0.645,0.588,0.812
	c0.404,0.109,0.666-0.106,1.426,0.485c0,0,0.744,1.007,2.075,1.021c0,0,1.266,0.146,2.626-1.056c0,0-0.38,0.956,0.772,1.164
	c0,0-0.441-0.257-0.185-0.661c0.258-0.404,0.319-0.625-0.159-0.809C10.106,13.078,10.695,12.514,11.467,12.496L11.467,12.496z"/>
<path id="_228931656" fill="#B56FAD" d="M2.811,11.711h2.26c0,0.208,0.172,0.594,0.687,0.594s0.539-0.588,0.539-0.588l0.003-0.104
	c0-0.22-0.164-0.398-0.364-0.398c-0.201,0-0.37,0.179-0.364,0.398c0.004,0.129,0.064,0.202,0.064,0.202
	c-0.184-0.036-0.209-0.22-0.209-0.33s0.074-0.724,0.98-1.165c0.907-0.44,1.25-1.494,1.177-2.106C7.51,7.6,7.338,7.723,7.338,7.723
	c0.245,0.785-0.025,1.838-1.14,2.377c-1.115,0.539-1.128,1.2-1.128,1.2H2.725L2.811,11.711z"/>
<path id="_228931584" fill="#F38081" d="M7.337,11.448c0,0-0.245-0.049-0.355-0.429s0.166-0.545,0.27-0.582s0.472-0.043,0.57,0.367
	c0.062,0.258-0.049,0.563-0.049,0.563s0.393-0.539-0.117-0.943c0,0-0.006-0.221,0.294-0.221c0.301,0,0.46,0.301,0.496,0.447
	c0.037,0.147,0.141,0.778-0.778,0.926c0,0-0.797,0.631-1.268-0.043c0,0-0.344-0.711,0.379-0.84
	C6.78,10.694,6.676,11.527,7.337,11.448z"/>
<path id="_228931512" fill="#FCBD7A" d="M7.631,11.742c0,0,0.435-0.196,0.558,0.778c0.122,0.974-0.729,1.121-0.95,1.108
	C7.019,13.617,6.73,13.5,6.73,13.157s0.325-0.275,0.325-0.275s0.227,0.061,0.128,0.313c0,0,0.006-0.233-0.19-0.227
	c-0.196,0.006-0.159,0.208-0.159,0.208s-0.012,0.318,0.429,0.318c0.441,0,0.552-0.355,0.516-0.606
	C7.742,12.636,7.154,12.024,7.631,11.742z"/>
<path id="_228931440" fill="#4412B3" d="M11.639,13.739h0.018c0,0,0.123,0.073,0.239,0.073s0.239-0.116,0.239-0.287
	c0-0.172-0.141-0.368-0.38-0.368s-0.496,0.172-0.496,0.533s0.306,0.619,0.698,0.619s0.723-0.344,0.723-0.803
	c0-0.423-0.196-0.576-0.196-0.576s-0.049-0.098,0.08-0.08c0,0,0.239,0.27,0.227,0.668s-0.251,0.895-0.876,0.895
	s-0.784-0.533-0.766-0.747c0.019-0.215,0.104-0.614,0.618-0.601c0.473,0.013,0.473,0.466,0.473,0.466S12.208,14.082,11.639,13.739z"
	/>
<path id="_228931368" fill="#7E68AD" d="M12.476,11.487c-0.013,0.509,0.152,0.698,0.152,0.698l-0.061,0.074
	c-0.355-0.355-0.404-0.858-0.49-1.667S11.648,9.6,11.342,9.576s-0.441,0.11-0.453,0.331c-0.013,0.22,0.27,0.392,0.38,0.257
	c0.159-0.195-0.11-0.318-0.11-0.318c0.221-0.037,0.331,0.196,0.195,0.38c-0.134,0.184-0.612,0.062-0.6-0.27
	c0.018-0.481,0.44-0.662,0.979-0.393s0.601,2.096,0.601,2.096c-0.062-0.968,0.563-1.617,0.563-1.617s-0.674,0.049-0.404-0.674
	c0.27-0.724-0.367-0.772-0.367-0.772c1.103-0.232,1.127,0.968,1.127,0.968c1.164-1.323,1.013-2.369,1.013-2.369
	c0.065-0.682-0.477-1.008-0.794-1.04s-1.122-0.17-0.986-1.012c0,0,0.16,0.316,0.681,0.348s0.831,0.518,0.831,0.518
	s-0.438-1.088-2.182-1.664c0,0-0.112-0.115,0.038-0.145c0,0,0.785,0.25,1.066,0.463c0,0-0.605-0.428-0.646-0.98
	c-0.039-0.551-0.011-0.586-0.173-0.699c0,0,0.645-0.033,0.812,0.588c0.109,0.404-0.107,0.668,0.485,1.426
	c0,0,1.007,0.744,1.021,2.076c0,0,0.146,1.267-1.056,2.626c0,0,0.956-0.38,1.164,0.772c0,0-0.257-0.441-0.661-0.184
	c-0.404,0.257-0.625,0.318-0.809-0.16C13.058,10.126,12.493,10.715,12.476,11.487z"/>
<path id="_228931296" fill="#7E68AD" d="M10.974,4.184c0,0-0.961-0.6-1.433-0.588c-0.472,0.013-0.54,0.27-1.373-0.208
	c0,0-0.195-0.067-0.3-0.024c0,0,0.337-0.65,1.789-0.012c0,0-0.745-0.452-1.128-1.33C8.303,1.5,7.672,1.494,7.672,1.494
	S7.207,1.502,7.188,1.941C7.176,2.224,7.427,2.193,7.427,2.193S7.543,2.205,7.55,2.089c0.006-0.116-0.104-0.142-0.153-0.135
	c0,0,0.257-0.11,0.257,0.122c0,0.233-0.245,0.227-0.245,0.227s-0.33,0.049-0.33-0.379c0-0.43,0.446-0.552,0.558-0.552
	c0.11,0,0.648,0.067,0.79,0.337C8.426,1.709,8.04,0,9.234,0C10,0,9.914,0.557,9.914,0.557s0.013,0.479-0.429,0.479
	c-0.355,0-0.349-0.367-0.349-0.367S9.118,0.392,9.418,0.392c0.227,0,0.141,0.228,0.141,0.228S9.547,0.514,9.424,0.514
	c-0.122,0-0.146,0.111-0.146,0.178c0,0.068,0.03,0.197,0.227,0.197s0.288-0.19,0.288-0.344s-0.11-0.429-0.533-0.429
	S8.512,0.392,8.512,1.096c0,0.705,0.263,1.201,0.618,1.588c0,0-0.698-0.963-0.067-1.605c0,0,0.019,0.275,0.185,0.472
	c0.165,0.196,0.227,0.408,0.122,1.06c-0.086,0.533,0.889,1.029,0.889,1.029s-0.276-0.227-0.27-0.803c0,0,0.165-0.006,0.195,0.104
	c0,0-0.062-0.171,0.024-0.398c0.086-0.227-0.184-0.472-0.184-0.472s0.606-0.037,0.644,0.771c0,0,0.073-0.122,0.214-0.115
	c0,0,0.123,0.416-0.067,0.832c-0.152,0.338,0.368,0.545,0.368,0.545s0.086,0.074,0,0.166c0,0-1.17-0.029-1.336,1.643
	c0,0-0.019,0.778,0.582,1.09c0,0,0.08,0.196-0.135,0.172c0,0-0.545-0.514-0.551-1.159c0,0-0.209,0.919-0.956,0.919
	c-0.637,0-0.619-0.478-0.619-0.478s-0.03-0.423,0.38-0.423c0.288,0,0.275,0.288,0.275,0.288S8.83,6.537,8.591,6.537
	c-0.171,0-0.165-0.16-0.165-0.16S8.48,6.451,8.585,6.451S8.72,6.311,8.72,6.311S8.714,6.139,8.536,6.139S8.297,6.311,8.297,6.457
	S8.42,6.806,8.793,6.806c0.374,0,0.79-0.343,1.011-1.359c0,0,0.11-0.479,0.251-0.576c0,0-0.79,0.803-1.764-0.037
	c0,0,0.404-0.031,0.618-0.154c0.215-0.121,0.5-0.195,1.018-0.066c0.172,0.043,0.281,0.023,0.281,0.023S10.527,4.221,10.974,4.184z"
	/>
<path id="_228931224" fill="#B56FAD" d="M11.28,2.729v2.362c0,0-0.661,0.012-1.2,1.127C9.541,7.333,8.487,7.603,7.702,7.357
	c0,0-0.122,0.171,0.49,0.245C8.806,7.676,9.859,7.333,10.3,6.426c0.441-0.906,1.054-0.979,1.164-0.979s0.295,0.023,0.331,0.207
	c0,0-0.073-0.061-0.202-0.063c-0.22-0.008-0.398,0.162-0.398,0.363s0.179,0.363,0.398,0.363l0.104-0.002
	c0,0,0.588-0.025,0.588-0.539c0-0.516-0.386-0.686-0.594-0.686V2.775C11.691,2.775,11.428,2.791,11.28,2.729z"/>
<path id="_228931152" fill="#F38081" d="M11.428,7.358c0,0-0.049-0.245-0.429-0.355s-0.546,0.165-0.582,0.27
	c-0.037,0.104-0.043,0.472,0.367,0.569c0.258,0.062,0.563-0.049,0.563-0.049s-0.539,0.393-0.943-0.116c0,0-0.221-0.006-0.221,0.294
	c0,0.301,0.301,0.46,0.447,0.496c0.147,0.037,0.778,0.142,0.926-0.777c0,0,0.631-0.797-0.043-1.269c0,0-0.711-0.342-0.84,0.38
	C10.674,6.8,11.507,6.696,11.428,7.358z"/>
<path id="_228931080" fill="#FCBD7A" d="M11.722,7.652c0,0-0.196,0.435,0.778,0.558c0.974,0.122,1.121-0.729,1.108-0.95
	c-0.013-0.22-0.129-0.507-0.472-0.507s-0.275,0.324-0.275,0.324s0.061,0.227,0.313,0.129c0,0-0.233,0.006-0.227-0.19
	c0.006-0.195,0.208-0.158,0.208-0.158s0.318-0.013,0.318,0.428c0,0.441-0.355,0.552-0.606,0.516
	C12.616,7.762,12.003,7.173,11.722,7.652z"/>
<path id="_228931008" fill="#4412B3" d="M13.719,11.677c0,0,0.073,0.122,0.073,0.238s-0.116,0.239-0.288,0.239
	c-0.171,0-0.367-0.141-0.367-0.38s0.172-0.496,0.533-0.496s0.619,0.307,0.619,0.698c0,0.393-0.344,0.723-0.803,0.723
	c-0.423,0-0.576-0.196-0.576-0.196s-0.098-0.049-0.08,0.08c0,0,0.27,0.239,0.668,0.227c0.398-0.012,0.895-0.251,0.895-0.876
	s-0.533-0.784-0.747-0.766c-0.215,0.019-0.614,0.104-0.601,0.619c0.013,0.472,0.466,0.472,0.466,0.472s0.551-0.031,0.208-0.601"/>
<path id="_228930936" fill="#A7377F" d="M10.266,10.29c-0.177,0.184-0.11,0.447,0.147,0.748c0.258,0.3,1.17,0.753,1.531,1.139
	s0.405,0.264,0.405,0.264l0.07-0.07c0,0,0.122-0.043-0.264-0.405c-0.386-0.361-0.839-1.273-1.139-1.531
	c-0.301-0.257-0.564-0.324-0.748-0.146L10.266,10.29z"/>
<path id="_228930864" fill="#625FA8" d="M7.723,7.761c0.049,0.061,0.194,0.124,0.672,0.216c0.479,0.092,0.803,0.324,1.066,1.047
	c0.264,0.724,0.558,0.698,0.655,0.705c0.099,0.006,0.404,0.055,0.411-0.301c0.006-0.355-0.313-0.49-0.423-0.558
	S9.271,8.668,9.271,8.019s0.551-0.397,0.551-0.397S9.59,7.566,9.59,7.903s0.355,0.539,0.502,0.619
	c0.147,0.079,0.771,0.381,0.674,0.888c-0.119,0.626-0.881,0.48-1.089,0.271c0.208,0.209,0.351,0.991-0.287,1.104
	c-0.509,0.091-0.809-0.526-0.888-0.674C8.422,9.965,8.22,9.61,7.883,9.61c-0.337,0-0.282,0.232-0.282,0.232S7.35,9.292,7.999,9.292
	s0.784,0.723,0.852,0.833s0.202,0.429,0.558,0.423c0.355-0.007,0.307-0.313,0.301-0.411c-0.007-0.098,0.018-0.392-0.705-0.655
	S8.048,8.893,7.956,8.416C7.864,7.937,7.783,7.81,7.723,7.761z"/>
<path id="_228930792" fill="#F38081" d="M6.432,6.447c-0.289-0.882,0.3-1.041,0.423-1.06c0.122-0.019,0.306,0.05,0.324,0.159
	c0.019,0.11-0.11,0.104-0.11,0.104C6.584,5.799,6.604,6.227,6.604,6.227C6.621,6.123,6.958,5.688,7.418,5.67
	c0.459-0.019,0.668,0.238,0.655,0.496C8.062,6.424,7.81,6.602,7.308,6.393C6.805,6.184,6.646,6.509,6.646,6.509
	c0.079-0.092,0.692-0.134,0.993,0.276c0.3,0.411-0.16,0.687-0.16,0.687L7.454,7.496c0,0-0.275,0.459-0.687,0.159
	c-0.41-0.3-0.367-0.913-0.275-0.993c0,0-0.324,0.16-0.117,0.662C6.584,7.827,6.406,8.078,6.148,8.09
	C5.892,8.102,5.635,7.894,5.652,7.435C5.671,6.975,6.105,6.639,6.21,6.619c0,0-0.429-0.018-0.575,0.466c0,0,0.006,0.129-0.104,0.11
	S5.353,6.994,5.371,6.871C5.389,6.749,5.549,6.16,6.432,6.447L6.432,6.447z"/>
<path id="_228930720" fill="#ED3237" d="M12.682,12.226c0.044-0.056,0.124-0.064,0.179-0.021c0.056,0.044,0.064,0.124,0.021,0.179
	l-0.519,0.52c-0.056,0.044-0.136,0.034-0.18-0.021c-0.044-0.056-0.034-0.136,0.021-0.179L12.682,12.226z"/>
<polygon id="_228930648" fill="#A7377F" points="14.064,13.105 13.072,13.105 13.072,14.055 14.064,14.055 "/>
<path id="_228930576" fill="#959E48" d="M5.247,5.559c0,0-0.318-0.252-0.44,0.068c0,0,0.15,0.024,0.241-0.076
	C5.102,5.491,5.247,5.559,5.247,5.559z"/>
<path id="_228930504" fill="#959E48" d="M5.563,5.963c0,0-0.143-0.156-0.354-0.15S4.961,6.02,4.961,6.02s0.061-0.037,0.13-0.023
	c0.128,0.027,0.156-0.102,0.275-0.09c0.119,0.009,0.173,0.05,0.173,0.05S5.57,5.984,5.563,5.963z"/>
<path id="_228930432" fill="#959E48" d="M5.98,6.309c0,0-0.155-0.132-0.375-0.132c-0.219,0-0.381,0.259-0.27,0.414
	c0,0-0.035-0.221,0.172-0.209c0,0-0.021,0.075,0.061,0.059c0.082-0.018,0.085-0.19,0.266-0.17C5.9,6.277,5.953,6.311,5.953,6.311
	S5.987,6.32,5.98,6.309z"/>
<path id="_228930360" fill="#959E48" d="M6.413,6.57c0,0-0.104-0.116-0.318-0.116S5.646,6.66,5.794,6.945
	c0,0-0.021-0.24,0.173-0.268c0,0,0.027,0.125,0.123,0.011C6.184,6.574,6.181,6.512,6.413,6.57z"/>
<path id="_228930288" fill="#319E94" d="M5.081,5.103c0.132,0.032,0.323,0.224,0.323,0.224c0.066-0.198,0.143,0.128,0.26,0.263
	c0.117,0.137,0.09-0.084,0.09-0.084s0.033-0.061,0.119,0.131S5.906,5.65,5.968,5.684s0.128,0.146,0.146,0.28
	C6.129,6.098,6.219,6.15,6.204,6.079s0.03-0.068,0.03-0.068C6.25,6.111,6.498,6.463,6.563,6.527
	c0.065,0.064,0.033,0.086,0.033,0.086L6.59,6.619c0,0-0.021,0.032-0.086-0.033C6.439,6.521,6.088,6.273,5.987,6.257
	c0,0-0.002-0.044,0.069-0.03c0.07,0.016,0.018-0.074-0.116-0.09C5.807,6.119,5.693,6.053,5.66,5.991s0.145-0.009-0.047-0.095
	C5.422,5.811,5.482,5.777,5.482,5.777s0.221,0.027,0.084-0.09C5.432,5.571,5.105,5.495,5.303,5.428
	C5.303,5.428,5.113,5.235,5.081,5.103z"/>
<path id="_228930216" fill="#959E48" d="M5.534,5.271c0,0-0.251-0.317,0.069-0.44c0,0,0.025,0.149-0.076,0.241
	C5.467,5.125,5.534,5.271,5.534,5.271z"/>
<path id="_228930144" fill="#959E48" d="M5.939,5.586c0,0-0.156-0.143-0.15-0.354s0.207-0.247,0.207-0.247s-0.037,0.06-0.023,0.13
	C6,5.242,5.871,5.271,5.883,5.39c0.01,0.118,0.052,0.173,0.052,0.173S5.96,5.594,5.939,5.586z"/>
<path id="_228930024" fill="#959E48" d="M6.285,6.003c0,0-0.131-0.154-0.131-0.374c0-0.219,0.258-0.381,0.412-0.27
	c0,0-0.221-0.035-0.208,0.172c0,0,0.074-0.021,0.058,0.061s-0.189,0.085-0.17,0.266c0.008,0.065,0.041,0.119,0.041,0.119
	S6.297,6.011,6.285,6.003z"/>
<path id="_228930048" fill="#959E48" d="M6.546,6.437c0,0-0.115-0.104-0.115-0.318S6.637,5.67,6.922,5.816
	c0,0-0.24-0.02-0.268,0.174c0,0,0.124,0.027,0.011,0.123C6.552,6.207,6.488,6.203,6.546,6.437z"/>
</svg>
