<?xml version="1.0" encoding="utf-8"?>
<!-- Generator: Adobe Illustrator 15.0.0, SVG Export Plug-In . SVG Version: 6.00 Build 0)  -->
<!DOCTYPE svg PUBLIC "-//W3C//DTD SVG 1.1//EN" "http://www.w3.org/Graphics/SVG/1.1/DTD/svg11.dtd">
<svg version="1.1" id="Layer_1" xmlns="http://www.w3.org/2000/svg" xmlns:xlink="http://www.w3.org/1999/xlink" x="0px" y="0px"
	 width="14.527px" height="14.547px" viewBox="0 0 14.527 14.547" enable-background="new 0 0 14.527 14.547" xml:space="preserve">
<path id="_228931800" fill="#7E68AD" d="M3.334,4.28c0,0,0.435-0.092,0.649,0.282s0.655,0.19,0.784,0.282
	c0,0,0.055-0.711-1.041-0.748c0,0,0.777-0.502,1.249-0.49c0.472,0.013,0.54,0.27,1.373-0.208c0,0,0.195-0.067,0.3-0.024
	c0,0-0.337-0.649-1.789-0.012c0,0,0.745-0.452,1.128-1.33c0.226-0.521,0.857-0.527,0.857-0.527S7.31,1.512,7.329,1.952
	C7.341,2.234,7.09,2.204,7.09,2.204S6.974,2.215,6.968,2.099C6.961,1.983,7.072,1.958,7.121,1.964c0,0-0.257-0.11-0.257,0.122
	c0,0.233,0.246,0.228,0.246,0.228s0.331,0.048,0.331-0.38c0-0.43-0.447-0.552-0.558-0.552S6.232,1.45,6.091,1.719
	c0,0,0.386-1.709-0.809-1.709c-0.766,0-0.68,0.557-0.68,0.557S4.59,1.045,5.032,1.045c0.355,0,0.349-0.367,0.349-0.367
	s0.019-0.276-0.281-0.276c-0.227,0-0.141,0.228-0.141,0.228S4.97,0.525,5.092,0.525c0.123,0,0.147,0.11,0.147,0.177
	c0,0.068-0.03,0.197-0.227,0.197s-0.288-0.19-0.288-0.344s0.11-0.429,0.533-0.429s0.747,0.275,0.747,0.98
	c0,0.704-0.264,1.2-0.618,1.587c0,0,0.698-0.963,0.067-1.605c0,0-0.019,0.275-0.185,0.472C5.105,1.756,5.043,1.968,5.148,2.62
	c0.086,0.533-0.889,1.029-0.889,1.029s0.276-0.227,0.27-0.803c0,0-0.165-0.006-0.195,0.104c0,0,0.061-0.171-0.024-0.398
	C4.223,2.327,4.493,2.081,4.493,2.081S3.886,2.043,3.849,2.852c0,0-0.073-0.122-0.214-0.115c0,0-0.122,0.416,0.066,0.832
	c0.153,0.338-0.367,0.546-0.367,0.546S3.249,4.188,3.334,4.28z"/>
<path id="_228931728" fill="#7E68AD" d="M2.042,11.477c0.013,0.509-0.152,0.698-0.152,0.698L1.95,12.25
	c0.355-0.355,0.404-0.858,0.49-1.667S2.869,9.59,3.175,9.566s0.441,0.11,0.453,0.33c0.013,0.221-0.27,0.393-0.38,0.258
	c-0.159-0.195,0.11-0.318,0.11-0.318c-0.221-0.037-0.331,0.196-0.196,0.38s0.613,0.061,0.601-0.27
	c-0.018-0.481-0.441-0.662-0.98-0.393c-0.538,0.27-0.6,2.096-0.6,2.096c0.062-0.968-0.563-1.617-0.563-1.617
	s0.673,0.049,0.403-0.674c-0.27-0.724,0.368-0.772,0.368-0.772C1.289,8.353,1.264,9.553,1.264,9.553
	C0.1,8.23,0.251,7.184,0.251,7.184C0.186,6.5,0.728,6.174,1.045,6.144s1.122-0.169,0.986-1.012c0,0-0.16,0.317-0.681,0.349
	S0.52,5.998,0.52,5.998S0.958,4.91,2.702,4.334c0,0,0.112-0.115-0.038-0.145c0,0-0.785,0.25-1.066,0.461
	c0,0,0.605-0.428,0.646-0.979c0.039-0.552,0.011-0.586,0.173-0.699c0,0-0.645-0.034-0.812,0.588C1.495,3.965,1.71,4.227,1.119,4.987
	c0,0-1.007,0.744-1.021,2.075c0,0-0.146,1.266,1.056,2.626c0,0-0.956-0.38-1.164,0.772c0,0,0.257-0.441,0.661-0.185
	c0.404,0.258,0.625,0.319,0.809-0.159C1.459,10.117,2.023,10.706,2.042,11.477L2.042,11.477z"/>
<path id="_228931656" fill="#B56FAD" d="M2.826,2.821v2.26c-0.208,0-0.594,0.172-0.594,0.687S2.82,6.306,2.82,6.306l0.104,0.003
	c0.22,0,0.398-0.164,0.398-0.364c0-0.201-0.179-0.37-0.398-0.364C2.795,5.584,2.722,5.645,2.722,5.645
	c0.036-0.184,0.22-0.209,0.33-0.209s0.724,0.074,1.165,0.98c0.44,0.907,1.494,1.25,2.106,1.177C6.937,7.52,6.814,7.348,6.814,7.348
	C6.03,7.593,4.976,7.323,4.437,6.208c-0.539-1.115-1.2-1.128-1.2-1.128V2.735L2.826,2.821z"/>
<path id="_228931584" fill="#F38081" d="M3.089,7.348c0,0,0.049-0.245,0.429-0.355S4.063,7.158,4.1,7.262s0.043,0.472-0.367,0.57
	C3.475,7.893,3.169,7.783,3.169,7.783s0.539,0.393,0.943-0.117c0,0,0.221-0.006,0.221,0.294c0,0.301-0.301,0.46-0.447,0.496
	C3.739,8.494,3.108,8.597,2.96,7.679c0,0-0.631-0.797,0.043-1.268c0,0,0.711-0.344,0.84,0.379C3.843,6.79,3.01,6.686,3.089,7.348z"
	/>
<path id="_228931512" fill="#FCBD7A" d="M2.795,7.642c0,0,0.196,0.435-0.778,0.558C1.043,8.322,0.896,7.47,0.909,7.25
	C0.92,7.029,1.038,6.741,1.38,6.741s0.275,0.325,0.275,0.325S1.595,7.292,1.343,7.194c0,0,0.233,0.006,0.227-0.19
	C1.564,6.809,1.362,6.845,1.362,6.845S1.043,6.833,1.043,7.274c0,0.441,0.355,0.552,0.606,0.516
	C1.901,7.752,2.513,7.164,2.795,7.642z"/>
<path id="_228931440" fill="#4412B3" d="M0.798,11.649v0.018c0,0-0.073,0.123-0.073,0.239s0.116,0.239,0.287,0.239
	c0.172,0,0.368-0.141,0.368-0.38s-0.172-0.496-0.533-0.496s-0.619,0.306-0.619,0.698s0.344,0.723,0.803,0.723
	c0.423,0,0.576-0.196,0.576-0.196s0.098-0.049,0.08,0.08c0,0-0.27,0.239-0.668,0.227s-0.895-0.251-0.895-0.876
	s0.533-0.784,0.747-0.766c0.215,0.019,0.614,0.104,0.601,0.618C1.459,12.25,1.006,12.25,1.006,12.25S0.456,12.218,0.798,11.649z"/>
<path id="_228931368" fill="#7E68AD" d="M3.05,12.486c-0.509-0.013-0.698,0.152-0.698,0.152l-0.074-0.061
	c0.355-0.355,0.858-0.404,1.667-0.49s0.992-0.429,1.017-0.735s-0.11-0.441-0.331-0.453c-0.22-0.013-0.392,0.27-0.257,0.38
	c0.195,0.159,0.318-0.11,0.318-0.11c0.037,0.221-0.196,0.331-0.38,0.195c-0.184-0.134-0.062-0.612,0.27-0.6
	c0.481,0.018,0.662,0.44,0.393,0.979s-2.096,0.601-2.096,0.601c0.968-0.062,1.617,0.563,1.617,0.563s-0.049-0.674,0.674-0.404
	c0.724,0.27,0.772-0.367,0.772-0.367c0.232,1.103-0.968,1.127-0.968,1.127c1.323,1.164,2.369,1.013,2.369,1.013
	c0.682,0.065,1.008-0.477,1.04-0.794s0.17-1.122,1.012-0.986c0,0-0.316,0.16-0.348,0.681s-0.518,0.831-0.518,0.831
	s1.088-0.438,1.664-2.182c0,0,0.115-0.112,0.145,0.038c0,0-0.25,0.785-0.463,1.066c0,0,0.428-0.605,0.98-0.646
	c0.551-0.039,0.586-0.011,0.699-0.173c0,0,0.033,0.645-0.588,0.812c-0.404,0.109-0.668-0.107-1.426,0.485
	c0,0-0.744,1.007-2.076,1.021c0,0-1.267,0.146-2.626-1.056c0,0,0.38,0.956-0.772,1.164c0,0,0.441-0.257,0.184-0.661
	c-0.257-0.404-0.318-0.625,0.16-0.809C4.411,13.068,3.822,12.503,3.05,12.486z"/>
<path id="_228931296" fill="#7E68AD" d="M10.354,10.984c0,0,0.6-0.961,0.588-1.433c-0.013-0.472-0.27-0.54,0.208-1.373
	c0,0,0.067-0.195,0.024-0.3c0,0,0.65,0.337,0.012,1.789c0,0,0.452-0.745,1.33-1.128c0.521-0.227,0.527-0.857,0.527-0.857
	s-0.008-0.465-0.447-0.483c-0.282-0.013-0.252,0.238-0.252,0.238s-0.012,0.116,0.104,0.123c0.116,0.006,0.142-0.104,0.135-0.153
	c0,0,0.11,0.257-0.122,0.257c-0.233,0-0.227-0.245-0.227-0.245s-0.049-0.33,0.379-0.33c0.43,0,0.552,0.446,0.552,0.558
	c0,0.11-0.067,0.648-0.337,0.79c0,0,1.709-0.386,1.709,0.809c0,0.766-0.557,0.68-0.557,0.68s-0.479,0.013-0.479-0.429
	c0-0.355,0.367-0.349,0.367-0.349s0.276-0.019,0.276,0.281c0,0.227-0.228,0.141-0.228,0.141s0.105-0.012,0.105-0.135
	c0-0.122-0.111-0.146-0.178-0.146c-0.068,0-0.197,0.03-0.197,0.227s0.19,0.288,0.344,0.288s0.429-0.11,0.429-0.533
	s-0.275-0.747-0.979-0.747c-0.705,0-1.201,0.263-1.588,0.618c0,0,0.963-0.698,1.605-0.067c0,0-0.275,0.019-0.472,0.185
	c-0.196,0.165-0.408,0.227-1.06,0.122c-0.533-0.086-1.029,0.889-1.029,0.889s0.227-0.276,0.803-0.27c0,0,0.006,0.165-0.104,0.195
	c0,0,0.171-0.062,0.398,0.024c0.227,0.086,0.472-0.184,0.472-0.184s0.037,0.606-0.771,0.644c0,0,0.122,0.073,0.115,0.214
	c0,0-0.416,0.123-0.832-0.067c-0.338-0.152-0.545,0.368-0.545,0.368s-0.074,0.086-0.166,0c0,0,0.029-1.17-1.643-1.336
	c0,0-0.778-0.019-1.09,0.582c0,0-0.196,0.08-0.172-0.135c0,0,0.514-0.545,1.159-0.551c0,0-0.919-0.209-0.919-0.956
	c0-0.637,0.478-0.619,0.478-0.619s0.423-0.03,0.423,0.38c0,0.288-0.288,0.275-0.288,0.275S8,8.84,8,8.601
	C8,8.43,8.16,8.436,8.16,8.436S8.086,8.491,8.086,8.595S8.227,8.73,8.227,8.73s0.172-0.006,0.172-0.184S8.227,8.307,8.08,8.307
	S7.731,8.43,7.731,8.803c0,0.374,0.343,0.79,1.359,1.011c0,0,0.479,0.11,0.576,0.251c0,0-0.803-0.79,0.037-1.764
	c0,0,0.031,0.404,0.154,0.618c0.121,0.215,0.195,0.5,0.066,1.018C9.881,10.109,9.9,10.218,9.9,10.218S10.316,10.538,10.354,10.984z"
	/>
<path id="_228931224" fill="#B56FAD" d="M11.808,11.291H9.445c0,0-0.012-0.661-1.127-1.2C7.204,9.551,6.935,8.498,7.18,7.712
	c0,0-0.171-0.122-0.245,0.49C6.861,8.816,7.204,9.87,8.111,10.31c0.906,0.441,0.979,1.054,0.979,1.164s-0.023,0.295-0.207,0.331
	c0,0,0.061-0.073,0.063-0.202c0.008-0.22-0.162-0.398-0.363-0.398s-0.363,0.179-0.363,0.398l0.002,0.104
	c0,0,0.025,0.588,0.539,0.588c0.516,0,0.686-0.386,0.686-0.594h2.316C11.762,11.702,11.746,11.438,11.808,11.291z"/>
<path id="_228931152" fill="#F38081" d="M7.179,11.438c0,0,0.245-0.049,0.355-0.429s-0.165-0.546-0.27-0.582
	c-0.104-0.037-0.472-0.043-0.569,0.367c-0.062,0.258,0.049,0.563,0.049,0.563s-0.393-0.539,0.116-0.943c0,0,0.006-0.221-0.294-0.221
	c-0.301,0-0.46,0.301-0.496,0.447c-0.037,0.147-0.142,0.778,0.777,0.926c0,0,0.797,0.631,1.269-0.043c0,0,0.342-0.711-0.38-0.84
	C7.737,10.684,7.841,11.517,7.179,11.438z"/>
<path id="_228931080" fill="#FCBD7A" d="M6.885,11.732c0,0-0.435-0.196-0.558,0.778c-0.122,0.974,0.729,1.121,0.95,1.108
	c0.22-0.013,0.507-0.129,0.507-0.472s-0.324-0.275-0.324-0.275s-0.227,0.061-0.129,0.313c0,0-0.006-0.233,0.19-0.227
	c0.195,0.006,0.158,0.208,0.158,0.208s0.013,0.318-0.428,0.318c-0.441,0-0.552-0.355-0.516-0.606
	C6.775,12.626,7.364,12.013,6.885,11.732z"/>
<path id="_228931008" fill="#4412B3" d="M2.86,13.729c0,0-0.122,0.073-0.238,0.073s-0.239-0.116-0.239-0.288
	c0-0.171,0.141-0.367,0.38-0.367s0.496,0.172,0.496,0.533s-0.307,0.619-0.698,0.619c-0.393,0-0.723-0.344-0.723-0.803
	c0-0.423,0.196-0.576,0.196-0.576s0.049-0.098-0.08-0.08c0,0-0.239,0.27-0.227,0.668c0.012,0.398,0.251,0.895,0.876,0.895
	s0.784-0.533,0.766-0.747c-0.019-0.215-0.104-0.614-0.619-0.601c-0.472,0.013-0.472,0.466-0.472,0.466s0.031,0.551,0.601,0.208"/>
<path id="_228930936" fill="#A7377F" d="M4.248,10.276C4.064,10.099,3.8,10.166,3.5,10.423c-0.3,0.258-0.753,1.17-1.139,1.531
	S2.097,12.36,2.097,12.36l0.07,0.07c0,0,0.043,0.122,0.405-0.264c0.361-0.386,1.273-0.839,1.531-1.139
	c0.257-0.301,0.324-0.564,0.146-0.748L4.248,10.276z"/>
<path id="_228930864" fill="#625FA8" d="M6.776,7.733C6.715,7.782,6.653,7.927,6.56,8.405C6.468,8.883,6.236,9.208,5.513,9.471
	c-0.724,0.264-0.698,0.558-0.705,0.655c-0.006,0.099-0.055,0.404,0.301,0.411c0.355,0.006,0.49-0.313,0.558-0.423
	s0.202-0.833,0.852-0.833s0.397,0.551,0.397,0.551S6.971,9.6,6.634,9.6s-0.539,0.355-0.619,0.502
	c-0.079,0.147-0.381,0.771-0.888,0.674c-0.626-0.119-0.48-0.881-0.271-1.089C4.647,9.895,3.865,10.038,3.751,9.4
	C3.661,8.891,4.278,8.591,4.425,8.512c0.146-0.08,0.502-0.282,0.502-0.619c0-0.337-0.232-0.282-0.232-0.282S5.246,7.36,5.246,8.009
	S4.523,8.793,4.413,8.861S3.984,9.063,3.99,9.418c0.007,0.355,0.313,0.307,0.411,0.301c0.098-0.007,0.392,0.018,0.655-0.705
	s0.588-0.956,1.065-1.048C6.6,7.875,6.727,7.793,6.776,7.733z"/>
<path id="_228930792" fill="#F38081" d="M8.09,6.442c0.882-0.289,1.041,0.3,1.06,0.423C9.168,6.987,9.1,7.17,8.99,7.189
	c-0.11,0.019-0.104-0.11-0.104-0.11C8.738,6.594,8.311,6.614,8.311,6.614C8.414,6.631,8.85,6.968,8.867,7.428
	c0.019,0.459-0.238,0.668-0.496,0.655C8.113,8.072,7.936,7.82,8.145,7.318c0.209-0.503-0.116-0.662-0.116-0.662
	C8.12,6.735,8.162,7.348,7.752,7.649c-0.411,0.3-0.687-0.16-0.687-0.16L7.041,7.464c0,0-0.459-0.275-0.159-0.687
	c0.3-0.41,0.913-0.367,0.993-0.275c0,0-0.16-0.324-0.662-0.117C6.71,6.594,6.459,6.417,6.447,6.159
	C6.435,5.902,6.643,5.645,7.103,5.663C7.562,5.681,7.898,6.116,7.918,6.22c0,0,0.018-0.429-0.466-0.575c0,0-0.129,0.006-0.11-0.104
	s0.202-0.178,0.325-0.159C7.789,5.399,8.377,5.559,8.09,6.442L8.09,6.442z"/>
<path id="_228930720" fill="#ED3237" d="M2.311,12.692c0.056,0.044,0.064,0.124,0.021,0.179c-0.044,0.056-0.124,0.064-0.179,0.021
	l-0.52-0.519c-0.044-0.056-0.034-0.136,0.021-0.18c0.056-0.044,0.136-0.034,0.179,0.021L2.311,12.692z"/>
<polygon id="_228930648" fill="#A7377F" points="1.432,14.075 1.432,13.083 0.482,13.083 0.482,14.075 "/>
<path id="_228930576" fill="#959E48" d="M8.979,5.257c0,0,0.252-0.318-0.068-0.44c0,0-0.024,0.15,0.076,0.241
	C9.047,5.112,8.979,5.257,8.979,5.257z"/>
<path id="_228930504" fill="#959E48" d="M8.574,5.573c0,0,0.156-0.143,0.15-0.354S8.518,4.971,8.518,4.971s0.037,0.061,0.023,0.13
	c-0.027,0.128,0.102,0.156,0.09,0.275C8.621,5.496,8.58,5.549,8.58,5.549S8.553,5.581,8.574,5.573z"/>
<path id="_228930432" fill="#959E48" d="M8.229,5.991c0,0,0.132-0.155,0.132-0.375c0-0.219-0.259-0.381-0.413-0.27
	c0,0,0.221-0.035,0.209,0.172c0,0-0.075-0.021-0.059,0.061c0.018,0.082,0.19,0.085,0.17,0.266C8.26,5.911,8.227,5.963,8.227,5.963
	S8.217,5.998,8.229,5.991z"/>
<path id="_228930360" fill="#959E48" d="M7.967,6.423c0,0,0.116-0.104,0.116-0.318S7.877,5.657,7.592,5.804
	c0,0,0.24-0.021,0.268,0.173c0,0-0.125,0.027-0.011,0.123C7.963,6.194,8.025,6.191,7.967,6.423z"/>
<path id="_228930288" fill="#319E94" d="M9.435,5.091C9.402,5.223,9.211,5.415,9.211,5.415c0.197,0.066-0.129,0.143-0.264,0.26
	c-0.137,0.117,0.084,0.09,0.084,0.09S9.092,5.797,8.9,5.883S8.887,5.917,8.854,5.978s-0.146,0.128-0.28,0.146
	C8.439,6.139,8.387,6.229,8.458,6.214s0.068,0.03,0.068,0.03C8.426,6.26,8.074,6.508,8.01,6.573
	C7.945,6.638,7.924,6.606,7.924,6.606L7.918,6.6c0,0-0.032-0.021,0.033-0.086C8.016,6.45,8.264,6.098,8.28,5.998
	c0,0,0.044-0.002,0.03,0.069C8.295,6.137,8.385,6.084,8.4,5.951c0.018-0.134,0.084-0.247,0.146-0.28s0.009,0.145,0.095-0.047
	S8.76,5.493,8.76,5.493S8.732,5.713,8.85,5.577c0.117-0.135,0.193-0.461,0.26-0.264C9.109,5.313,9.303,5.124,9.435,5.091z"/>
<path id="_228930216" fill="#959E48" d="M9.267,5.544c0,0,0.317-0.251,0.44,0.069c0,0-0.149,0.025-0.241-0.076
	C9.412,5.477,9.267,5.544,9.267,5.544z"/>
<path id="_228930144" fill="#959E48" d="M8.951,5.95c0,0,0.143-0.156,0.354-0.15s0.247,0.207,0.247,0.207s-0.06-0.037-0.13-0.023
	C9.295,6.01,9.267,5.881,9.147,5.893c-0.118,0.01-0.173,0.052-0.173,0.052S8.943,5.97,8.951,5.95z"/>
<path id="_228930024" fill="#959E48" d="M8.534,6.295c0,0,0.154-0.131,0.374-0.131c0.219,0,0.381,0.258,0.27,0.412
	c0,0,0.035-0.221-0.172-0.208c0,0,0.021,0.074-0.061,0.058S8.86,6.237,8.68,6.256C8.614,6.264,8.561,6.297,8.561,6.297
	S8.526,6.307,8.534,6.295z"/>
<path id="_228930048" fill="#959E48" d="M8.101,6.556c0,0,0.104-0.115,0.318-0.115s0.448,0.206,0.302,0.491
	c0,0,0.02-0.24-0.174-0.268c0,0-0.027,0.124-0.123,0.011C8.33,6.562,8.334,6.499,8.101,6.556z"/>
</svg>
