<?xml version="1.0" encoding="utf-8"?>
<!-- Generator: Adobe Illustrator 15.0.0, SVG Export Plug-In . SVG Version: 6.00 Build 0)  -->
<!DOCTYPE svg PUBLIC "-//W3C//DTD SVG 1.1//EN" "http://www.w3.org/Graphics/SVG/1.1/DTD/svg11.dtd">
<svg version="1.1" id="Layer_1" xmlns="http://www.w3.org/2000/svg" xmlns:xlink="http://www.w3.org/1999/xlink" x="0px" y="0px"
	 width="9.172px" height="21.339px" viewBox="0 -6.084 9.172 21.339" enable-background="new 0 -6.084 9.172 21.339"
	 xml:space="preserve">
<g id="_228926928">
	<path id="_228926664" fill="#959E48" d="M5.167,3.63c0.26-0.224,0.574-0.368,0.674-0.725c0.092-0.329,0.335-0.486,0.635-0.625
		C6.51,2.264,6.464,2.2,6.432,2.198C5.868,2.156,5.306,2.471,5.048,2.987C4.898,3.284,4.839,3.75,5.088,4.016
		C5.088,4.016,5.015,3.761,5.167,3.63z"/>
	<path id="_229439240" fill="#959E48" d="M7.195,2.603C6.986,2.531,6.767,2.454,6.629,2.264C6.487,2.47,6.544,2.749,6.664,2.95
		c0.143,0.24,0.473,0.45,0.746,0.249c0.123-0.09,0.158-0.228,0.119-0.364C7.484,2.68,7.333,2.65,7.195,2.603z"/>
	<path id="_229439744" fill="#7E68AD" d="M8.191,2.091c0,0-0.534,0-0.527,0.568C7.671,3.123,8.099,3.08,8.099,3.08
		s0.275-0.031,0.275-0.328c0-0.216-0.232-0.241-0.232-0.241S7.946,2.499,7.946,2.746c0,0,0.043-0.124,0.184-0.124
		c0.142,0,0.135,0.154,0.135,0.154S8.246,2.962,8.075,2.962c-0.172,0-0.319-0.099-0.319-0.314c0-0.217,0.123-0.402,0.436-0.457
		C8.191,2.191,8.277,2.122,8.191,2.091z"/>
	<path id="_229438808" fill="#ED3237" d="M8.283,2.271c0,0.055,0.044,0.099,0.099,0.099c0.054,0,0.098-0.044,0.098-0.099V1.61
		c0-0.055-0.044-0.099-0.098-0.099c-0.055,0-0.099,0.044-0.099,0.099V2.271z"/>
	<path id="_229440320" fill="#319E94" d="M3.734,3.085C3.534,3.204,3.419,3.29,3.419,3.29c-0.381,0.222-0.84-0.019-0.84-0.297
		s0.152-0.315,0.238-0.315s0.184,0.037,0.184,0.18c0,0.142-0.141,0.099-0.141,0.099C2.775,2.993,2.855,3.068,2.855,3.068
		s0.275,0.037,0.281-0.21c0.008-0.31-0.313-0.31-0.313-0.31S2.445,2.536,2.445,2.969c0,0.587,0.748,0.525,0.748,0.525
		S2.732,3.914,2.732,4.52c0,0.606,0.516,0.84,0.803,0.84c0.289,0,0.62-0.223,0.62-0.563c0-0.34-0.239-0.481-0.454-0.481
		S3.376,4.494,3.376,4.687c0,0.191,0.172,0.327,0.313,0.29S3.718,4.86,3.718,4.86S3.511,4.871,3.511,4.674S3.743,4.47,3.743,4.47
		s0.258,0.007,0.258,0.278c0,0.426-0.43,0.464-0.43,0.464S2.898,5.243,2.898,4.47c0-0.528,0.424-0.956,0.893-1.268
		C3.79,3.202,3.777,3.06,3.734,3.085z"/>
	<path id="_229440344" fill="#319E94" d="M4.081,2.89c0.254-0.131,0.565-0.275,0.906-0.385c0,0,0.123,0.031,0.006,0.111
		c0,0-0.417,0.136-0.879,0.39C4.114,3.006,4.031,2.916,4.081,2.89z"/>
	<path id="_229439792" fill="#B56FAD" d="M5.936,4.983c-0.075,0.01-1.434,0.068-1.917-1.427C3.534,2.061,2.751,2.116,2.751,2.116
		s-0.074-0.056,0-0.075C2.823,2.024,3.622,1.994,4.27,3.469C4.766,4.6,5.685,4.575,5.685,4.575s0.932-0.007,0.655-0.761
		c0,0,0.037,0.329-0.324,0.322C5.716,4.13,5.728,3.784,5.728,3.784s0.056-0.471,0.521-0.464c0.386,0.007,0.619,0.291,0.619,0.705
		C6.868,4.026,6.846,4.874,5.936,4.983z"/>
	<path id="_229440968" fill="#F38081" d="M1.624,2.258c0,0,0.244,0.427,0.617,0.34c0,0,0.154-0.006,0.117,0.235
		C2.322,3.073,2.113,3.18,1.906,3.166C1.63,3.148,1.226,2.74,1.624,2.258z"/>
	<path id="_229440296" fill="#F38081" d="M1.409,2.067c0,0,0.273-0.018,0.123,0.179C1.427,2.381,1.368,2.431,1.378,2.808
		c0.006,0.217-0.232,0.093-0.232,0.093s-0.184-0.124-0.104-0.47C1.12,2.085,1.409,2.067,1.409,2.067z"/>
	<path id="_229441136" fill="#959E48" d="M6.445,2.078c0,0-0.7,0.069-1.005,0.1c-0.313,0.03-0.974,0.358-1.433,0.136
		C3.675,2.154,3.308,1.94,3.308,1.94s0.367-0.214,0.699-0.374C4.467,1.344,5.128,1.671,5.44,1.701c0.305,0.03,1.005,0.1,1.005,0.1
		S6.567,1.937,6.445,2.078z"/>
	<path id="_229438952" fill="#959E48" d="M5.167,0.249c0.26,0.224,0.574,0.368,0.674,0.725C5.932,1.304,6.176,1.461,6.475,1.6
		C6.51,1.615,6.464,1.679,6.432,1.682C5.868,1.725,5.306,1.409,5.048,0.893C4.898,0.596,4.839,0.13,5.088-0.136
		C5.088-0.136,5.015,0.118,5.167,0.249z"/>
	<path id="_229441304" fill="#959E48" d="M7.195,1.277C6.986,1.348,6.767,1.425,6.629,1.615C6.487,1.41,6.544,1.131,6.664,0.93
		C6.806,0.689,7.136,0.479,7.41,0.68c0.123,0.09,0.158,0.229,0.119,0.365C7.484,1.2,7.333,1.23,7.195,1.277z"/>
	<path id="_229428560" fill="#A7377F" d="M7.768,1.936c0-0.501-0.416-0.537-0.723-0.432S6.58,1.94,6.58,1.94
		s0.159,0.331,0.466,0.436c0.307,0.105,0.723,0.069,0.723-0.431V1.936z"/>
	<path id="_229441472" fill="#7E68AD" d="M8.191,1.788c0,0-0.534,0-0.527-0.568C7.671,0.757,8.099,0.8,8.099,0.8
		s0.275,0.03,0.275,0.327c0,0.217-0.232,0.241-0.232,0.241S7.946,1.381,7.946,1.133c0,0,0.043,0.124,0.184,0.124
		c0.142,0,0.135-0.154,0.135-0.154S8.246,0.917,8.075,0.917c-0.172,0-0.319,0.099-0.319,0.315c0,0.216,0.123,0.401,0.436,0.457
		C8.191,1.69,8.277,1.758,8.191,1.788z"/>
	<path id="_229441328" fill="#7E68AD" d="M8.565,1.665c0,0,0.466-0.167,0.466-0.859c0-0.691-0.533-0.698-0.853-0.698
		c-0.318,0-1.133-0.062-1.078-0.921c0,0,0.19,0.303,0.711,0.285C8.332-0.548,8.687-0.09,8.687-0.09S8.124-1.122,6.464-1.597
		c0,0-0.123-0.105,0.024-0.148c0,0,0.698,0.223,0.998,0.408c0,0-0.643-0.371-0.734-0.921S6.684-2.845,6.512-2.944
		c0,0,0.638-0.096,0.864,0.513c0.146,0.396-0.043,0.68,0.618,1.384c0,0,1.164,0.896,1.164,1.841c0,0.779-0.569,0.982-0.569,0.982
		S8.479,1.764,8.565,1.665z"/>
	<path id="_229441568" fill="#319E94" d="M3.734,0.795C3.534,0.675,3.419,0.59,3.419,0.59c-0.381-0.223-0.84,0.019-0.84,0.296
		c0,0.278,0.152,0.315,0.238,0.315s0.184-0.037,0.184-0.179c0-0.143-0.141-0.1-0.141-0.1c-0.086-0.037-0.006-0.11-0.006-0.11
		s0.275-0.037,0.281,0.21c0.008,0.309-0.313,0.309-0.313,0.309s-0.379,0.013-0.379-0.42c0-0.587,0.748-0.525,0.748-0.525
		s-0.461-0.42-0.461-1.025S3.247-1.48,3.534-1.48c0.289,0,0.62,0.223,0.62,0.563S3.915-0.436,3.7-0.436s-0.324-0.179-0.324-0.37
		s0.172-0.328,0.313-0.291s0.029,0.118,0.029,0.118S3.511-0.992,3.511-0.795c0,0.198,0.232,0.204,0.232,0.204
		s0.258-0.006,0.258-0.277c0-0.427-0.43-0.464-0.43-0.464S2.898-1.363,2.898-0.591c0,0.528,0.424,0.957,0.893,1.269
		C3.79,0.678,3.777,0.821,3.734,0.795z"/>
	<path id="_229440944" fill="#319E94" d="M4.081,0.99C4.336,1.12,4.646,1.265,4.987,1.374c0,0,0.123-0.03,0.006-0.111
		c0,0-0.417-0.135-0.879-0.389C4.114,0.874,4.031,0.964,4.081,0.99z"/>
	<path id="_229441832" fill="#B56FAD" d="M6.341-3.25v2.245c0.196,0.111,0.527,0.445,0.527,0.859S6.635,0.553,6.249,0.559
		C5.784,0.567,5.728,0.095,5.728,0.095S5.716-0.251,6.016-0.257c0.361-0.008,0.324,0.321,0.324,0.321
		c0.276-0.754-0.655-0.76-0.655-0.76S4.766-0.72,4.27,0.41C3.622,1.886,2.823,1.857,2.751,1.838c-0.074-0.019,0-0.074,0-0.074
		S3.534,1.82,4.019,0.324c0.484-1.495,1.844-1.446,1.917-1.428V-3.3C5.936-3.3,6.185-3.225,6.341-3.25z"/>
	<path id="_229441592" fill="#7E68AD" d="M5.839-1.777c0,0-0.435-0.093-0.649,0.284S4.534-1.301,4.405-1.208
		c0,0-0.055-0.718,1.041-0.755c0,0-0.777-0.506-1.249-0.493c-0.471,0.012-0.54,0.271-1.374-0.211c0,0-0.195-0.067-0.299-0.024
		c0,0,0.336-0.655,1.789-0.013c0,0-0.746-0.455-1.126-1.341C2.96-4.569,2.327-4.576,2.327-4.576S1.863-4.569,1.845-4.125
		C1.831-3.841,2.083-3.872,2.083-3.872S2.2-3.859,2.206-3.976S2.101-4.119,2.052-4.112c0,0,0.258-0.111,0.258,0.123
		c0,0.235-0.244,0.229-0.244,0.229s-0.332,0.05-0.332-0.383s0.447-0.556,0.559-0.556c0.109,0,0.648,0.067,0.789,0.34
		c0,0-0.385-1.725,0.809-1.725c0.766,0,0.68,0.563,0.68,0.563s0.013,0.482-0.429,0.482c-0.355,0-0.349-0.371-0.349-0.371
		S3.775-5.688,4.073-5.688c0.227,0,0.141,0.229,0.141,0.229S4.203-5.564,4.081-5.564c-0.123,0-0.148,0.111-0.148,0.179
		c0,0.068,0.031,0.198,0.227,0.198c0.196,0,0.288-0.191,0.288-0.347c0-0.154-0.11-0.433-0.533-0.433
		c-0.424,0-0.748,0.278-0.748,0.989s0.264,1.211,0.619,1.601c0,0-0.699-0.971-0.068-1.619c0,0,0.02,0.277,0.186,0.476
		C4.068-4.322,4.13-4.108,4.025-3.451C3.939-2.914,4.914-2.413,4.914-2.413s-0.276-0.229-0.27-0.81c0,0,0.165-0.006,0.196,0.104
		c0,0-0.062-0.173,0.023-0.401C4.95-3.748,4.68-3.995,4.68-3.995s0.606-0.037,0.644,0.778c0,0,0.073-0.123,0.214-0.117
		c0,0,0.123,0.42-0.066,0.84C5.318-2.153,5.839-1.943,5.839-1.943S5.925-1.87,5.839-1.777z"/>
	<path id="_229442000" fill="#F38081" d="M2.634,1.936c0,0,0.092-0.555-0.428-0.555c-0.521,0-0.619,0.555-0.619,0.555v0.009
		c0,0,0.098,0.555,0.619,0.555c0.52,0,0.428-0.555,0.428-0.555V1.936z"/>
	<path id="_229441280" fill="#F38081" d="M1.624,1.621c0,0,0.244-0.426,0.617-0.34c0,0,0.154,0.007,0.117-0.234
		S2.113,0.699,1.906,0.713C1.63,0.732,1.226,1.14,1.624,1.621z"/>
	<path id="_229442168" fill="#F38081" d="M1.409,1.814c0,0,0.273,0.018,0.123-0.18C1.427,1.498,1.368,1.448,1.378,1.072
		c0.006-0.216-0.232-0.093-0.232-0.093s-0.184,0.124-0.104,0.47C1.12,1.795,1.409,1.814,1.409,1.814z"/>
	<path id="_229441448" fill="#F38081" d="M1.107,1.936c0,0,0.014-0.277-0.295-0.277S-0.001,1.94-0.001,1.94s0.504,0.281,0.813,0.281
		s0.295-0.276,0.295-0.276V1.936z"/>
</g>
<path id="_228926760" fill="#7E68AD" d="M8.565,2.215c0,0,0.466,0.166,0.466,0.858S8.498,3.772,8.178,3.772
	c-0.318,0-1.133,0.063-1.078,0.921c0,0,0.19-0.303,0.711-0.284S8.687,3.97,8.687,3.97S8.124,5.001,6.464,5.478
	c0,0-0.123,0.104,0.024,0.147c0,0,0.698-0.222,0.998-0.407c0,0-0.643,0.37-0.734,0.92C6.66,6.689,6.684,6.726,6.512,6.825
	c0,0,0.638,0.096,0.864-0.513c0.146-0.396-0.043-0.68,0.618-1.385c0,0,1.164-0.896,1.164-1.841c0-0.778-0.569-0.982-0.569-0.982
	S8.479,2.116,8.565,2.215z"/>
<path id="_387415200" fill="#B56FAD" d="M6.341,5.018V7.22c1.158-0.043,1.514,1.347,1.643,1.884
	c0.128,0.538,0.422,0.761,0.674,0.761c0.251,0,0.288-0.136,0.288-0.26c0-0.123-0.043-0.186-0.166-0.186
	c-0.122,0-0.135,0.167-0.135,0.167c-0.135-0.383,0.184-0.37,0.184-0.37s0.344,0.006,0.344,0.357c0,0.525-0.509,0.477-0.509,0.477
	s-0.717,0.019-0.956-0.958C7.433,7.973,6.812,7.603,6.347,7.603c-0.466,0-0.656,0.253-0.656,0.47c0,0.216,0.068,0.21,0.068,0.21
	S5.698,7.937,6.041,7.937s0.324,0.358,0.324,0.358s0.013,0.407-0.459,0.407S5.305,8.382,5.305,8.049
	c0-0.334,0.282-0.711,0.631-0.779V5.141C5.936,5.141,6.209,5.067,6.341,5.018z"/>
<path id="_228926856" fill="#7E68AD" d="M5.839,5.657c0,0-0.435,0.093-0.649-0.284C4.974,4.995,4.534,5.181,4.405,5.089
	c0,0-0.055,0.717,1.041,0.754c0,0-0.777,0.507-1.249,0.494c-0.471-0.013-0.54-0.271-1.374,0.21c0,0-0.195,0.068-0.299,0.024
	c0,0,0.336,0.655,1.789,0.013c0,0-0.746,0.456-1.126,1.341C2.96,8.45,2.327,8.456,2.327,8.456s-0.465-0.007-0.482-0.45
	C1.831,7.72,2.083,7.752,2.083,7.752S2.2,7.739,2.206,7.856c0.006,0.118-0.105,0.143-0.154,0.137c0,0,0.258,0.111,0.258-0.124
	c0-0.234-0.244-0.229-0.244-0.229s-0.332-0.05-0.332,0.383S2.181,8.58,2.292,8.58c0.109,0,0.648-0.068,0.789-0.34
	c0,0-0.385,1.724,0.809,1.724c0.766,0,0.68-0.563,0.68-0.563S4.583,8.92,4.141,8.92c-0.355,0-0.349,0.37-0.349,0.37
	S3.775,9.568,4.073,9.568c0.227,0,0.141-0.229,0.141-0.229S4.203,9.444,4.081,9.444c-0.123,0-0.148-0.11-0.148-0.179
	S3.964,9.068,4.16,9.068c0.196,0,0.288,0.191,0.288,0.346s-0.11,0.433-0.533,0.433c-0.424,0-0.748-0.278-0.748-0.989
	c0-0.71,0.264-1.211,0.619-1.6c0,0-0.699,0.97-0.068,1.619c0,0,0.02-0.278,0.186-0.477C4.068,8.203,4.13,7.988,4.025,7.332
	C3.939,6.794,4.914,6.294,4.914,6.294s-0.276,0.229-0.27,0.81c0,0,0.165,0.006,0.196-0.105c0,0-0.062,0.173,0.023,0.401
	C4.95,7.628,4.68,7.876,4.68,7.876s0.606,0.036,0.644-0.779c0,0,0.073,0.124,0.214,0.117c0,0,0.123-0.42-0.066-0.84
	c-0.153-0.34,0.367-0.55,0.367-0.55S5.925,5.75,5.839,5.657z"/>
<path id="_218649272" fill="#319E94" d="M8.497,8.176C8.534,8.159,8.576,8.149,8.62,8.149c0.163,0,0.295,0.129,0.295,0.288
	S8.783,8.725,8.62,8.725c-0.135,0-0.248-0.088-0.283-0.209c0,0-0.097,0.088-0.097,0.459s0.251,0.593,0.251,0.593
	s0.031,0.117-0.098,0.056S8.105,9.29,8.105,8.894S8.38,7.985,8.743,7.628c0.251-0.247,0.227-0.691,0.227-0.691
	S8.938,6.292,8.313,6.3C7.793,6.305,7.774,6.775,7.774,6.775S7.762,7.183,8.111,7.183c0.252,0,0.221-0.217,0.221-0.217
	s0-0.16-0.146-0.16c-0.147,0-0.166,0.167-0.166,0.167s-0.104-0.31,0.172-0.31s0.282,0.303,0.282,0.303S8.51,7.319,8.105,7.319
	S7.628,6.955,7.628,6.763c0-0.192,0.202-0.711,0.827-0.605c0,0-0.325-0.217-0.325-0.643c0-0.427,0.43-0.44,0.43-0.44
	S8.841,5.07,8.841,5.379c0,0.31-0.288,0.241-0.318,0.143c0,0,0.221,0.093,0.221-0.154s-0.228-0.18-0.228-0.18
	S8.234,5.224,8.234,5.558S8.681,6.182,8.767,6.25c0.086,0.068,0.337,0.272,0.337,0.798c0,0.426-0.325,0.735-0.398,0.828
	S8.497,8.176,8.497,8.176z"/>
<path id="_218649224" fill="#959E48" d="M8.178,10.166c0,0-0.489,0.475-0.876,0.456c-0.386-0.019-0.814-0.271-1.562-0.271
	c0,0-0.031-0.087-0.031-0.198s0.031-0.17,0.031-0.17c0.747,0,1.176-0.253,1.562-0.271C7.689,9.692,8.178,10.166,8.178,10.166z"/>
<path id="_179398128" fill="#959E48" d="M5.453,9.704c0,0,1.844,0.173,1.636-1.434c0,0-0.104,0.34-0.393,0.384
	C6.409,8.697,6.088,8.926,5.887,9.389C5.784,9.63,5.422,9.642,5.422,9.642S5.324,9.679,5.453,9.704z"/>
<path id="_208371920" fill="#959E48" d="M4.632,9.785c0,0,0.251-0.192,0.251-0.568c0-0.198-0.163-0.211-0.202-0.668
	C4.662,8.333,4.534,8.215,4.534,8.215s0.778-0.08,0.778,0.705C5.312,9.704,4.632,9.785,4.632,9.785z"/>
<path id="_179398104" fill="#F38081" d="M1.263,9.852c0,0,0.023-0.47,0.502-0.574c0.477-0.105,0.08-0.507-0.195-0.464
	c-0.277,0.043-0.65,0.358-0.375,1.063C1.195,9.877,1.263,9.945,1.263,9.852z"/>
<path id="_208371896" fill="#319E94" d="M8.497,12.156c0.037,0.018,0.079,0.027,0.123,0.027c0.163,0,0.295-0.13,0.295-0.289
	s-0.132-0.288-0.295-0.288c-0.135,0-0.248,0.089-0.283,0.21c0,0-0.097-0.088-0.097-0.459s0.251-0.594,0.251-0.594
	s0.031-0.117-0.098-0.056c-0.129,0.063-0.288,0.334-0.288,0.729s0.274,0.91,0.638,1.267c0.251,0.247,0.227,0.692,0.227,0.692
	s-0.031,0.644-0.656,0.636c-0.521-0.006-0.539-0.476-0.539-0.476s-0.012-0.407,0.337-0.407c0.252,0,0.221,0.216,0.221,0.216
	s0,0.161-0.146,0.161c-0.147,0-0.166-0.167-0.166-0.167s-0.104,0.309,0.172,0.309s0.282-0.303,0.282-0.303s0.036-0.352-0.368-0.352
	s-0.478,0.364-0.478,0.556s0.202,0.711,0.827,0.605c0,0-0.325,0.217-0.325,0.643c0,0.427,0.43,0.438,0.43,0.438
	s0.281,0.007,0.281-0.303c0-0.309-0.288-0.24-0.318-0.142c0,0,0.221-0.093,0.221,0.154s-0.228,0.179-0.228,0.179
	s-0.281-0.037-0.281-0.37c0-0.334,0.447-0.624,0.533-0.692c0.086-0.067,0.337-0.271,0.337-0.797c0-0.427-0.325-0.735-0.398-0.828
	S8.497,12.156,8.497,12.156z"/>
<path id="_35455544" fill="#959E48" d="M5.453,10.628c0,0,1.844-0.173,1.636,1.434c0,0-0.104-0.34-0.393-0.383
	c-0.287-0.043-0.608-0.271-0.809-0.735c-0.104-0.241-0.466-0.253-0.466-0.253S5.324,10.653,5.453,10.628z"/>
<path id="_229475376" fill="#959E48" d="M4.632,10.548c0,0,0.251,0.191,0.251,0.568c0,0.197-0.163,0.21-0.202,0.667
	C4.662,12,4.534,12.117,4.534,12.117s0.778,0.08,0.778-0.704C5.312,10.628,4.632,10.548,4.632,10.548z"/>
<path id="_35455640" fill="#A7377F" d="M2.427,10.169c0,0-0.088,0.286,0.385,0.286c0.602,0,0.809-0.311,1.195-0.286v-0.005
	C3.62,10.188,3.392,9.877,2.812,9.877c-0.473,0-0.385,0.287-0.385,0.287V10.169z"/>
<path id="_225750856" fill="#A7377F" d="M4.405,10.166c0,0,0.552,0.369,0.864,0.369s0.392-0.181,0.386-0.366v-0.005
	c0.006-0.186-0.073-0.367-0.386-0.367S4.405,10.166,4.405,10.166z"/>
<path id="_231519304" fill="#F38081" d="M1.318,10.169c0,0-0.025,0.793,0.637,0.793c0.43,0,0.338-0.513,0.338-0.513
	s-0.051-0.15-0.051-0.28v-0.005c0-0.13,0.051-0.28,0.051-0.28s0.092-0.513-0.338-0.513c-0.662,0-0.637,0.793-0.637,0.793V10.169z"/>
<path id="_231519208" fill="#F38081" d="M1.263,10.479c0,0,0.023,0.47,0.502,0.575c0.477,0.104,0.08,0.507-0.195,0.464
	c-0.277-0.044-0.65-0.359-0.375-1.063C1.195,10.455,1.263,10.387,1.263,10.479z"/>
<path fill="#0077BD" d="M0.12,10.266v-0.205l0.1-0.021c0.135-0.025,0.191-0.07,0.266-0.128c0.078-0.06,0.166-0.129,0.334-0.164
	c0.143-0.03,0.236,0.015,0.291,0.059c0.145,0.116,0.148,0.332,0.148,0.356c0,0.029-0.004,0.245-0.148,0.361
	c-0.055,0.043-0.148,0.089-0.291,0.058c-0.17-0.036-0.262-0.104-0.342-0.162c-0.072-0.053-0.135-0.099-0.264-0.131L0.12,10.266z
	 M1.009,10.169c-0.002-0.053-0.02-0.138-0.057-0.167c-0.006-0.005-0.025-0.021-0.08-0.009c-0.113,0.024-0.166,0.065-0.234,0.118
	c-0.023,0.02-0.051,0.04-0.08,0.06c0.023,0.017,0.047,0.033,0.068,0.049c0.07,0.053,0.127,0.094,0.246,0.119
	c0.057,0.012,0.074-0.004,0.082-0.009C0.995,10.297,1.009,10.2,1.009,10.169z"/>
<path id="_35455616" fill="#B56FAD" d="M5.305,12.284c-0.02-0.333,0.129-0.655,0.601-0.655s0.459,0.408,0.459,0.408
	s0.019,0.358-0.324,0.358S5.76,12.05,5.76,12.05s-0.068-0.007-0.068,0.21c0,0.216,0.19,0.47,0.656,0.47
	c0.465,0,1.086-0.37,1.359-1.489c0.239-0.977,0.956-0.958,0.956-0.958s0.509-0.05,0.509,0.476c0,0.353-0.344,0.358-0.344,0.358
	s-0.318,0.013-0.184-0.37c0,0,0.013,0.166,0.135,0.166c0.123,0,0.166-0.062,0.166-0.186c0-0.123-0.037-0.259-0.288-0.259
	c-0.252,0-0.546,0.223-0.674,0.76c-0.129,0.537-0.479,1.928-1.636,1.885C6.347,13.112,5.351,13.05,5.305,12.284z"/>
</svg>
