<?xml version="1.0" encoding="utf-8"?>
<!-- Generator: Adobe Illustrator 15.0.0, SVG Export Plug-In . SVG Version: 6.00 Build 0)  -->
<!DOCTYPE svg PUBLIC "-//W3C//DTD SVG 1.1//EN" "http://www.w3.org/Graphics/SVG/1.1/DTD/svg11.dtd">
<svg version="1.1" id="Layer_1" xmlns="http://www.w3.org/2000/svg" xmlns:xlink="http://www.w3.org/1999/xlink" x="0px" y="0px"
	 width="9.172px" height="21.339px" viewBox="0 -6.084 9.172 21.339" enable-background="new 0 -6.084 9.172 21.339"
	 xml:space="preserve">
<g id="_228926928">
	<path id="_228926664" fill="#959E48" d="M4.084,4.016c0.249-0.266,0.189-0.731,0.04-1.029c-0.259-0.516-0.82-0.831-1.385-0.788
		C2.708,2.2,2.661,2.264,2.696,2.281c0.3,0.139,0.543,0.296,0.635,0.625c0.1,0.356,0.414,0.501,0.674,0.725
		C4.156,3.761,4.084,4.016,4.084,4.016z"/>
	<path id="_229439240" fill="#959E48" d="M1.642,2.835C1.603,2.972,1.638,3.11,1.761,3.199C2.035,3.401,2.365,3.191,2.508,2.95
		c0.12-0.201,0.177-0.48,0.035-0.687c-0.139,0.19-0.357,0.268-0.566,0.339C1.839,2.65,1.687,2.68,1.642,2.835z"/>
	<path id="_229439744" fill="#7E68AD" d="M0.98,2.191c0.313,0.055,0.436,0.24,0.436,0.457c0,0.216-0.147,0.314-0.319,0.314
		c-0.171,0-0.189-0.186-0.189-0.186S0.9,2.622,1.042,2.622c0.141,0,0.184,0.124,0.184,0.124c0-0.247-0.196-0.235-0.196-0.235
		S0.797,2.536,0.797,2.752c0,0.297,0.275,0.328,0.275,0.328s0.429,0.043,0.436-0.421C1.514,2.091,0.98,2.091,0.98,2.091
		C0.894,2.122,0.98,2.191,0.98,2.191z"/>
	<path id="_229438808" fill="#ED3237" d="M0.888,1.61c0-0.055-0.044-0.099-0.099-0.099c-0.054,0-0.098,0.044-0.098,0.099v0.661
		c0,0.055,0.044,0.099,0.098,0.099c0.055,0,0.099-0.044,0.099-0.099V1.61z"/>
	<path id="_229440320" fill="#319E94" d="M5.381,3.202C5.85,3.514,6.274,3.942,6.274,4.47c0,0.773-0.674,0.743-0.674,0.743
		S5.17,5.175,5.17,4.748c0-0.271,0.258-0.278,0.258-0.278S5.66,4.477,5.66,4.674S5.453,4.86,5.453,4.86S5.342,4.94,5.483,4.977
		s0.313-0.099,0.313-0.29c0-0.192-0.109-0.371-0.324-0.371S5.017,4.457,5.017,4.797c0,0.34,0.331,0.563,0.62,0.563
		c0.287,0,0.803-0.234,0.803-0.84c0-0.605-0.461-1.025-0.461-1.025s0.748,0.062,0.748-0.525c0-0.433-0.379-0.421-0.379-0.421
		s-0.32,0-0.313,0.31c0.006,0.247,0.281,0.21,0.281,0.21s0.08-0.074-0.006-0.111c0,0-0.141,0.043-0.141-0.099
		c0-0.143,0.098-0.18,0.184-0.18s0.238,0.037,0.238,0.315S6.133,3.512,5.752,3.29c0,0-0.115-0.086-0.314-0.205
		C5.395,3.06,5.381,3.202,5.381,3.202z"/>
	<path id="_229440344" fill="#319E94" d="M5.057,3.006c-0.462-0.254-0.879-0.39-0.879-0.39c-0.117-0.08,0.006-0.111,0.006-0.111
		C4.525,2.615,4.836,2.759,5.09,2.89C5.141,2.916,5.057,3.006,5.057,3.006z"/>
	<path id="_229439792" fill="#B56FAD" d="M2.303,4.026c0-0.414,0.233-0.698,0.619-0.705c0.465-0.007,0.521,0.464,0.521,0.464
		S3.456,4.13,3.155,4.137C2.794,4.144,2.831,3.815,2.831,3.815C2.554,4.569,3.486,4.575,3.486,4.575S4.405,4.6,4.901,3.469
		C5.549,1.994,6.348,2.024,6.42,2.041c0.074,0.02,0,0.075,0,0.075S5.637,2.061,5.153,3.556C4.669,5.051,3.31,4.992,3.235,4.983
		C2.325,4.874,2.303,4.026,2.303,4.026z"/>
	<path id="_229440968" fill="#F38081" d="M7.266,3.166C7.059,3.18,6.85,3.073,6.813,2.833C6.776,2.592,6.93,2.598,6.93,2.598
		c0.373,0.087,0.617-0.34,0.617-0.34C7.946,2.74,7.541,3.148,7.266,3.166z"/>
	<path id="_229440296" fill="#F38081" d="M8.129,2.431c0.08,0.346-0.104,0.47-0.104,0.47S7.787,3.025,7.793,2.808
		c0.01-0.377-0.049-0.427-0.154-0.563c-0.15-0.196,0.123-0.179,0.123-0.179S8.051,2.085,8.129,2.431z"/>
	<path id="_229441136" fill="#959E48" d="M2.726,1.801c0,0,0.7-0.069,1.005-0.1c0.313-0.03,0.974-0.357,1.433-0.136
		C5.496,1.726,5.864,1.94,5.864,1.94S5.496,2.154,5.164,2.314C4.705,2.536,4.044,2.208,3.731,2.178c-0.305-0.03-1.005-0.1-1.005-0.1
		C2.604,1.937,2.726,1.801,2.726,1.801z"/>
	<path id="_229438952" fill="#959E48" d="M4.084-0.136c0.249,0.267,0.189,0.732,0.04,1.029c-0.259,0.517-0.82,0.832-1.385,0.789
		C2.708,1.679,2.661,1.615,2.696,1.6c0.3-0.139,0.543-0.296,0.635-0.626c0.1-0.356,0.414-0.501,0.674-0.725
		C4.156,0.118,4.084-0.136,4.084-0.136z"/>
	<path id="_229441304" fill="#959E48" d="M1.642,1.045C1.603,0.908,1.638,0.77,1.761,0.68c0.273-0.201,0.604,0.009,0.746,0.25
		c0.12,0.201,0.177,0.48,0.035,0.686c-0.139-0.19-0.357-0.268-0.566-0.339C1.839,1.23,1.687,1.2,1.642,1.045z"/>
	<path id="_229428560" fill="#A7377F" d="M1.403,1.945c0,0.5,0.416,0.536,0.723,0.431C2.432,2.271,2.592,1.94,2.592,1.94
		S2.432,1.61,2.126,1.504S1.403,1.435,1.403,1.936V1.945z"/>
	<path id="_229441472" fill="#7E68AD" d="M0.98,1.69c0.313-0.056,0.436-0.241,0.436-0.457c0-0.217-0.147-0.315-0.319-0.315
		c-0.171,0-0.189,0.186-0.189,0.186S0.9,1.257,1.042,1.257c0.141,0,0.184-0.124,0.184-0.124c0,0.248-0.196,0.235-0.196,0.235
		S0.797,1.344,0.797,1.127C0.797,0.83,1.072,0.8,1.072,0.8s0.429-0.043,0.436,0.42C1.514,1.788,0.98,1.788,0.98,1.788
		C0.894,1.758,0.98,1.69,0.98,1.69z"/>
	<path id="_229441328" fill="#7E68AD" d="M0.582,1.776c0,0-0.569-0.203-0.569-0.982c0-0.945,1.164-1.841,1.164-1.841
		c0.661-0.704,0.472-0.988,0.618-1.384C2.021-3.04,2.659-2.944,2.659-2.944C2.487-2.845,2.511-2.808,2.42-2.259
		S1.685-1.338,1.685-1.338c0.3-0.186,0.998-0.408,0.998-0.408c0.147,0.043,0.024,0.148,0.024,0.148
		C1.048-1.122,0.484-0.09,0.484-0.09S0.84-0.548,1.36-0.528C1.881-0.51,2.071-0.813,2.071-0.813c0.055,0.859-0.76,0.921-1.078,0.921
		c-0.319,0-0.853,0.007-0.853,0.698c0,0.692,0.466,0.859,0.466,0.859C0.692,1.764,0.582,1.776,0.582,1.776z"/>
	<path id="_229441568" fill="#319E94" d="M5.381,0.678c0.469-0.312,0.893-0.74,0.893-1.269c0-0.772-0.674-0.741-0.674-0.741
		S5.17-1.295,5.17-0.868c0,0.271,0.258,0.277,0.258,0.277S5.66-0.596,5.66-0.795c0-0.197-0.207-0.185-0.207-0.185
		S5.342-1.06,5.483-1.097s0.313,0.1,0.313,0.291s-0.109,0.37-0.324,0.37S5.017-0.578,5.017-0.918S5.348-1.48,5.637-1.48
		c0.287,0,0.803,0.235,0.803,0.841S5.979,0.386,5.979,0.386s0.748-0.062,0.748,0.525c0,0.433-0.379,0.42-0.379,0.42
		s-0.32,0-0.313-0.309c0.006-0.247,0.281-0.21,0.281-0.21s0.08,0.073-0.006,0.11c0,0-0.141-0.043-0.141,0.1
		c0,0.142,0.098,0.179,0.184,0.179s0.238-0.037,0.238-0.315c0-0.277-0.459-0.519-0.84-0.296c0,0-0.115,0.085-0.314,0.205
		C5.395,0.821,5.381,0.678,5.381,0.678z"/>
	<path id="_229440944" fill="#319E94" d="M5.057,0.874C4.595,1.128,4.178,1.263,4.178,1.263C4.061,1.344,4.184,1.374,4.184,1.374
		C4.525,1.265,4.836,1.12,5.09,0.99C5.141,0.964,5.057,0.874,5.057,0.874z"/>
	<path id="_229441832" fill="#B56FAD" d="M3.235-3.3v2.196c0.073-0.019,1.434-0.067,1.917,1.428C5.637,1.82,6.42,1.764,6.42,1.764
		s0.074,0.056,0,0.074C6.348,1.857,5.549,1.886,4.901,0.41C4.405-0.72,3.486-0.695,3.486-0.695s-0.932,0.006-0.655,0.76
		c0,0-0.037-0.329,0.324-0.321c0.301,0.006,0.288,0.352,0.288,0.352S3.387,0.567,2.923,0.559c-0.386-0.006-0.619-0.29-0.619-0.704
		s0.331-0.748,0.527-0.859V-3.25C2.986-3.225,3.235-3.3,3.235-3.3z"/>
	<path id="_229441592" fill="#7E68AD" d="M3.333-1.943c0,0,0.521-0.21,0.367-0.551c-0.189-0.42-0.066-0.84-0.066-0.84
		C3.774-3.34,3.847-3.217,3.847-3.217c0.037-0.815,0.644-0.778,0.644-0.778s-0.27,0.247-0.184,0.476
		c0.085,0.229,0.023,0.401,0.023,0.401c0.031-0.11,0.196-0.104,0.196-0.104c0.007,0.581-0.27,0.81-0.27,0.81
		s0.975-0.501,0.889-1.038C5.042-4.108,5.104-4.322,5.268-4.52c0.166-0.198,0.186-0.476,0.186-0.476
		c0.631,0.648-0.068,1.619-0.068,1.619c0.355-0.39,0.619-0.89,0.619-1.601S5.68-5.967,5.256-5.967c-0.422,0-0.533,0.278-0.533,0.433
		c0,0.155,0.092,0.347,0.288,0.347c0.196,0,0.227-0.13,0.227-0.198c0-0.067-0.025-0.179-0.148-0.179
		c-0.122,0-0.133,0.104-0.133,0.104S4.871-5.688,5.098-5.688c0.299,0,0.281,0.278,0.281,0.278S5.385-5.039,5.03-5.039
		c-0.441,0-0.429-0.482-0.429-0.482s-0.086-0.563,0.68-0.563c1.193,0,0.809,1.725,0.809,1.725c0.141-0.272,0.68-0.34,0.789-0.34
		c0.111,0,0.559,0.123,0.559,0.556S7.106-3.76,7.106-3.76S6.862-3.754,6.862-3.989c0-0.234,0.258-0.123,0.258-0.123
		c-0.049-0.007-0.16,0.019-0.154,0.136s0.123,0.104,0.123,0.104S7.34-3.841,7.326-4.125C7.309-4.569,6.844-4.576,6.844-4.576
		S6.211-4.569,5.985-4.045C5.604-3.159,4.858-2.704,4.858-2.704c1.453-0.643,1.789,0.013,1.789,0.013
		C6.543-2.734,6.348-2.667,6.348-2.667C5.514-2.184,5.446-2.444,4.974-2.456C4.503-2.469,3.725-1.963,3.725-1.963
		c1.096,0.037,1.041,0.755,1.041,0.755C4.637-1.301,4.197-1.116,3.982-1.493S3.333-1.777,3.333-1.777
		C3.247-1.87,3.333-1.943,3.333-1.943z"/>
	<path id="_229442000" fill="#F38081" d="M6.537,1.945c0,0-0.092,0.555,0.428,0.555c0.521,0,0.619-0.555,0.619-0.555V1.936
		c0,0-0.098-0.555-0.619-0.555c-0.52,0-0.428,0.555-0.428,0.555V1.945z"/>
	<path id="_229441280" fill="#F38081" d="M7.266,0.713C7.059,0.699,6.85,0.806,6.813,1.047S6.93,1.281,6.93,1.281
		c0.373-0.086,0.617,0.34,0.617,0.34C7.946,1.14,7.541,0.732,7.266,0.713z"/>
	<path id="_229442168" fill="#F38081" d="M8.129,1.448c0.08-0.346-0.104-0.47-0.104-0.47S7.787,0.856,7.793,1.072
		c0.01,0.377-0.049,0.427-0.154,0.563c-0.15,0.197,0.123,0.18,0.123,0.18S8.051,1.795,8.129,1.448z"/>
	<path id="_229441448" fill="#F38081" d="M8.065,1.945c0,0-0.014,0.276,0.295,0.276S9.172,1.94,9.172,1.94S8.668,1.658,8.36,1.658
		S8.065,1.936,8.065,1.936V1.945z"/>
</g>
<path id="_228926760" fill="#7E68AD" d="M0.582,2.104c0,0-0.569,0.204-0.569,0.982c0,0.945,1.164,1.841,1.164,1.841
	c0.661,0.706,0.472,0.99,0.618,1.385c0.227,0.608,0.864,0.513,0.864,0.513C2.487,6.726,2.511,6.689,2.42,6.138
	c-0.092-0.55-0.734-0.92-0.734-0.92c0.3,0.186,0.998,0.407,0.998,0.407c0.147-0.043,0.024-0.147,0.024-0.147
	C1.048,5.001,0.484,3.97,0.484,3.97S0.84,4.427,1.36,4.408s0.711,0.284,0.711,0.284c0.055-0.858-0.76-0.921-1.078-0.921
	c-0.319,0-0.853-0.006-0.853-0.698s0.466-0.858,0.466-0.858C0.692,2.116,0.582,2.104,0.582,2.104z"/>
<path id="_387415200" fill="#B56FAD" d="M3.235,5.141v2.128c0.349,0.068,0.631,0.445,0.631,0.779c0,0.333-0.129,0.654-0.601,0.654
	S2.806,8.296,2.806,8.296S2.788,7.937,3.131,7.937s0.281,0.346,0.281,0.346S3.48,8.289,3.48,8.073c0-0.217-0.19-0.47-0.656-0.47
	c-0.465,0-1.086,0.37-1.359,1.489c-0.239,0.977-0.956,0.958-0.956,0.958S0,10.099,0,9.574c0-0.352,0.344-0.357,0.344-0.357
	s0.318-0.013,0.184,0.37c0,0-0.013-0.167-0.135-0.167c-0.123,0-0.166,0.063-0.166,0.186c0,0.124,0.037,0.26,0.288,0.26
	c0.252,0,0.546-0.223,0.674-0.761C1.317,8.567,1.673,7.177,2.831,7.22V5.018C2.963,5.067,3.235,5.141,3.235,5.141z"/>
<path id="_228926856" fill="#7E68AD" d="M3.333,5.824c0,0,0.521,0.21,0.367,0.55c-0.189,0.42-0.066,0.84-0.066,0.84
	C3.774,7.22,3.847,7.096,3.847,7.096c0.037,0.815,0.644,0.779,0.644,0.779s-0.27-0.248-0.184-0.477
	c0.085-0.229,0.023-0.401,0.023-0.401c0.031,0.111,0.196,0.105,0.196,0.105c0.007-0.581-0.27-0.81-0.27-0.81s0.975,0.5,0.889,1.038
	C5.042,7.988,5.104,8.203,5.268,8.4c0.166,0.198,0.186,0.477,0.186,0.477c0.631-0.649-0.068-1.619-0.068-1.619
	c0.355,0.389,0.619,0.89,0.619,1.6c0,0.711-0.324,0.989-0.748,0.989c-0.422,0-0.533-0.278-0.533-0.433s0.092-0.346,0.288-0.346
	c0.196,0,0.227,0.129,0.227,0.197S5.213,9.444,5.09,9.444c-0.122,0-0.133-0.104-0.133-0.104S4.871,9.568,5.098,9.568
	c0.299,0,0.281-0.278,0.281-0.278S5.385,8.92,5.03,8.92c-0.441,0-0.429,0.481-0.429,0.481s-0.086,0.563,0.68,0.563
	c1.193,0,0.809-1.724,0.809-1.724c0.141,0.271,0.68,0.34,0.789,0.34c0.111,0,0.559-0.124,0.559-0.557S7.106,7.64,7.106,7.64
	S6.862,7.635,6.862,7.869c0,0.235,0.258,0.124,0.258,0.124c-0.049,0.006-0.16-0.019-0.154-0.137
	c0.006-0.117,0.123-0.104,0.123-0.104S7.34,7.72,7.326,8.006c-0.018,0.443-0.482,0.45-0.482,0.45S6.211,8.45,5.985,7.925
	C5.604,7.04,4.858,6.584,4.858,6.584c1.453,0.643,1.789-0.013,1.789-0.013C6.543,6.615,6.348,6.547,6.348,6.547
	c-0.834-0.481-0.902-0.223-1.374-0.21C4.503,6.349,3.725,5.843,3.725,5.843c1.096-0.037,1.041-0.754,1.041-0.754
	C4.637,5.181,4.197,4.995,3.982,5.373C3.767,5.75,3.333,5.657,3.333,5.657C3.247,5.75,3.333,5.824,3.333,5.824z"/>
<path id="_218649272" fill="#319E94" d="M0.466,7.876C0.392,7.783,0.067,7.473,0.067,7.048c0-0.525,0.251-0.729,0.337-0.798
	C0.49,6.182,0.937,5.892,0.937,5.558S0.656,5.187,0.656,5.187S0.428,5.12,0.428,5.367s0.221,0.154,0.221,0.154
	C0.619,5.62,0.331,5.688,0.331,5.379c0-0.309,0.281-0.303,0.281-0.303s0.43,0.013,0.43,0.44c0,0.426-0.325,0.643-0.325,0.643
	c0.625-0.105,0.827,0.413,0.827,0.605c0,0.191-0.073,0.556-0.478,0.556S0.698,6.967,0.698,6.967S0.705,6.664,0.98,6.664
	s0.172,0.31,0.172,0.31S1.134,6.806,0.986,6.806c-0.146,0-0.146,0.16-0.146,0.16S0.808,7.183,1.06,7.183
	c0.349,0,0.337-0.408,0.337-0.408S1.379,6.305,0.858,6.3C0.233,6.292,0.202,6.936,0.202,6.936S0.177,7.381,0.428,7.628
	c0.363,0.357,0.638,0.871,0.638,1.267S0.907,9.562,0.778,9.624S0.68,9.568,0.68,9.568s0.251-0.222,0.251-0.593
	S0.835,8.516,0.835,8.516C0.8,8.637,0.686,8.725,0.552,8.725c-0.163,0-0.295-0.129-0.295-0.288s0.132-0.288,0.295-0.288
	c0.044,0,0.086,0.01,0.123,0.026C0.675,8.176,0.539,7.969,0.466,7.876z"/>
<path id="_218649224" fill="#959E48" d="M1.869,9.711C2.255,9.729,2.683,9.982,3.43,9.982c0,0,0.031,0.059,0.031,0.17
	S3.43,10.35,3.43,10.35c-0.747,0-1.176,0.253-1.562,0.271c-0.387,0.019-0.876-0.456-0.876-0.456S1.482,9.692,1.869,9.711z"/>
<path id="_179398128" fill="#959E48" d="M3.75,9.642c0,0-0.362-0.013-0.466-0.253c-0.2-0.464-0.521-0.692-0.809-0.735
	C2.187,8.61,2.083,8.27,2.083,8.27C1.875,9.877,3.719,9.704,3.719,9.704C3.847,9.679,3.75,9.642,3.75,9.642z"/>
<path id="_208371920" fill="#959E48" d="M3.859,8.92c0-0.785,0.778-0.705,0.778-0.705S4.51,8.333,4.491,8.549
	c-0.039,0.457-0.202,0.47-0.202,0.668c0,0.376,0.251,0.568,0.251,0.568S3.859,9.704,3.859,8.92z"/>
<path id="_179398104" fill="#F38081" d="M7.977,9.877c0.275-0.704-0.098-1.02-0.375-1.063C7.326,8.771,6.93,9.173,7.406,9.278
	c0.479,0.104,0.502,0.574,0.502,0.574C7.908,9.945,7.977,9.877,7.977,9.877z"/>
<path id="_208371896" fill="#319E94" d="M0.466,12.457c-0.073,0.093-0.398,0.401-0.398,0.828c0,0.525,0.251,0.729,0.337,0.797
	c0.086,0.068,0.533,0.358,0.533,0.692c0,0.333-0.281,0.37-0.281,0.37s-0.228,0.068-0.228-0.179s0.221-0.154,0.221-0.154
	c-0.03-0.099-0.318-0.167-0.318,0.142c0,0.31,0.281,0.303,0.281,0.303s0.43-0.012,0.43-0.438c0-0.426-0.325-0.643-0.325-0.643
	c0.625,0.105,0.827-0.414,0.827-0.605s-0.073-0.556-0.478-0.556s-0.368,0.352-0.368,0.352s0.007,0.303,0.282,0.303
	s0.172-0.309,0.172-0.309s-0.019,0.167-0.166,0.167c-0.146,0-0.146-0.161-0.146-0.161s-0.031-0.216,0.221-0.216
	c0.349,0,0.337,0.407,0.337,0.407s-0.019,0.47-0.539,0.476c-0.625,0.008-0.656-0.636-0.656-0.636s-0.024-0.445,0.227-0.692
	c0.363-0.356,0.638-0.871,0.638-1.267s-0.159-0.667-0.288-0.729c-0.129-0.062-0.098,0.056-0.098,0.056s0.251,0.223,0.251,0.594
	s-0.097,0.459-0.097,0.459c-0.035-0.121-0.148-0.21-0.283-0.21c-0.163,0-0.295,0.129-0.295,0.288s0.132,0.289,0.295,0.289
	c0.044,0,0.086-0.01,0.123-0.027C0.675,12.156,0.539,12.364,0.466,12.457z"/>
<path id="_35455544" fill="#959E48" d="M3.75,10.69c0,0-0.362,0.012-0.466,0.253c-0.2,0.464-0.521,0.692-0.809,0.735
	c-0.288,0.043-0.393,0.383-0.393,0.383c-0.208-1.606,1.636-1.434,1.636-1.434C3.847,10.653,3.75,10.69,3.75,10.69z"/>
<path id="_229475376" fill="#959E48" d="M3.859,11.413c0,0.784,0.778,0.704,0.778,0.704S4.51,12,4.491,11.783
	c-0.039-0.457-0.202-0.47-0.202-0.667c0-0.377,0.251-0.568,0.251-0.568S3.859,10.628,3.859,11.413z"/>
<path id="_35455640" fill="#A7377F" d="M6.744,10.164c0,0,0.088-0.287-0.385-0.287c-0.58,0-0.809,0.312-1.195,0.287v0.005
	c0.387-0.024,0.594,0.286,1.195,0.286c0.473,0,0.385-0.286,0.385-0.286V10.164z"/>
<path id="_225750856" fill="#A7377F" d="M3.902,9.797c-0.313,0-0.392,0.182-0.386,0.367v0.005c-0.006,0.186,0.073,0.366,0.386,0.366
	s0.864-0.369,0.864-0.369S4.215,9.797,3.902,9.797z"/>
<path id="_231519304" fill="#F38081" d="M7.854,10.164c0,0,0.025-0.793-0.637-0.793c-0.43,0-0.338,0.513-0.338,0.513
	s0.051,0.15,0.051,0.28v0.005c0,0.13-0.051,0.28-0.051,0.28s-0.092,0.513,0.338,0.513c0.662,0,0.637-0.793,0.637-0.793V10.164z"/>
<path id="_231519208" fill="#F38081" d="M7.977,10.455c0.275,0.704-0.098,1.02-0.375,1.063c-0.275,0.043-0.672-0.359-0.195-0.464
	c0.479-0.105,0.502-0.575,0.502-0.575C7.908,10.387,7.977,10.455,7.977,10.455z"/>
<path fill="#0077BD" d="M8.957,10.29c-0.129,0.032-0.191,0.078-0.264,0.131c-0.08,0.059-0.172,0.126-0.342,0.162
	c-0.143,0.031-0.236-0.015-0.291-0.058c-0.145-0.116-0.148-0.332-0.148-0.361c0-0.024,0.004-0.24,0.148-0.356
	c0.055-0.044,0.148-0.089,0.291-0.059C8.52,9.784,8.608,9.853,8.686,9.913c0.074,0.058,0.131,0.103,0.266,0.128l0.1,0.021v0.205
	L8.957,10.29z M8.217,10.33c0.008,0.005,0.025,0.021,0.082,0.009c0.119-0.025,0.176-0.066,0.246-0.119
	c0.021-0.016,0.045-0.032,0.068-0.049c-0.029-0.02-0.057-0.04-0.08-0.06c-0.068-0.053-0.121-0.094-0.234-0.118
	c-0.055-0.012-0.074,0.004-0.08,0.009c-0.037,0.029-0.055,0.114-0.057,0.167C8.162,10.2,8.176,10.297,8.217,10.33z"/>
<path id="_35455616" fill="#B56FAD" d="M2.824,13.112c-1.157,0.043-1.507-1.348-1.636-1.885c-0.128-0.537-0.422-0.76-0.674-0.76
	c-0.251,0-0.288,0.136-0.288,0.259c0,0.124,0.043,0.186,0.166,0.186c0.122,0,0.135-0.166,0.135-0.166
	c0.135,0.383-0.184,0.37-0.184,0.37S0,11.11,0,10.758c0-0.525,0.509-0.476,0.509-0.476s0.717-0.019,0.956,0.958
	c0.273,1.119,0.895,1.489,1.359,1.489c0.466,0,0.656-0.254,0.656-0.47c0-0.217-0.068-0.21-0.068-0.21s0.062,0.346-0.281,0.346
	s-0.324-0.358-0.324-0.358s-0.013-0.408,0.459-0.408s0.62,0.322,0.601,0.655C3.82,13.05,2.824,13.112,2.824,13.112z"/>
</svg>
