<?xml version="1.0" encoding="utf-8"?>
<!-- Generator: Adobe Illustrator 15.0.0, SVG Export Plug-In . SVG Version: 6.00 Build 0)  -->
<!DOCTYPE svg PUBLIC "-//W3C//DTD SVG 1.1//EN" "http://www.w3.org/Graphics/SVG/1.1/DTD/svg11.dtd">
<svg version="1.1" id="Layer_1" xmlns="http://www.w3.org/2000/svg" xmlns:xlink="http://www.w3.org/1999/xlink" x="0px" y="0px"
	 width="21.34px" height="9.172px" viewBox="0 0 21.34 9.172" enable-background="new 0 0 21.34 9.172" xml:space="preserve">
<g id="_228926928">
	<path id="_228926664" fill="#959E48" d="M9.714,4.005C9.49,3.745,9.345,3.43,8.989,3.331C8.66,3.239,8.503,2.996,8.364,2.696
		c-0.017-0.035-0.08,0.012-0.082,0.043C8.239,3.303,8.554,3.865,9.07,4.124c0.298,0.149,0.764,0.209,1.029-0.04
		C10.099,4.084,9.844,4.156,9.714,4.005z"/>
	<path id="_229439240" fill="#959E48" d="M8.686,1.976C8.615,2.185,8.538,2.404,8.347,2.543c0.206,0.142,0.485,0.085,0.687-0.035
		c0.24-0.143,0.45-0.473,0.249-0.746c-0.09-0.123-0.228-0.158-0.364-0.119C8.763,1.687,8.733,1.839,8.686,1.976z"/>
	<path id="_229439744" fill="#7E68AD" d="M8.175,0.98c0,0,0,0.534,0.568,0.527c0.464-0.007,0.421-0.436,0.421-0.436
		S9.133,0.797,8.836,0.797c-0.216,0-0.241,0.232-0.241,0.232S8.583,1.225,8.83,1.225c0,0-0.124-0.043-0.124-0.184
		c0-0.142,0.154-0.135,0.154-0.135s0.186,0.019,0.186,0.189c0,0.172-0.099,0.319-0.314,0.319c-0.217,0-0.402-0.123-0.457-0.436
		C8.274,0.98,8.206,0.894,8.175,0.98z"/>
	<path id="_229438808" fill="#ED3237" d="M8.354,0.888c0.055,0,0.099-0.044,0.099-0.099c0-0.054-0.044-0.098-0.099-0.098H7.693
		c-0.055,0-0.099,0.044-0.099,0.098c0,0.055,0.044,0.099,0.099,0.099H8.354z"/>
	<path id="_229440320" fill="#319E94" d="M9.169,5.437c0.119,0.199,0.205,0.315,0.205,0.315c0.222,0.38-0.019,0.839-0.297,0.839
		S8.761,6.439,8.761,6.353S8.799,6.17,8.941,6.17C9.083,6.17,9.04,6.31,9.04,6.31c0.037,0.086,0.111,0.006,0.111,0.006
		s0.037-0.275-0.21-0.281c-0.31-0.008-0.31,0.313-0.31,0.313s-0.012,0.38,0.421,0.38c0.587,0,0.525-0.748,0.525-0.748
		s0.42,0.46,1.025,0.46s0.84-0.515,0.84-0.803s-0.223-0.619-0.563-0.619s-0.481,0.239-0.481,0.453c0,0.215,0.179,0.325,0.371,0.325
		c0.191,0,0.327-0.172,0.29-0.313s-0.117-0.03-0.117-0.03s0.012,0.208-0.186,0.208s-0.204-0.232-0.204-0.232
		s0.007-0.258,0.278-0.258c0.426,0,0.464,0.429,0.464,0.429s0.03,0.674-0.742,0.674c-0.528,0-0.956-0.424-1.268-0.892
		C9.286,5.382,9.143,5.394,9.169,5.437z"/>
	<path id="_229440344" fill="#319E94" d="M8.973,5.091C8.843,4.836,8.698,4.525,8.589,4.184c0,0,0.031-0.123,0.111-0.006
		c0,0,0.136,0.417,0.39,0.879C9.09,5.057,9,5.141,8.973,5.091z"/>
	<path id="_229439792" fill="#B56FAD" d="M11.066,3.235c0.01,0.075,0.068,1.434-1.427,1.917C8.144,5.636,8.2,6.421,8.2,6.421
		s-0.056,0.073-0.075,0c-0.018-0.073-0.047-0.872,1.428-1.52c1.131-0.496,1.106-1.415,1.106-1.415s-0.007-0.932-0.761-0.655
		c0,0,0.329-0.037,0.322,0.324c-0.007,0.301-0.353,0.288-0.353,0.288S9.397,3.387,9.404,2.923c0.007-0.386,0.291-0.619,0.705-0.619
		C10.109,2.303,10.958,2.325,11.066,3.235z"/>
	<path id="_229440968" fill="#F38081" d="M8.342,7.548c0,0,0.427-0.245,0.34-0.618c0,0-0.006-0.153,0.235-0.117
		c0.24,0.037,0.347,0.246,0.333,0.454C9.231,7.542,8.824,7.946,8.342,7.548z"/>
	<path id="_229440296" fill="#F38081" d="M8.15,7.762c0,0-0.018-0.273,0.179-0.123c0.136,0.104,0.186,0.164,0.563,0.153
		c0.217-0.006,0.093,0.233,0.093,0.233S8.86,8.21,8.514,8.13C8.169,8.051,8.15,7.762,8.15,7.762z"/>
	<path id="_229441136" fill="#959E48" d="M8.162,2.726c0,0,0.069,0.7,0.1,1.005c0.03,0.313,0.358,0.974,0.136,1.434
		c-0.16,0.331-0.374,0.698-0.374,0.698S7.809,5.496,7.649,5.165c-0.222-0.46,0.105-1.121,0.136-1.434
		c0.03-0.305,0.1-1.005,0.1-1.005S8.02,2.604,8.162,2.726z"/>
	<path id="_229438952" fill="#959E48" d="M6.333,4.005c0.224-0.26,0.368-0.574,0.725-0.674c0.33-0.092,0.487-0.335,0.626-0.635
		c0.016-0.035,0.079,0.012,0.082,0.043c0.043,0.564-0.272,1.126-0.789,1.385c-0.297,0.149-0.763,0.209-1.029-0.04
		C5.947,4.084,6.202,4.156,6.333,4.005z"/>
	<path id="_229441304" fill="#959E48" d="M7.36,1.976c0.071,0.209,0.148,0.428,0.339,0.566C7.494,2.684,7.215,2.628,7.013,2.508
		c-0.241-0.143-0.451-0.473-0.25-0.746c0.09-0.123,0.229-0.158,0.365-0.119C7.284,1.687,7.313,1.839,7.36,1.976z"/>
	<path id="_229428560" fill="#A7377F" d="M8.019,1.403c-0.501,0-0.537,0.416-0.432,0.723s0.436,0.466,0.436,0.466
		s0.331-0.159,0.436-0.466c0.105-0.307,0.069-0.723-0.431-0.723H8.019z"/>
	<path id="_229441472" fill="#7E68AD" d="M7.872,0.98c0,0,0,0.534-0.568,0.527c-0.463-0.007-0.42-0.436-0.42-0.436
		s0.03-0.275,0.327-0.275c0.217,0,0.241,0.232,0.241,0.232s0.013,0.196-0.235,0.196c0,0,0.124-0.043,0.124-0.184
		c0-0.142-0.154-0.135-0.154-0.135S7.001,0.926,7.001,1.096c0,0.172,0.099,0.319,0.315,0.319c0.216,0,0.401-0.123,0.457-0.436
		C7.773,0.98,7.842,0.894,7.872,0.98z"/>
	<path id="_229441328" fill="#7E68AD" d="M7.749,0.606c0,0-0.167-0.466-0.859-0.466c-0.691,0-0.698,0.533-0.698,0.853
		c0,0.318-0.062,1.133-0.921,1.078c0,0,0.303-0.19,0.285-0.711C5.536,0.84,5.994,0.484,5.994,0.484S4.962,1.048,4.486,2.708
		c0,0-0.105,0.123-0.148-0.024c0,0,0.223-0.698,0.408-0.998c0,0-0.371,0.643-0.921,0.734S3.238,2.487,3.139,2.659
		c0,0-0.096-0.638,0.513-0.864c0.396-0.146,0.68,0.043,1.384-0.618c0,0,0.896-1.164,1.841-1.164c0.779,0,0.982,0.569,0.982,0.569
		S7.847,0.692,7.749,0.606z"/>
	<path id="_229441568" fill="#319E94" d="M6.879,5.437c-0.12,0.199-0.205,0.315-0.205,0.315c-0.223,0.38,0.019,0.839,0.296,0.839
		c0.278,0,0.315-0.152,0.315-0.238S7.248,6.17,7.106,6.17c-0.143,0-0.1,0.141-0.1,0.141c-0.037,0.086-0.11,0.006-0.11,0.006
		s-0.037-0.275,0.21-0.281c0.309-0.008,0.309,0.313,0.309,0.313s0.013,0.38-0.42,0.38c-0.587,0-0.525-0.748-0.525-0.748
		s-0.42,0.46-1.025,0.46S4.603,5.925,4.603,5.636s0.223-0.619,0.563-0.619S5.647,5.257,5.647,5.47c0,0.215-0.179,0.325-0.37,0.325
		S4.949,5.624,4.986,5.483s0.118-0.03,0.118-0.03S5.092,5.661,5.289,5.661c0.198,0,0.204-0.232,0.204-0.232S5.487,5.171,5.216,5.171
		c-0.427,0-0.464,0.429-0.464,0.429S4.72,6.273,5.493,6.273c0.528,0,0.957-0.424,1.269-0.892C6.761,5.382,6.904,5.394,6.879,5.437z"
		/>
	<path id="_229440944" fill="#319E94" d="M7.073,5.091c0.131-0.255,0.275-0.565,0.385-0.906c0,0-0.03-0.123-0.111-0.006
		c0,0-0.135,0.417-0.389,0.879C6.958,5.057,7.048,5.141,7.073,5.091z"/>
	<path id="_229441832" fill="#B56FAD" d="M2.834,2.831h2.245C5.19,2.635,5.524,2.303,5.938,2.303s0.698,0.233,0.704,0.619
		C6.65,3.387,6.178,3.443,6.178,3.443S5.833,3.456,5.827,3.155C5.819,2.794,6.148,2.831,6.148,2.831
		c-0.754-0.276-0.76,0.655-0.76,0.655S5.363,4.405,6.494,4.901c1.476,0.647,1.446,1.446,1.428,1.52s-0.074,0-0.074,0
		s0.056-0.784-1.439-1.269C4.913,4.669,4.962,3.308,4.98,3.235H2.784C2.784,3.235,2.858,2.986,2.834,2.831z"/>
	<path id="_229441592" fill="#7E68AD" d="M4.306,3.333c0,0-0.093,0.435,0.284,0.649s0.192,0.655,0.285,0.784
		c0,0-0.718,0.055-0.755-1.041c0,0-0.506,0.777-0.493,1.249c0.012,0.472,0.271,0.539-0.211,1.373c0,0-0.067,0.195-0.024,0.3
		c0,0-0.655-0.337-0.013-1.789c0,0-0.455,0.745-1.341,1.127C1.514,6.212,1.508,6.844,1.508,6.844s0.007,0.465,0.451,0.483
		C2.243,7.34,2.212,7.089,2.212,7.089s0.013-0.117-0.104-0.123S1.965,7.07,1.971,7.119c0,0-0.111-0.258,0.123-0.258
		c0.235,0,0.229,0.245,0.229,0.245s0.05,0.331-0.383,0.331S1.385,6.99,1.385,6.88s0.067-0.649,0.34-0.79C1.724,6.09,0,6.475,0,5.281
		c0-0.766,0.563-0.68,0.563-0.68S1.045,4.589,1.045,5.03c0,0.355-0.371,0.349-0.371,0.349S0.395,5.397,0.395,5.097
		c0-0.227,0.229-0.141,0.229-0.141S0.519,4.969,0.519,5.091c0,0.123,0.111,0.147,0.179,0.147c0.068,0,0.198-0.03,0.198-0.227
		S0.705,4.723,0.55,4.723c-0.154,0-0.433,0.11-0.433,0.533s0.278,0.747,0.989,0.747S2.317,5.74,2.707,5.385
		c0,0-0.971,0.698-1.619,0.067c0,0,0.277-0.019,0.476-0.185c0.198-0.165,0.412-0.227,1.069-0.122
		C3.17,5.232,3.671,4.258,3.671,4.258s-0.229,0.276-0.81,0.27c0,0-0.006-0.165,0.104-0.196c0,0-0.173,0.062-0.401-0.023
		C2.336,4.221,2.089,4.491,2.089,4.491S2.052,3.885,2.867,3.847c0,0-0.123-0.073-0.117-0.214c0,0,0.42-0.123,0.84,0.066
		C3.93,3.853,4.14,3.333,4.14,3.333S4.214,3.247,4.306,3.333z"/>
	<path id="_229442000" fill="#F38081" d="M8.019,6.537c0,0-0.555-0.092-0.555,0.429s0.555,0.619,0.555,0.619h0.009
		c0,0,0.555-0.099,0.555-0.619S8.028,6.537,8.028,6.537H8.019z"/>
	<path id="_229441280" fill="#F38081" d="M7.705,7.548c0,0-0.426-0.245-0.34-0.618c0,0,0.007-0.153-0.234-0.117
		C6.889,6.849,6.783,7.058,6.797,7.266C6.815,7.542,7.223,7.946,7.705,7.548z"/>
	<path id="_229442168" fill="#F38081" d="M7.897,7.762c0,0,0.018-0.273-0.18-0.123C7.582,7.744,7.532,7.803,7.155,7.793
		C6.939,7.787,7.062,8.026,7.062,8.026S7.186,8.21,7.532,8.13C7.879,8.051,7.897,7.762,7.897,7.762z"/>
	<path id="_229441448" fill="#F38081" d="M8.019,8.065c0,0-0.277-0.015-0.277,0.294c0,0.31,0.281,0.813,0.281,0.813
		s0.281-0.503,0.281-0.813c0-0.309-0.276-0.294-0.276-0.294H8.019z"/>
</g>
<path id="_228926760" fill="#7E68AD" d="M8.299,0.606c0,0,0.166-0.466,0.858-0.466s0.698,0.533,0.698,0.853
	c0,0.318,0.063,1.133,0.921,1.078c0,0-0.303-0.19-0.284-0.711s-0.438-0.876-0.438-0.876s1.031,0.563,1.508,2.224
	c0,0,0.104,0.123,0.147-0.024c0,0-0.222-0.698-0.407-0.998c0,0,0.37,0.643,0.92,0.734c0.551,0.092,0.588,0.067,0.687,0.239
	c0,0,0.096-0.638-0.513-0.864C12,1.648,11.716,1.838,11.01,1.177c0,0-0.896-1.164-1.841-1.164c-0.778,0-0.982,0.569-0.982,0.569
	S8.2,0.692,8.299,0.606z"/>
<path id="_387415200" fill="#B56FAD" d="M11.101,2.831h2.202c-0.043-1.158,1.347-1.514,1.884-1.643
	c0.538-0.128,0.761-0.422,0.761-0.674c0-0.251-0.136-0.288-0.26-0.288c-0.123,0-0.186,0.043-0.186,0.166
	c0,0.122,0.167,0.135,0.167,0.135c-0.383,0.135-0.37-0.184-0.37-0.184S15.305,0,15.657,0c0.525,0,0.477,0.509,0.477,0.509
	s0.019,0.717-0.958,0.956c-1.119,0.273-1.489,0.895-1.489,1.359c0,0.466,0.253,0.656,0.47,0.656c0.216,0,0.21-0.068,0.21-0.068
	S14.02,3.473,14.02,3.131s0.358-0.324,0.358-0.324s0.407-0.013,0.407,0.459s-0.321,0.601-0.654,0.601
	c-0.334,0-0.711-0.282-0.779-0.631h-2.128C11.224,3.235,11.15,2.963,11.101,2.831z"/>
<path id="_228926856" fill="#7E68AD" d="M11.74,3.333c0,0,0.093,0.435-0.284,0.649s-0.191,0.655-0.284,0.784
	c0,0,0.717,0.055,0.754-1.041c0,0,0.507,0.777,0.494,1.249s-0.271,0.539,0.21,1.373c0,0,0.068,0.195,0.024,0.3
	c0,0,0.655-0.337,0.013-1.789c0,0,0.456,0.745,1.341,1.127c0.525,0.227,0.531,0.858,0.531,0.858s-0.007,0.465-0.45,0.483
	c-0.285,0.013-0.254-0.238-0.254-0.238s-0.013-0.117,0.104-0.123c0.118-0.006,0.143,0.104,0.137,0.153c0,0,0.111-0.258-0.124-0.258
	c-0.234,0-0.229,0.245-0.229,0.245s-0.05,0.331,0.383,0.331s0.557-0.447,0.557-0.558s-0.068-0.649-0.34-0.79
	c0,0,1.724,0.386,1.724-0.809c0-0.766-0.563-0.68-0.563-0.68s-0.481-0.013-0.481,0.429c0,0.355,0.37,0.349,0.37,0.349
	s0.278,0.019,0.278-0.281c0-0.227-0.229-0.141-0.229-0.141s0.104,0.012,0.104,0.134c0,0.123-0.11,0.147-0.179,0.147
	s-0.197-0.03-0.197-0.227s0.191-0.288,0.346-0.288s0.433,0.11,0.433,0.533s-0.278,0.747-0.989,0.747c-0.71,0-1.211-0.264-1.6-0.618
	c0,0,0.97,0.698,1.619,0.067c0,0-0.278-0.019-0.477-0.185c-0.197-0.165-0.412-0.227-1.068-0.122
	c-0.538,0.086-1.038-0.889-1.038-0.889s0.229,0.276,0.81,0.27c0,0,0.006-0.165-0.105-0.196c0,0,0.173,0.062,0.401-0.023
	c0.229-0.086,0.477,0.184,0.477,0.184s0.036-0.606-0.779-0.644c0,0,0.124-0.073,0.117-0.214c0,0-0.42-0.123-0.84,0.066
	c-0.34,0.153-0.55-0.367-0.55-0.367S11.833,3.247,11.74,3.333z"/>
<path id="_218649272" fill="#319E94" d="M14.259,0.675c-0.017-0.037-0.026-0.079-0.026-0.123c0-0.163,0.129-0.295,0.288-0.295
	s0.288,0.132,0.288,0.295c0,0.135-0.088,0.248-0.209,0.283c0,0,0.088,0.097,0.459,0.097s0.593-0.251,0.593-0.251
	s0.117-0.031,0.056,0.098s-0.334,0.288-0.729,0.288s-0.909-0.274-1.267-0.638c-0.247-0.251-0.691-0.227-0.691-0.227
	s-0.645,0.031-0.637,0.656c0.006,0.521,0.476,0.539,0.476,0.539s0.408,0.012,0.408-0.337c0-0.252-0.217-0.221-0.217-0.221
	s-0.16,0-0.16,0.146c0,0.147,0.167,0.166,0.167,0.166s-0.31,0.104-0.31-0.172s0.303-0.282,0.303-0.282s0.353-0.036,0.353,0.368
	s-0.364,0.478-0.556,0.478c-0.192,0-0.711-0.202-0.605-0.827c0,0-0.217,0.325-0.643,0.325c-0.427,0-0.439-0.43-0.439-0.43
	s-0.006-0.281,0.303-0.281c0.31,0,0.241,0.288,0.143,0.318c0,0,0.093-0.221-0.154-0.221s-0.18,0.228-0.18,0.228
	s0.037,0.281,0.371,0.281s0.624-0.447,0.691-0.533c0.068-0.086,0.272-0.337,0.798-0.337c0.426,0,0.735,0.325,0.828,0.398
	S14.259,0.675,14.259,0.675z"/>
<path id="_218649224" fill="#959E48" d="M16.249,0.993c0,0,0.475,0.489,0.456,0.876c-0.019,0.386-0.271,0.814-0.271,1.562
	c0,0-0.087,0.031-0.198,0.031s-0.17-0.031-0.17-0.031c0-0.747-0.253-1.176-0.271-1.562C15.775,1.482,16.249,0.993,16.249,0.993z"/>
<path id="_179398128" fill="#959E48" d="M15.787,3.719c0,0,0.173-1.844-1.434-1.636c0,0,0.34,0.104,0.384,0.393
	c0.043,0.287,0.271,0.608,0.735,0.809c0.24,0.104,0.253,0.466,0.253,0.466S15.762,3.847,15.787,3.719z"/>
<path id="_208371920" fill="#959E48" d="M15.868,4.54c0,0-0.192-0.251-0.568-0.251c-0.198,0-0.211,0.163-0.668,0.202
	c-0.216,0.019-0.334,0.146-0.334,0.146s-0.08-0.778,0.705-0.778C15.787,3.859,15.868,4.54,15.868,4.54z"/>
<path id="_179398104" fill="#F38081" d="M15.935,7.909c0,0-0.47-0.024-0.574-0.502c-0.105-0.478-0.507-0.08-0.464,0.195
	c0.043,0.276,0.358,0.649,1.063,0.374C15.96,7.976,16.028,7.909,15.935,7.909z"/>
<path id="_208371896" fill="#319E94" d="M18.239,0.675c0.018-0.037,0.027-0.079,0.027-0.123c0-0.163-0.13-0.295-0.289-0.295
	s-0.288,0.132-0.288,0.295c0,0.135,0.089,0.248,0.21,0.283c0,0-0.088,0.097-0.459,0.097S16.846,0.68,16.846,0.68
	s-0.117-0.031-0.056,0.098c0.063,0.129,0.334,0.288,0.729,0.288s0.91-0.274,1.267-0.638c0.247-0.251,0.692-0.227,0.692-0.227
	s0.644,0.031,0.636,0.656c-0.006,0.521-0.476,0.539-0.476,0.539s-0.407,0.012-0.407-0.337c0-0.252,0.216-0.221,0.216-0.221
	s0.161,0,0.161,0.146c0,0.147-0.167,0.166-0.167,0.166s0.309,0.104,0.309-0.172s-0.303-0.282-0.303-0.282s-0.352-0.036-0.352,0.368
	s0.364,0.478,0.556,0.478s0.711-0.202,0.605-0.827c0,0,0.217,0.325,0.643,0.325c0.427,0,0.438-0.43,0.438-0.43
	s0.007-0.281-0.303-0.281c-0.309,0-0.24,0.288-0.142,0.318c0,0-0.093-0.221,0.154-0.221s0.179,0.228,0.179,0.228
	s-0.037,0.281-0.37,0.281c-0.334,0-0.624-0.447-0.692-0.533c-0.067-0.086-0.271-0.337-0.797-0.337c-0.427,0-0.735,0.325-0.828,0.398
	S18.239,0.675,18.239,0.675z"/>
<path id="_35455544" fill="#959E48" d="M16.711,3.719c0,0-0.173-1.844,1.434-1.636c0,0-0.34,0.104-0.383,0.393
	c-0.043,0.287-0.271,0.608-0.735,0.809c-0.241,0.104-0.253,0.466-0.253,0.466S16.736,3.847,16.711,3.719z"/>
<path id="_229475376" fill="#959E48" d="M16.631,4.54c0,0,0.191-0.251,0.568-0.251c0.197,0,0.21,0.163,0.667,0.202
	C18.083,4.51,18.2,4.637,18.2,4.637s0.08-0.778-0.704-0.778C16.711,3.859,16.631,4.54,16.631,4.54z"/>
<path id="_35455640" fill="#A7377F" d="M16.252,6.745c0,0,0.286,0.087,0.286-0.386c0-0.601-0.311-0.809-0.286-1.194h-0.005
	c0.024,0.386-0.287,0.615-0.287,1.194c0,0.473,0.287,0.386,0.287,0.386H16.252z"/>
<path id="_225750856" fill="#A7377F" d="M16.249,4.766c0,0,0.369-0.552,0.369-0.864s-0.181-0.392-0.366-0.386h-0.005
	C16.061,3.51,15.88,3.59,15.88,3.902S16.249,4.766,16.249,4.766z"/>
<path id="_231519304" fill="#F38081" d="M16.252,7.854c0,0,0.793,0.024,0.793-0.638c0-0.429-0.513-0.337-0.513-0.337
	s-0.15,0.05-0.28,0.05h-0.005c-0.13,0-0.28-0.05-0.28-0.05s-0.513-0.092-0.513,0.337c0,0.662,0.793,0.638,0.793,0.638H16.252z"/>
<path id="_231519208" fill="#F38081" d="M16.562,7.909c0,0,0.47-0.024,0.575-0.502c0.104-0.478,0.507-0.08,0.464,0.195
	c-0.044,0.276-0.359,0.649-1.063,0.374C16.538,7.976,16.47,7.909,16.562,7.909z"/>
<path fill="#0077BD" d="M16.349,9.052h-0.205l-0.021-0.101c-0.025-0.134-0.07-0.191-0.128-0.266
	c-0.06-0.077-0.129-0.166-0.164-0.333c-0.03-0.144,0.015-0.237,0.059-0.291c0.116-0.145,0.332-0.148,0.356-0.148
	c0.029,0,0.245,0.004,0.361,0.148c0.043,0.054,0.089,0.148,0.058,0.291c-0.036,0.17-0.104,0.262-0.162,0.342
	c-0.053,0.071-0.099,0.134-0.131,0.263L16.349,9.052z M16.252,8.163c-0.053,0.001-0.138,0.019-0.167,0.056
	C16.08,8.224,16.064,8.244,16.076,8.3c0.024,0.112,0.065,0.165,0.118,0.233c0.02,0.024,0.04,0.051,0.06,0.081
	c0.017-0.024,0.033-0.047,0.049-0.068c0.053-0.071,0.094-0.128,0.119-0.246c0.012-0.057-0.004-0.075-0.009-0.082
	C16.38,8.176,16.283,8.163,16.252,8.163z"/>
<path id="_35455616" fill="#B56FAD" d="M18.367,3.866c-0.333,0.02-0.655-0.129-0.655-0.601s0.408-0.459,0.408-0.459
	s0.358-0.019,0.358,0.324s-0.346,0.281-0.346,0.281s-0.007,0.068,0.21,0.068c0.216,0,0.47-0.19,0.47-0.656
	c0-0.465-0.37-1.086-1.489-1.359c-0.977-0.239-0.958-0.956-0.958-0.956S16.315,0,16.841,0c0.353,0,0.358,0.344,0.358,0.344
	s0.013,0.318-0.37,0.184c0,0,0.166-0.013,0.166-0.135c0-0.123-0.062-0.166-0.186-0.166c-0.123,0-0.259,0.037-0.259,0.288
	c0,0.252,0.223,0.546,0.76,0.674c0.537,0.129,1.928,0.479,1.885,1.636C19.195,2.824,19.133,3.82,18.367,3.866z"/>
</svg>
