<?xml version="1.0" encoding="utf-8"?>
<!-- Generator: Adobe Illustrator 15.0.0, SVG Export Plug-In . SVG Version: 6.00 Build 0)  -->
<!DOCTYPE svg PUBLIC "-//W3C//DTD SVG 1.1//EN" "http://www.w3.org/Graphics/SVG/1.1/DTD/svg11.dtd">
<svg version="1.1" id="Layer_1" xmlns="http://www.w3.org/2000/svg" xmlns:xlink="http://www.w3.org/1999/xlink" x="0px" y="0px"
	 width="21.34px" height="9.172px" viewBox="0 0 21.34 9.172" enable-background="new 0 0 21.34 9.172" xml:space="preserve">
<g id="_228926928">
	<path id="_228926664" fill="#959E48" d="M10.099,5.088C9.834,4.839,9.368,4.898,9.07,5.048c-0.516,0.259-0.831,0.82-0.788,1.385
		C8.284,6.464,8.347,6.51,8.364,6.475c0.139-0.3,0.296-0.543,0.625-0.635c0.356-0.1,0.501-0.414,0.725-0.674
		C9.844,5.015,10.099,5.088,10.099,5.088z"/>
	<path id="_229439240" fill="#959E48" d="M8.919,7.529C9.055,7.568,9.193,7.533,9.283,7.41c0.201-0.273-0.009-0.604-0.249-0.746
		c-0.201-0.12-0.48-0.177-0.687-0.035c0.19,0.139,0.268,0.357,0.339,0.566C8.733,7.333,8.763,7.484,8.919,7.529z"/>
	<path id="_229439744" fill="#7E68AD" d="M8.274,8.191c0.055-0.313,0.24-0.436,0.457-0.436c0.216,0,0.314,0.147,0.314,0.319
		c0,0.171-0.186,0.189-0.186,0.189S8.706,8.271,8.706,8.13c0-0.141,0.124-0.184,0.124-0.184c-0.247,0-0.235,0.196-0.235,0.196
		S8.62,8.375,8.836,8.375c0.297,0,0.328-0.275,0.328-0.275s0.043-0.429-0.421-0.436C8.175,7.657,8.175,8.191,8.175,8.191
		C8.206,8.277,8.274,8.191,8.274,8.191z"/>
	<path id="_229438808" fill="#ED3237" d="M7.693,8.283c-0.055,0-0.099,0.044-0.099,0.099c0,0.054,0.044,0.098,0.099,0.098h0.661
		c0.055,0,0.099-0.044,0.099-0.098c0-0.055-0.044-0.099-0.099-0.099H7.693z"/>
	<path id="_229440320" fill="#319E94" d="M9.286,3.79c0.312-0.468,0.739-0.892,1.268-0.892c0.772,0,0.742,0.674,0.742,0.674
		s-0.038,0.429-0.464,0.429c-0.271,0-0.278-0.258-0.278-0.258S10.56,3.51,10.758,3.51s0.186,0.208,0.186,0.208s0.08,0.11,0.117-0.03
		s-0.099-0.313-0.29-0.313c-0.192,0-0.371,0.11-0.371,0.325c0,0.214,0.142,0.453,0.481,0.453s0.563-0.331,0.563-0.619
		s-0.234-0.803-0.84-0.803s-1.025,0.46-1.025,0.46s0.062-0.748-0.525-0.748c-0.433,0-0.421,0.38-0.421,0.38s0,0.32,0.31,0.313
		c0.247-0.006,0.21-0.281,0.21-0.281S9.077,2.775,9.04,2.861c0,0,0.043,0.141-0.099,0.141c-0.143,0-0.18-0.098-0.18-0.184
		S8.799,2.58,9.077,2.58s0.519,0.459,0.297,0.839c0,0-0.086,0.116-0.205,0.315C9.143,3.777,9.286,3.79,9.286,3.79z"/>
	<path id="_229440344" fill="#319E94" d="M9.09,4.114C8.836,4.576,8.7,4.993,8.7,4.993C8.62,5.11,8.589,4.987,8.589,4.987
		c0.109-0.341,0.254-0.651,0.385-0.906C9,4.03,9.09,4.114,9.09,4.114z"/>
	<path id="_229439792" fill="#B56FAD" d="M10.109,6.868c-0.414,0-0.698-0.233-0.705-0.619C9.397,5.784,9.868,5.728,9.868,5.728
		s0.346-0.013,0.353,0.288c0.007,0.361-0.322,0.324-0.322,0.324c0.754,0.276,0.761-0.655,0.761-0.655s0.024-0.919-1.106-1.415
		c-1.475-0.647-1.445-1.446-1.428-1.52c0.02-0.073,0.075,0,0.075,0S8.144,3.535,9.639,4.019c1.495,0.483,1.437,1.842,1.427,1.917
		C10.958,6.846,10.109,6.868,10.109,6.868z"/>
	<path id="_229440968" fill="#F38081" d="M9.25,1.905c0.014,0.208-0.093,0.417-0.333,0.454C8.676,2.395,8.681,2.242,8.681,2.242
		c0.087-0.373-0.34-0.618-0.34-0.618C8.824,1.225,9.231,1.63,9.25,1.905z"/>
	<path id="_229440296" fill="#F38081" d="M8.514,1.042c0.346-0.08,0.47,0.104,0.47,0.104s0.124,0.239-0.093,0.233
		C8.514,1.368,8.465,1.427,8.329,1.532C8.133,1.682,8.15,1.409,8.15,1.409S8.169,1.121,8.514,1.042z"/>
	<path id="_229441136" fill="#959E48" d="M7.885,6.445c0,0-0.069-0.7-0.1-1.005c-0.03-0.313-0.357-0.974-0.136-1.434
		c0.16-0.331,0.374-0.698,0.374-0.698s0.214,0.367,0.374,0.698C8.62,4.467,8.292,5.128,8.261,5.44c-0.03,0.305-0.1,1.005-0.1,1.005
		C8.02,6.567,7.885,6.445,7.885,6.445z"/>
	<path id="_229438952" fill="#959E48" d="M5.947,5.088c0.267-0.249,0.732-0.189,1.029-0.04c0.517,0.259,0.832,0.82,0.789,1.385
		C7.762,6.464,7.699,6.51,7.683,6.475c-0.139-0.3-0.296-0.543-0.626-0.635c-0.356-0.1-0.501-0.414-0.725-0.674
		C6.202,5.015,5.947,5.088,5.947,5.088z"/>
	<path id="_229441304" fill="#959E48" d="M7.129,7.529C6.992,7.568,6.853,7.533,6.763,7.41c-0.201-0.273,0.009-0.604,0.25-0.746
		c0.201-0.12,0.48-0.177,0.686-0.035C7.509,6.767,7.431,6.986,7.36,7.195C7.313,7.333,7.284,7.484,7.129,7.529z"/>
	<path id="_229428560" fill="#A7377F" d="M8.028,7.768c0.5,0,0.536-0.416,0.431-0.723C8.354,6.739,8.023,6.58,8.023,6.58
		s-0.33,0.159-0.436,0.466S7.518,7.768,8.019,7.768H8.028z"/>
	<path id="_229441472" fill="#7E68AD" d="M7.773,8.191C7.718,7.879,7.532,7.756,7.316,7.756c-0.217,0-0.315,0.147-0.315,0.319
		c0,0.171,0.186,0.189,0.186,0.189S7.341,8.271,7.341,8.13c0-0.141-0.124-0.184-0.124-0.184c0.248,0,0.235,0.196,0.235,0.196
		S7.427,8.375,7.211,8.375c-0.297,0-0.327-0.275-0.327-0.275s-0.043-0.429,0.42-0.436c0.568-0.007,0.568,0.527,0.568,0.527
		C7.842,8.277,7.773,8.191,7.773,8.191z"/>
	<path id="_229441328" fill="#7E68AD" d="M7.859,8.59c0,0-0.203,0.569-0.982,0.569c-0.945,0-1.841-1.164-1.841-1.164
		C4.332,7.334,4.048,7.523,3.652,7.377C3.044,7.15,3.139,6.512,3.139,6.512C3.238,6.684,3.275,6.66,3.825,6.752
		s0.921,0.734,0.921,0.734c-0.186-0.3-0.408-0.998-0.408-0.998c0.043-0.147,0.148-0.024,0.148-0.024
		c0.476,1.66,1.508,2.224,1.508,2.224S5.536,8.332,5.555,7.811C5.573,7.291,5.27,7.1,5.27,7.1C6.13,7.046,6.191,7.86,6.191,8.178
		c0,0.319,0.007,0.853,0.698,0.853c0.692,0,0.859-0.466,0.859-0.466C7.847,8.479,7.859,8.59,7.859,8.59z"/>
	<path id="_229441568" fill="#319E94" d="M6.761,3.79C6.45,3.322,6.021,2.898,5.493,2.898c-0.772,0-0.741,0.674-0.741,0.674
		s0.037,0.429,0.464,0.429c0.271,0,0.277-0.258,0.277-0.258S5.487,3.51,5.289,3.51c-0.197,0-0.185,0.208-0.185,0.208
		s-0.081,0.11-0.118-0.03s0.1-0.313,0.291-0.313s0.37,0.11,0.37,0.325c0,0.214-0.142,0.453-0.481,0.453S4.603,3.823,4.603,3.535
		s0.235-0.803,0.841-0.803s1.025,0.46,1.025,0.46S6.408,2.444,6.995,2.444c0.433,0,0.42,0.38,0.42,0.38s0,0.32-0.309,0.313
		c-0.247-0.006-0.21-0.281-0.21-0.281s0.073-0.08,0.11,0.006c0,0-0.043,0.141,0.1,0.141c0.142,0,0.179-0.098,0.179-0.184
		S7.248,2.58,6.969,2.58c-0.277,0-0.519,0.459-0.296,0.839c0,0,0.085,0.116,0.205,0.315C6.904,3.777,6.761,3.79,6.761,3.79z"/>
	<path id="_229440944" fill="#319E94" d="M6.958,4.114c0.254,0.462,0.389,0.879,0.389,0.879C7.427,5.11,7.458,4.987,7.458,4.987
		C7.348,4.646,7.204,4.336,7.073,4.081C7.048,4.03,6.958,4.114,6.958,4.114z"/>
	<path id="_229441832" fill="#B56FAD" d="M2.784,5.936H4.98C4.962,5.863,4.913,4.503,6.408,4.019
		c1.495-0.484,1.439-1.269,1.439-1.269s0.056-0.073,0.074,0s0.048,0.872-1.428,1.52C5.363,4.766,5.388,5.685,5.388,5.685
		s0.006,0.932,0.76,0.655c0,0-0.329,0.037-0.321-0.324c0.006-0.301,0.352-0.288,0.352-0.288S6.65,5.784,6.642,6.249
		c-0.006,0.386-0.29,0.619-0.704,0.619S5.19,6.537,5.079,6.341H2.834C2.858,6.185,2.784,5.936,2.784,5.936z"/>
	<path id="_229441592" fill="#7E68AD" d="M4.14,5.839c0,0-0.21-0.521-0.551-0.367C3.17,5.661,2.75,5.538,2.75,5.538
		C2.744,5.397,2.867,5.324,2.867,5.324C2.052,5.287,2.089,4.68,2.089,4.68s0.247,0.27,0.476,0.184
		c0.229-0.085,0.401-0.023,0.401-0.023c-0.11-0.031-0.104-0.196-0.104-0.196c0.581-0.007,0.81,0.27,0.81,0.27
		S3.17,3.939,2.633,4.025C1.975,4.13,1.761,4.068,1.563,3.903C1.365,3.737,1.088,3.719,1.088,3.719
		c0.648-0.631,1.619,0.067,1.619,0.067c-0.39-0.354-0.89-0.618-1.601-0.618S0.117,3.492,0.117,3.915S0.395,4.448,0.55,4.448
		c0.155,0,0.347-0.092,0.347-0.288s-0.13-0.227-0.198-0.227c-0.067,0-0.179,0.024-0.179,0.147c0,0.122,0.104,0.134,0.104,0.134
		S0.395,4.301,0.395,4.074c0-0.3,0.278-0.281,0.278-0.281s0.371-0.007,0.371,0.349c0,0.441-0.482,0.429-0.482,0.429S0,4.656,0,3.89
		c0-1.194,1.725-0.809,1.725-0.809c-0.272-0.141-0.34-0.68-0.34-0.79S1.508,1.734,1.94,1.734s0.383,0.331,0.383,0.331
		S2.33,2.31,2.094,2.31c-0.234,0-0.123-0.258-0.123-0.258C1.965,2.101,1.99,2.212,2.107,2.206s0.104-0.123,0.104-0.123
		s0.031-0.251-0.253-0.238C1.514,1.863,1.508,2.328,1.508,2.328S1.514,2.96,2.039,3.186C2.925,3.568,3.38,4.313,3.38,4.313
		C2.737,2.861,3.392,2.524,3.392,2.524c-0.043,0.104,0.024,0.3,0.024,0.3c0.482,0.834,0.223,0.901,0.211,1.373
		C3.615,4.669,4.121,5.446,4.121,5.446C4.158,4.35,4.876,4.405,4.876,4.405C4.783,4.534,4.968,4.974,4.591,5.189
		S4.306,5.839,4.306,5.839C4.214,5.925,4.14,5.839,4.14,5.839z"/>
	<path id="_229442000" fill="#F38081" d="M8.028,2.635c0,0,0.555,0.092,0.555-0.429S8.028,1.587,8.028,1.587H8.019
		c0,0-0.555,0.099-0.555,0.619s0.555,0.429,0.555,0.429H8.028z"/>
	<path id="_229441280" fill="#F38081" d="M6.797,1.905C6.783,2.113,6.889,2.322,7.131,2.359c0.241,0.036,0.234-0.117,0.234-0.117
		c-0.086-0.373,0.34-0.618,0.34-0.618C7.223,1.225,6.815,1.63,6.797,1.905z"/>
	<path id="_229442168" fill="#F38081" d="M7.532,1.042c-0.346-0.08-0.47,0.104-0.47,0.104S6.939,1.385,7.155,1.379
		c0.377-0.011,0.427,0.049,0.563,0.153c0.197,0.15,0.18-0.123,0.18-0.123S7.879,1.121,7.532,1.042z"/>
	<path id="_229441448" fill="#F38081" d="M8.028,1.106c0,0,0.276,0.015,0.276-0.294C8.304,0.503,8.023,0,8.023,0
		S7.742,0.503,7.742,0.812c0,0.309,0.277,0.294,0.277,0.294H8.028z"/>
</g>
<path id="_228926760" fill="#7E68AD" d="M8.187,8.59c0,0,0.204,0.569,0.982,0.569c0.945,0,1.841-1.164,1.841-1.164
	C11.716,7.334,12,7.523,12.395,7.377c0.608-0.227,0.513-0.864,0.513-0.864c-0.099,0.172-0.136,0.147-0.687,0.239
	c-0.55,0.092-0.92,0.734-0.92,0.734c0.186-0.3,0.407-0.998,0.407-0.998c-0.043-0.147-0.147-0.024-0.147-0.024
	c-0.477,1.66-1.508,2.224-1.508,2.224s0.457-0.355,0.438-0.876S10.776,7.1,10.776,7.1C9.918,7.046,9.855,7.86,9.855,8.178
	c0,0.319-0.006,0.853-0.698,0.853S8.299,8.565,8.299,8.565C8.2,8.479,8.187,8.59,8.187,8.59z"/>
<path id="_387415200" fill="#B56FAD" d="M11.224,5.936h2.128c0.068-0.349,0.445-0.631,0.779-0.631c0.333,0,0.654,0.129,0.654,0.601
	s-0.407,0.459-0.407,0.459S14.02,6.384,14.02,6.041s0.346-0.281,0.346-0.281s0.006-0.068-0.21-0.068c-0.217,0-0.47,0.19-0.47,0.656
	c0,0.465,0.37,1.086,1.489,1.359c0.977,0.239,0.958,0.956,0.958,0.956s0.049,0.509-0.477,0.509c-0.352,0-0.357-0.344-0.357-0.344
	s-0.013-0.318,0.37-0.184c0,0-0.167,0.013-0.167,0.135c0,0.123,0.063,0.166,0.186,0.166c0.124,0,0.26-0.037,0.26-0.288
	c0-0.252-0.223-0.546-0.761-0.674c-0.537-0.129-1.927-0.484-1.884-1.643h-2.202C11.15,6.209,11.224,5.936,11.224,5.936z"/>
<path id="_228926856" fill="#7E68AD" d="M11.907,5.839c0,0,0.21-0.521,0.55-0.367c0.42,0.189,0.84,0.066,0.84,0.066
	c0.007-0.141-0.117-0.214-0.117-0.214c0.815-0.037,0.779-0.644,0.779-0.644s-0.248,0.27-0.477,0.184
	c-0.229-0.085-0.401-0.023-0.401-0.023c0.111-0.031,0.105-0.196,0.105-0.196c-0.581-0.007-0.81,0.27-0.81,0.27
	s0.5-0.975,1.038-0.889c0.656,0.104,0.871,0.043,1.068-0.122c0.198-0.166,0.477-0.185,0.477-0.185
	c-0.649-0.631-1.619,0.067-1.619,0.067c0.389-0.354,0.89-0.618,1.6-0.618c0.711,0,0.989,0.324,0.989,0.747s-0.278,0.533-0.433,0.533
	s-0.346-0.092-0.346-0.288s0.129-0.227,0.197-0.227s0.179,0.024,0.179,0.147c0,0.122-0.104,0.134-0.104,0.134
	s0.229,0.086,0.229-0.141c0-0.3-0.278-0.281-0.278-0.281s-0.37-0.007-0.37,0.349c0,0.441,0.481,0.429,0.481,0.429
	s0.563,0.086,0.563-0.68c0-1.194-1.724-0.809-1.724-0.809c0.271-0.141,0.34-0.68,0.34-0.79s-0.124-0.558-0.557-0.558
	s-0.383,0.331-0.383,0.331S13.718,2.31,13.952,2.31c0.235,0,0.124-0.258,0.124-0.258c0.006,0.049-0.019,0.159-0.137,0.153
	c-0.117-0.006-0.104-0.123-0.104-0.123s-0.031-0.251,0.254-0.238c0.443,0.019,0.45,0.483,0.45,0.483s-0.006,0.632-0.531,0.858
	c-0.885,0.382-1.341,1.127-1.341,1.127c0.643-1.452-0.013-1.789-0.013-1.789c0.044,0.104-0.024,0.3-0.024,0.3
	c-0.481,0.834-0.223,0.901-0.21,1.373s-0.494,1.249-0.494,1.249c-0.037-1.096-0.754-1.041-0.754-1.041
	c0.093,0.129-0.093,0.569,0.284,0.784s0.284,0.649,0.284,0.649C11.833,5.925,11.907,5.839,11.907,5.839z"/>
<path id="_218649272" fill="#319E94" d="M13.959,8.706c-0.093,0.073-0.402,0.398-0.828,0.398c-0.525,0-0.729-0.251-0.798-0.337
	c-0.067-0.086-0.357-0.533-0.691-0.533S11.27,8.515,11.27,8.515s-0.067,0.228,0.18,0.228s0.154-0.221,0.154-0.221
	c0.099,0.03,0.167,0.318-0.143,0.318c-0.309,0-0.303-0.281-0.303-0.281s0.013-0.43,0.439-0.43c0.426,0,0.643,0.325,0.643,0.325
	c-0.105-0.625,0.413-0.827,0.605-0.827c0.191,0,0.556,0.073,0.556,0.478S13.05,8.473,13.05,8.473s-0.303-0.007-0.303-0.282
	s0.31-0.172,0.31-0.172s-0.167,0.019-0.167,0.166c0,0.146,0.16,0.146,0.16,0.146s0.217,0.031,0.217-0.221
	c0-0.349-0.408-0.337-0.408-0.337s-0.47,0.019-0.476,0.539c-0.008,0.625,0.637,0.656,0.637,0.656s0.444,0.024,0.691-0.227
	c0.357-0.363,0.871-0.638,1.267-0.638s0.668,0.159,0.729,0.288s-0.056,0.098-0.056,0.098S15.429,8.24,15.058,8.24
	s-0.459,0.097-0.459,0.097c0.121,0.035,0.209,0.148,0.209,0.283c0,0.163-0.129,0.295-0.288,0.295s-0.288-0.132-0.288-0.295
	c0-0.044,0.01-0.086,0.026-0.123C14.259,8.497,14.052,8.633,13.959,8.706z"/>
<path id="_218649224" fill="#959E48" d="M15.794,7.302c0.019-0.386,0.271-0.814,0.271-1.562c0,0,0.059-0.031,0.17-0.031
	s0.198,0.031,0.198,0.031c0,0.747,0.253,1.176,0.271,1.562c0.019,0.387-0.456,0.876-0.456,0.876S15.775,7.689,15.794,7.302z"/>
<path id="_179398128" fill="#959E48" d="M15.725,5.422c0,0-0.013,0.362-0.253,0.466c-0.464,0.2-0.692,0.521-0.735,0.809
	c-0.044,0.288-0.384,0.393-0.384,0.393c1.606,0.208,1.434-1.636,1.434-1.636C15.762,5.324,15.725,5.422,15.725,5.422z"/>
<path id="_208371920" fill="#959E48" d="M15.003,5.312c-0.785,0-0.705-0.778-0.705-0.778s0.118,0.128,0.334,0.146
	c0.457,0.039,0.47,0.202,0.668,0.202c0.376,0,0.568-0.251,0.568-0.251S15.787,5.312,15.003,5.312z"/>
<path id="_179398104" fill="#F38081" d="M15.96,1.195c-0.704-0.275-1.02,0.098-1.063,0.374c-0.043,0.275,0.358,0.673,0.464,0.195
	c0.104-0.478,0.574-0.502,0.574-0.502C16.028,1.262,15.96,1.195,15.96,1.195z"/>
<path id="_208371896" fill="#319E94" d="M18.54,8.706c0.093,0.073,0.401,0.398,0.828,0.398c0.525,0,0.729-0.251,0.797-0.337
	c0.068-0.086,0.358-0.533,0.692-0.533c0.333,0,0.37,0.281,0.37,0.281s0.068,0.228-0.179,0.228s-0.154-0.221-0.154-0.221
	c-0.099,0.03-0.167,0.318,0.142,0.318c0.31,0,0.303-0.281,0.303-0.281S21.327,8.13,20.9,8.13c-0.426,0-0.643,0.325-0.643,0.325
	c0.105-0.625-0.414-0.827-0.605-0.827s-0.556,0.073-0.556,0.478s0.352,0.368,0.352,0.368s0.303-0.007,0.303-0.282
	s-0.309-0.172-0.309-0.172s0.167,0.019,0.167,0.166c0,0.146-0.161,0.146-0.161,0.146s-0.216,0.031-0.216-0.221
	c0-0.349,0.407-0.337,0.407-0.337s0.47,0.019,0.476,0.539c0.008,0.625-0.636,0.656-0.636,0.656s-0.445,0.024-0.692-0.227
	C18.43,8.38,17.916,8.105,17.52,8.105s-0.667,0.159-0.729,0.288c-0.062,0.129,0.056,0.098,0.056,0.098S17.069,8.24,17.44,8.24
	s0.459,0.097,0.459,0.097c-0.121,0.035-0.21,0.148-0.21,0.283c0,0.163,0.129,0.295,0.288,0.295s0.289-0.132,0.289-0.295
	c0-0.044-0.01-0.086-0.027-0.123C18.239,8.497,18.447,8.633,18.54,8.706z"/>
<path id="_35455544" fill="#959E48" d="M16.773,5.422c0,0,0.012,0.362,0.253,0.466c0.464,0.2,0.692,0.521,0.735,0.809
	c0.043,0.288,0.383,0.393,0.383,0.393c-1.606,0.208-1.434-1.636-1.434-1.636C16.736,5.324,16.773,5.422,16.773,5.422z"/>
<path id="_229475376" fill="#959E48" d="M17.496,5.312c0.784,0,0.704-0.778,0.704-0.778s-0.117,0.128-0.334,0.146
	c-0.457,0.039-0.47,0.202-0.667,0.202c-0.377,0-0.568-0.251-0.568-0.251S16.711,5.312,17.496,5.312z"/>
<path id="_35455640" fill="#A7377F" d="M16.247,2.427c0,0-0.287-0.087-0.287,0.386c0,0.579,0.312,0.809,0.287,1.194h0.005
	c-0.024-0.386,0.286-0.594,0.286-1.194c0-0.473-0.286-0.386-0.286-0.386H16.247z"/>
<path id="_225750856" fill="#A7377F" d="M15.88,5.269c0,0.313,0.182,0.392,0.367,0.386h0.005c0.186,0.006,0.366-0.073,0.366-0.386
	s-0.369-0.864-0.369-0.864S15.88,4.957,15.88,5.269z"/>
<path id="_231519304" fill="#F38081" d="M16.247,1.317c0,0-0.793-0.024-0.793,0.638c0,0.429,0.513,0.337,0.513,0.337
	s0.15-0.05,0.28-0.05h0.005c0.13,0,0.28,0.05,0.28,0.05s0.513,0.092,0.513-0.337c0-0.662-0.793-0.638-0.793-0.638H16.247z"/>
<path id="_231519208" fill="#F38081" d="M16.538,1.195c0.704-0.275,1.02,0.098,1.063,0.374c0.043,0.275-0.359,0.673-0.464,0.195
	c-0.105-0.478-0.575-0.502-0.575-0.502C16.47,1.262,16.538,1.195,16.538,1.195z"/>
<path fill="#0077BD" d="M16.373,0.215c0.032,0.129,0.078,0.191,0.131,0.263c0.059,0.08,0.126,0.172,0.162,0.342
	c0.031,0.143-0.015,0.237-0.058,0.291c-0.116,0.145-0.332,0.148-0.361,0.148c-0.024,0-0.24-0.004-0.356-0.148
	c-0.044-0.054-0.089-0.147-0.059-0.291c0.035-0.167,0.104-0.256,0.164-0.333c0.058-0.074,0.103-0.132,0.128-0.266l0.021-0.101h0.205
	L16.373,0.215z M16.413,0.954c0.005-0.007,0.021-0.025,0.009-0.082c-0.025-0.118-0.066-0.175-0.119-0.246
	c-0.016-0.021-0.032-0.044-0.049-0.068c-0.02,0.03-0.04,0.057-0.06,0.081C16.141,0.707,16.1,0.76,16.076,0.872
	c-0.012,0.056,0.004,0.075,0.009,0.081c0.029,0.037,0.114,0.055,0.167,0.056C16.283,1.009,16.38,0.996,16.413,0.954z"/>
<path id="_35455616" fill="#B56FAD" d="M19.195,6.347c0.043,1.157-1.348,1.507-1.885,1.636c-0.537,0.128-0.76,0.422-0.76,0.674
	c0,0.251,0.136,0.288,0.259,0.288c0.124,0,0.186-0.043,0.186-0.166c0-0.122-0.166-0.135-0.166-0.135
	c0.383-0.135,0.37,0.184,0.37,0.184s-0.006,0.344-0.358,0.344c-0.525,0-0.476-0.509-0.476-0.509s-0.019-0.717,0.958-0.956
	c1.119-0.273,1.489-0.895,1.489-1.359c0-0.466-0.254-0.656-0.47-0.656c-0.217,0-0.21,0.068-0.21,0.068s0.346-0.062,0.346,0.281
	S18.12,6.365,18.12,6.365s-0.408,0.013-0.408-0.459s0.322-0.62,0.655-0.601C19.133,5.351,19.195,6.347,19.195,6.347z"/>
</svg>
