<?xml version="1.0" encoding="UTF-8"?>
<!DOCTYPE svg PUBLIC "-//W3C//DTD SVG 1.1//EN" "http://www.w3.org/Graphics/SVG/1.1/DTD/svg11.dtd">
<!-- Creator: CorelDRAW -->
<svg xmlns="http://www.w3.org/2000/svg" xml:space="preserve" width="1.59421in" height="0.359299in" style="shape-rendering:geometricPrecision; text-rendering:geometricPrecision; image-rendering:optimizeQuality; fill-rule:evenodd; clip-rule:evenodd"
viewBox="0 0 1.59421 0.359299"
 xmlns:xlink="http://www.w3.org/1999/xlink">
 <defs>
  <style type="text/css">
   <![CDATA[
    .fil0 {fill:black;fill-rule:nonzero}
   ]]>
  </style>
 </defs>
 <g id="Layer_x0020_1">
  <metadata id="CorelCorpID_0Corel-Layer"/>
  <path class="fil0" d="M0.0358346 0.109394c-0.00314567,0.0198031 -0.0149331,0.0334764 -0.0353661,0.0410197l-0.000468504 -0.000940945c0.0109961,-0.00628346 0.017752,-0.0133583 0.0202756,-0.0212205 -0.0106929,0.000944882 -0.0171378,0.00299213 -0.0193346,0.00612992 0.00157087,-0.00942913 0.00424409,-0.0157126 0.00801575,-0.0188583 0.00157087,-0.00157087 0.0105276,-0.00361024 0.026878,-0.00612992zm0.540362 0.0603543l0 0zm0 0c0,0.011 -0.00204724,0.0204291 -0.00612992,0.0282913 -0.0047126,0.0100551 -0.0114764,0.0150866 -0.0202756,0.0150866 -0.00565748,0 -0.0102165,-0.000468504 -0.0136732,-0.00141339 0.000311024,0.00408268 0.000472441,0.00801575 0.000472441,0.0117874 0,0.0147717 -0.00173228,0.0242008 -0.00518504,0.0282913 -0.0301811,0.0339488 -0.058315,0.0509213 -0.0844055,0.0509213 -0.0110079,0 -0.0196496,-0.00502756 -0.0259331,-0.0150866 -0.00534646,-0.00817717 -0.00801575,-0.0177638 -0.00801575,-0.0287598 0,-0.0169764 0.00439764,-0.0381969 0.0132047,-0.0636575 -0.00943307,0.00628346 -0.0245197,0.0199606 -0.0452677,0.0410236 -0.0232677,0.0229449 -0.0400787,0.0386654 -0.0504528,0.0471496 -0.0188622,0.0150906 -0.0342638,0.0226378 -0.0462087,0.0226378 -0.00912205,0 -0.0170551,-0.00424803 -0.023811,-0.0127362 -0.00676378,-0.00848425 -0.0101378,-0.0182323 -0.0101378,-0.0292323 0,-0.0141457 0.00455118,-0.031437 0.0136732,-0.0518661 -0.00188583,0.000307087 -0.00377165,0.000472441 -0.00565748,0.000472441 -0.00566142,0 -0.0102205,-0.000472441 -0.0136732,-0.00141732 0.000307087,0.00440157 0.000468504,0.00848819 0.000468504,0.0122598 0,0.0144567 -0.00172835,0.0234173 -0.00518504,0.026878 -0.0345827,0.0345748 -0.0627126,0.0518701 -0.0844016,0.0518701 -0.0113189,0 -0.020122,-0.00472047 -0.0264055,-0.0141496 -0.00535039,-0.00848425 -0.00801575,-0.0191772 -0.00801575,-0.032063 0,-0.0050315 0.00172047,-0.015252 0.00518504,-0.0306496 0.00345669,-0.0154016 0.00518898,-0.0284528 0.00518898,-0.0391339 0,-0.00912205 -0.0011063,-0.0180748 -0.00330315,-0.026878 -0.00848819,-0.00188976 -0.0172913,-0.00801575 -0.0264055,-0.0183898 -0.00912205,-0.010374 -0.0150866,-0.0155591 -0.0179173,-0.0155591 -0.00408661,0 -0.010063,0.00612992 -0.0179173,0.0183898 -0.00629134,0.010063 -0.0114764,0.0199646 -0.0155591,0.0297047 0.0166575,0.00879528 0.0249882,0.0282913 0.0249882,0.0584685l-0.00518504 0c-0.0078622,-0.00408661 -0.015563,-0.00817717 -0.0231063,-0.0122598 -0.00723228,-0.00535039 -0.0108425,-0.0133622 -0.0108425,-0.0240472 -0.0176102,0.00879528 -0.0264055,0.0199606 -0.0264055,0.0334803 0,0.00188583 0.00730709,0.019248 0.0219252,0.0520984 0.0146142,0.0328465 0.0219252,0.0588622 0.0219252,0.0780394l-0.00235827 0c-0.0015748,-0.0116299 -0.010063,-0.0334803 -0.0254606,-0.0655394 -0.0144646,-0.0298701 -0.0216929,-0.0517165 -0.0216929,-0.0655433 0,-0.0194961 0.0114724,-0.037248 0.0344252,-0.0532835 0.00345276,-0.00973622 0.0109961,-0.0229409 0.0226299,-0.0396063 0.0138307,-0.0194882 0.0245197,-0.0292362 0.032063,-0.0292362 0.00345669,0 0.0105315,0.00660236 0.0212205,0.0198031 -0.000944882,-0.00377165 -0.00141339,-0.00738189 -0.00141339,-0.0108425 0,-0.00943307 0.00321654,-0.0175197 0.00966535,-0.0242835 0.00644094,-0.00675591 0.0148543,-0.0101378 0.0252283,-0.0101378 0.00690551,0 0.0212165,0.00353543 0.0429055,0.0106102 0.021689,0.00707087 0.0407047,0.0106063 0.0570551,0.0106063l-0.0136732 0.0221654c-0.010374,0.00188189 -0.0270394,0.00864567 -0.0499843,0.0202717 -0.020437,0.010374 -0.0370945,0.015563 -0.0499803,0.015563 -0.00125984,0 -0.00267323,-0.000153543 -0.00424409,-0.000472441 0.00345669,0.0113189 0.00518898,0.0227874 0.00518898,0.0344213 0,0.0100551 -0.00134252,0.0210551 -0.00400787,0.0330079 -0.00267717,0.0119409 -0.00401181,0.0185394 -0.00401181,0.0198031 0,0.0238858 0.00974016,0.0358346 0.0292362,0.0358346 0.0144567,0 0.0309606,-0.00723622 0.0495118,-0.021689 0.011315,-0.0100669 0.0224685,-0.0202795 0.0334764,-0.0306496 -0.000318898,-0.00535039 -0.00329921,-0.0136732 -0.00895669,-0.0249921 -0.00314961,-0.00659843 -0.00644882,-0.0132008 -0.00990551,-0.0198031l0.0070748 -0.0198031c0.00660236,0.011 0.0114685,0.0182244 0.0146181,0.021689 0.00502362,0.00534252 0.0106811,0.00801575 0.0169724,0.00801575 0.00754724,0 0.0136772,-0.00314567 0.0183898,-0.00942913 -0.000633858,-0.0113189 -0.00172835,-0.0221614 -0.00329921,-0.0325354l-0.0183898 -0.11835c-0.000944882,-0.00722835 -0.00235827,-0.0128858 -0.00424409,-0.0169764l0.00565748 -0.0160315 0.0193346 0.0367795 0 0.00707087 -0.00943307 -0.00942913c-0.000633858,0.00125984 -0.000787402,0.00267323 -0.000468504,0.00424409l0.0169724 0.11222c0.000625984,0.00314567 0.000944882,0.00880709 0.000944882,0.0169764 0,0.021689 -0.00582283,0.0353622 -0.0174488,0.0410236 -0.00754331,0.0163386 -0.011315,0.0311181 -0.011315,0.0443228 0,0.00659843 0.00266535,0.0128858 0.00801575,0.0188583 0.00565748,0.00691339 0.0127323,0.010378 0.0212165,0.010378 0.0132047,0 0.0301772,-0.0100669 0.0509252,-0.0301811 0.0188622,-0.0179173 0.0375591,-0.0358346 0.0561102,-0.053752 0.0141457,-0.0116339 0.0278228,-0.0215354 0.0410236,-0.0297047 -0.00314567,-0.00220079 -0.00880315,-0.00644094 -0.0169724,-0.0127323 -0.0100669,-0.00848819 -0.0150906,-0.0179173 -0.0150906,-0.0282913 0,-0.0172874 0.00942913,-0.0259331 0.0282913,-0.0259331 0.0355157,0 0.0740315,0.00659843 0.115524,0.0198031l-0.0136732 0.0221614c-0.0138386,0.00440551 -0.0381969,0.0143071 -0.0730866,0.0297047 0.00345669,0.00565748 0.00738189,0.0198031 0.0117874,0.042437 -0.0194961,0 -0.0292362,-0.00612992 -0.0292362,-0.0183898 0,-0.0015748 0.000311024,-0.00424409 0.000944882,-0.00801575 0.000625984,-0.00377165 0.000940945,-0.00629134 0.000940945,-0.00754331 -0.00346063,0.00219291 -0.0078622,0.00518504 -0.0132008,0.00896063 -0.00754331,0.0235748 -0.011315,0.0414921 -0.011315,0.053752 0,0.0242008 0.00989764,0.0363071 0.0297047,0.0363071 0.021689,0 0.0493465,-0.0176102 0.0829882,-0.052811 -0.000633858,-0.00535039 -0.00361811,-0.0136732 -0.00896063,-0.0249921 -0.00346063,-0.00629134 -0.00676378,-0.0127283 -0.00990157,-0.0193307l0.0070748 -0.0198031c0.00659843,0.011 0.0114685,0.0182283 0.0146142,0.021689 0.00502756,0.00502362 0.010685,0.00754331 0.0169764,0.00754331 0.00754331,0 0.0136732,-0.00298819 0.0183898,-0.00895669 -0.000633858,-0.0116339 -0.00173228,-0.0226339 -0.00330315,-0.0330079l-0.0183858 -0.117882c-0.00125984,-0.00754331 -0.00283071,-0.0132008 -0.00471654,-0.0169724l0.00565748 -0.0165039 0.0198031 0.0367795 0 0.00707087 -0.00942913 -0.00942913c-0.000633858,0.0015748 -0.000787402,0.00314567 -0.000472441,0.0047126l0.0169764 0.112224c0.000625984,0.00282677 0.000940945,0.00833465 0.000940945,0.0165039zm-0.499339 -0.100906l0 0zm0 0c0,0.0132008 -0.00409055,0.0198031 -0.0122638,0.0198031 -0.00754331,0 -0.011315,-0.00424409 -0.011315,-0.0127323 0,-0.00533858 0.00141339,-0.0114685 0.00424409,-0.0183898 0.00408268,-0.00911024 0.00628346,-0.0142992 0.00660236,-0.0155591 0.00156693,0.00535039 0.00188583,0.00943307 0.000944882,0.0122598 0.00785039,0.00440551 0.0117874,0.00927559 0.0117874,0.0146181zm-0.00329921 0.00471654l0 0zm0 0c-0.00314961,-0.00377559 -0.00770866,-0.00644094 -0.0136772,-0.00801969 -0.00251969,0.00314567 -0.00377165,0.00503543 -0.00377165,0.00566142 0,0.00440551 0.00266535,0.00659843 0.00801575,0.00659843 0.00377165,0 0.00690945,-0.00141339 0.00943307,-0.00424016zm0.0301732 0.185776l0 0zm0 0l-0.00707087 0.0122598c-0.0050315,0.00125197 -0.00990157,0.00251575 -0.0146181,0.00377559 -0.00817717,0.00282677 -0.0122598,0.00612598 -0.0122598,0.00990157 0.00345669,0.0147717 0.00518898,0.0249882 0.00518898,0.0306496 0,0.0138268 -0.000318898,0.021689 -0.000944882,0.0235709 0,-0.00785827 -0.00149606,-0.0184685 -0.00448031,-0.0318228 -0.00299213,-0.0133661 -0.00447638,-0.0219291 -0.00447638,-0.0257008 0,-0.00691732 0.00242913,-0.0114764 0.00730709,-0.0136732 0.00487008,-0.00220079 0.00950394,-0.00424409 0.0139094,-0.00612992 -0.00346457,-0.00157874 -0.00629134,-0.00235827 -0.00848819,-0.00235827 0.000311024,0 -0.00188583,0.00157087 -0.00660236,0.0047126l0.000472441 -0.00565354c0.00188976,-0.00252362 0.00369291,-0.00526772 0.0054252,-0.00825197 0.00172047,-0.00299213 0.00368898,-0.00448031 0.0058937,-0.00448031 0.00439764,0 0.011315,0.00439764 0.0207441,0.0132008zm0.00896063 -0.0561102l0 0zm0 0l-0.00896063 0.0179173 -0.0188622 -0.00990157 0.0070748 -0.0155591 -0.0174449 -0.00896063 0.00848819 -0.0179134 0.0193307 0.00989764 -0.00754331 0.0150906 0.0179173 0.00942913zm0.0957205 -0.0867598l0 0zm0 0c-0.00503543,-0.000625984 -0.015563,-0.00345276 -0.0315945,-0.00848819 -0.0138346,-0.00439764 -0.0245197,-0.00659843 -0.032063,-0.00659843 -0.0166654,0 -0.0249921,0.00629134 -0.0249921,0.0188583 0,0.00535039 0.00172441,0.0108465 0.00518898,0.0165039 0.0031378,0.00251969 0.00690945,0.00377165 0.011315,0.00377165 0.010374,0 0.0224724,-0.00298425 0.0363071,-0.00895669 0.0210591,-0.00911417 0.0330079,-0.0141457 0.0358386,-0.0150906zm0.0094252 0.0853465l0 0zm0 0c-0.011311,0.0279764 -0.025622,0.0419646 -0.0429055,0.0419646 -0.0119488,0 -0.0179173,-0.0058189 -0.0179173,-0.0174449 0,-0.010063 0.00816929,-0.0202756 0.0245197,-0.0306496 -0.00314567,-0.00188583 -0.00612992,-0.00282677 -0.00896063,-0.00282677 -0.00408661,0 -0.00785827,0.00172047 -0.011315,0.00518504l0 -0.00424409c0.0031378,-0.0078622 0.00816929,-0.0117874 0.0150866,-0.0117874 0.011,0 0.0199606,0.00141339 0.026878,0.00424409l-0.0132008 0.0117874c-0.00503543,0.00156693 -0.0108465,0.00502362 -0.0174488,0.010374 -0.00660236,0.00533858 -0.00990157,0.00974016 -0.00990157,0.0132008 0,0.00691339 0.00628346,0.010374 0.0188622,0.010374 0.00754331,0 0.0155591,-0.00455906 0.0240472,-0.0136732 0.00408268,-0.00565748 0.00816929,-0.0111654 0.0122559,-0.0165039zm0.0202795 -0.152303l0 0zm0 0c0,0.00912205 -0.00314567,0.0136772 -0.00942913,0.0136772 -0.00252362,0 -0.00550394,-0.00172441 -0.00896063,-0.00518898 -0.00157874,0.00597638 -0.00487795,0.00896063 -0.00990157,0.00896063 -0.00471654,0 -0.00738976,-0.0031378 -0.00801575,-0.00943307 0,-0.0047126 0,-0.00942913 0,-0.0141457 -0.00125984,0.00188583 -0.00283071,0.00424409 -0.00471654,0.0070748l0 -0.00471654c0.00125197,-0.00345669 0.00471654,-0.00816929 0.010374,-0.0141457 -0.00188583,0.0154055 -0.000318898,0.0231063 0.00471654,0.0231063 0.00377165,0 0.00565354,-0.00251181 0.00565354,-0.00754331 0,-0.00219685 -0.000783465,-0.00675591 -0.00235433,-0.0136772l0.00377165 -0.00612992c0.00219685,0.00314567 0.00345669,0.00848819 0.00377559,0.0160315 0.000622047,0.00503543 0.00266535,0.00754724 0.00612598,0.00754724 0.00251181,0 0.00377165,-0.00157087 0.00377165,-0.00471654 0,-0.000311024 -0.00125984,-0.00518898 -0.00377165,-0.0146181l0.00424409 -0.00801575c0.0031378,0.00974803 0.00471654,0.0183898 0.00471654,0.0259331zm0.0636535 0.192382l0 0zm0 0c-0.000633858,0.010685 -0.00424409,0.0160315 -0.0108425,0.0160315 -0.00692126,0 -0.010374,-0.00346063 -0.010374,-0.010374 0,-0.010063 0.00502362,-0.021378 0.0150906,-0.0339488l0.000940945 0.000472441c-0.00535039,0.011626 -0.00801575,0.0202756 -0.00801575,0.0259331 0,0.00471654 0.00172047,0.0070748 0.00518504,0.0070748 0.00377165,0 0.00612992,-0.00188976 0.0070748,-0.00565748l0.000940945 0.000468504zm0.0221614 -0.0650709l0 0zm0 0c0,0.0157165 -0.00173228,0.0278228 -0.00518504,0.0363071l-0.00235827 0c0.000944882,-0.0166614 0,-0.0341142 -0.00282677,-0.0523346l-0.0193346 -0.125898c-0.00125984,-0.00754724 -0.00283071,-0.0132047 -0.0047126,-0.0169764l0.00565354 -0.0160315 0.0193346 0.0367795 0 0.00707087 -0.00896063 -0.00990157c-0.000940945,0.00157874 -0.00125984,0.00314567 -0.000940945,0.00471654l0.0183898 0.119768c0.000622047,0.00314567 0.000940945,0.00864567 0.000940945,0.0165zm0.0509252 -0.140039l0 0zm0 0c0,0.00346063 -0.00125984,0.00691732 -0.00377165,0.010374 -0.00220472,-0.00251575 -0.00424409,-0.00377559 -0.00612992,-0.00377559 -0.00346063,0 -0.00629134,0.00518898 -0.00848819,0.015563 -0.00125984,0.00723228 -0.00251969,0.0146181 -0.00377165,0.0221614 -0.00188583,-0.00566142 -0.00550394,-0.0133583 -0.0108465,-0.0231063 -0.000940945,0.00377165 -0.00314567,0.00565748 -0.00659843,0.00565748 -0.00629134,0 -0.00943307,-0.00345276 -0.00943307,-0.010374 0,-0.00754331 0.00283071,-0.011315 0.00848819,-0.011315 0.00660236,0 0.0124134,0.00770472 0.0174449,0.0231063 0.00440157,-0.0267165 0.0102126,-0.0400787 0.0174488,-0.0400787 0.00377165,0 0.00565748,0.00393307 0.00565748,0.0117874zm0.000944882 0.0627126l0 0zm0 0c-0.00314567,0.0198031 -0.014937,0.0334764 -0.0353661,0.0410197l-0.000472441 -0.000940945c0.011,-0.00628346 0.0177559,-0.0133583 0.0202756,-0.0212205 -0.010689,0.000944882 -0.0171339,0.00299213 -0.0193307,0.00612992 0.00157087,-0.00942913 0.00424409,-0.0157126 0.00801575,-0.0188622 0.00157087,-0.00156693 0.0105276,-0.0036063 0.026878,-0.00612598zm-0.00188583 0.0702559l0 0zm0 0l-0.00848819 0.0179173 -0.0193346 -0.00990157 0.00896063 -0.0179173 0.0188622 0.00990157zm0.0207441 0.120236l0 0zm0 0c-0.000314961,0.010374 -0.00393307,0.0155591 -0.0108425,0.0155591 -0.00692126,0 -0.010378,-0.00346063 -0.010378,-0.0103701 0,-0.00974803 0.00502756,-0.021063 0.0150906,-0.0339528l0.00141339 0.000472441c-0.00565748,0.011626 -0.00848425,0.0202756 -0.00848425,0.0259331 0,0.00471654 0.00172441,0.0070748 0.00518504,0.0070748 0.00377165,0 0.00612992,-0.00173228 0.0070748,-0.00518504l0.000940945 0.000468504zm0.0202756 -0.240476l0 0zm0 0c0,0.00880709 -0.00188583,0.0187087 -0.00565748,0.0297087 0.000625984,-0.0059685 0.000944882,-0.0125709 0.000944882,-0.0198031 0,-0.0132047 -0.00409055,-0.0235787 -0.0122638,-0.031122l0.00141732 -0.0141457c0.00471654,0.00346457 0.00848819,0.00888583 0.011315,0.0162677 0.00283071,0.00738976 0.00424409,0.0137559 0.00424409,0.0190945zm0.0928898 0.0877047l0 0zm0 0c-0.021063,-0.00848819 -0.0454291,-0.0127323 -0.0730866,-0.0127323 -0.0135197,0 -0.0223228,0.00125984 -0.0264016,0.00377165 0,0.00157874 0.0047126,0.00597638 0.0141457,0.0132047 0.00942913,0.00723622 0.017752,0.0143071 0.0249882,0.0212205 0.0153976,-0.00817323 0.0355197,-0.0166614 0.0603543,-0.0254646zm0.0245197 -0.125425l0 0zm0 0c0,0.00377165 -0.00141339,0.00872441 -0.00424409,0.0148543 -0.00282677,0.00612992 -0.0058189,0.0107717 -0.00895669,0.0139094 0.00407874,-0.00879921 0.00612992,-0.0152441 0.00612992,-0.0193346 -0.0383583,0.0119528 -0.0729331,0.0319094 -0.103736,0.0598858 0.000307087,-0.0031378 0.00109843,-0.00675591 0.00235827,-0.0108465 0.0125669,-0.0128858 0.0293898,-0.0249094 0.0504528,-0.0360709 0.0210551,-0.0111535 0.0403898,-0.018626 0.0579961,-0.0223976zm-0.0282913 0.196154l0 0zm0 0c0.00125197,0.00660236 -0.000161417,0.0102126 -0.00424409,0.0108425 -0.00220472,0.000625984 -0.00565748,-0.000787402 -0.010374,-0.00424016 -0.00314567,0.00502362 -0.00785827,0.0117874 -0.0141457,0.0202756 -0.00848819,0.00974016 -0.0194921,0.0160315 -0.0330039,0.0188583l-0.00943307 0.00188583c0.0100591,-0.0050315 0.021374,-0.0124213 0.0339488,-0.0221575 0.010685,-0.00880709 0.0180748,-0.0172953 0.0221654,-0.0254646 0.00282677,-0.00597638 0.00518504,-0.00927559 0.00707087,-0.00990157 0.00377165,-0.000633858 0.00643701,0.00266535 0.00801575,0.00990157zm0.00896063 -0.133441l0 0zm0 0c0,0.00912205 -0.00314567,0.0136732 -0.00942913,0.0136732 -0.00252362,0 -0.00535039,-0.00172441 -0.00848819,-0.00518504 -0.00188976,0.00597244 -0.00518898,0.00896063 -0.00990551,0.00896063 -0.0047126,0 -0.00738976,-0.00298819 -0.00801575,-0.00896063 -0.000314961,-0.00502362 -0.000468504,-0.00990157 -0.000468504,-0.0146181 -0.00126378,0.00188583 -0.00267717,0.00424409 -0.00424409,0.00707087l0 -0.00424016c0.00125197,-0.00345669 0.0047126,-0.00832677 0.010374,-0.0146181 -0.00188583,0.0154055 -0.000318898,0.0231063 0.0047126,0.0231063 0.00377165,0 0.00565748,-0.00235827 0.00565748,-0.0070748 0,-0.00251181 -0.000940945,-0.00722835 -0.00282677,-0.0141457l0.00424409 -0.00612992c0.00188583,0.00314567 0.0031378,0.00848819 0.00377165,0.0160315 0.000311024,0.0050315 0.00219291,0.00754331 0.00565748,0.00754331 0.00251181,0 0.00377165,-0.00156693 0.00377165,-0.0047126 0,-0.000311024 -0.0011063,-0.00502756 -0.00329921,-0.0141457l0.00377165 -0.00848819c0.0031378,0.00974803 0.00471654,0.0183898 0.00471654,0.0259331zm-0.0108465 0.137213l0 0zm0 0c-0.00314567,-0.00440551 -0.00660236,-0.00550394 -0.010374,-0.00329921 0.00408268,0.00282677 0.00754331,0.0039252 0.010374,0.00329921zm0.101378 0.0466811l0 0zm0 0c0,0.00690945 -0.00220472,0.010374 -0.00660236,0.010374 -0.00314567,0 -0.00660236,-0.000940945 -0.010374,-0.00283071 -0.0128937,0.0229449 -0.0364685,0.0339488 -0.0707283,0.0330079l-0.000472441 0 0 -0.000944882c0.0333189,-0.00785827 0.0559488,-0.0191772 0.0679016,-0.0339488 -0.00377165,-0.0015748 -0.00565748,-0.00393307 -0.00565748,-0.0070748 0,-0.00188189 0.00109449,-0.00447638 0.00329921,-0.00777559 0.00219685,-0.00330315 0.00424409,-0.00511811 0.00612992,-0.0054252l-0.00188583 -0.00377165 0.00141339 -0.00188583c0.00188583,0.000625984 0.00455118,0.00219685 0.00801575,0.0047126l0 0.00141732c0,0.000311024 0.00148819,0.00219291 0.00448031,0.00565748 0.00298425,0.00345669 0.00448031,0.0062874 0.00448031,0.00848819zm0.0117874 -0.0815748l0 0zm0 0c0,0.0157165 -0.00173228,0.0278228 -0.00518898,0.0363071l-0.00235827 0c0.000944882,-0.0166614 0,-0.0341142 -0.00282677,-0.0523346l-0.0193307 -0.125898c-0.00126378,-0.00754724 -0.00283071,-0.0132047 -0.00471654,-0.0169764l0.00565748 -0.0160315 0.0193346 0.0367795 0 0.00707087 -0.00896063 -0.00990157c-0.000940945,0.00157874 -0.00125984,0.00314567 -0.000940945,0.00471654l0.0183898 0.119768c0.000622047,0.00314567 0.000940945,0.00864567 0.000940945,0.0165zm-0.0240472 0.0759173l0 0zm0 0c0,-0.00188583 -0.000944882,-0.00283071 -0.00283071,-0.00283071 -0.00251969,0 -0.0047126,0.00109843 -0.00659843,0.00330315 0.00188583,0.00250787 0.00407874,0.00408268 0.00659843,0.0047126 0.000625984,-0.000944882 0.00125197,-0.00196457 0.00188583,-0.00306693 0.000625984,-0.0011063 0.000944882,-0.00181102 0.000944882,-0.00211811zm1.00293 -0.042437l0 0zm0 0c0,0.0106811 -0.00243701,0.0193307 -0.00730709,0.0259331 -0.00487795,0.00659843 -0.0104567,0.00990157 -0.0167402,0.00990157 -0.0110079,0 -0.0187047,-0.00691732 -0.0231063,-0.020748 -0.00314567,0.0138307 -0.00959055,0.020748 -0.0193307,0.020748 -0.00880709,0 -0.0146181,-0.0058189 -0.0174488,-0.0174449 -0.00597244,0.0144528 -0.0163465,0.021689 -0.0311181,0.021689 -0.00534646,0 -0.00974803,-0.00220472 -0.0132008,-0.00660236 -0.00346457,-0.00440551 -0.00518504,-0.00912205 -0.00518504,-0.0141457 0,-0.00188583 0.000149606,-0.00361811 0.000468504,-0.00518504 -0.105311,0.032689 -0.212819,0.0490354 -0.32252,0.0490354 -0.0531299,0 -0.104843,-0.00424016 -0.155134,-0.0127283 -0.0484094,-0.00817717 -0.0844016,-0.0183898 -0.10798,-0.0306496 -0.000311024,0.0103701 -0.000940945,0.0209016 -0.00188189,0.0315906l-0.00141732 0c-0.0094252,-0.00597638 -0.0150866,-0.0132008 -0.0169724,-0.021689 -0.000633858,-0.00597638 -0.00125984,-0.0116339 -0.00188583,-0.0169764 -0.000633858,-0.00534646 -0.00550394,-0.00801575 -0.0146181,-0.00801575 -0.00754331,0 -0.0212165,0.0120236 -0.0410236,0.0360709 -0.0198031,0.0240512 -0.0350512,0.0360748 -0.0457362,0.0360748 -0.00597244,0 -0.0110787,-0.00282677 -0.0153228,-0.00848819 -0.00424409,-0.00565748 -0.00636614,-0.0132008 -0.00636614,-0.0226339 0,-0.00597638 0.000940945,-0.0125748 0.00282677,-0.0198031 -0.00408661,0.00188583 -0.00770472,0.00283071 -0.0108425,0.00283071 -0.0150866,0 -0.0248346,-0.0102244 -0.0292362,-0.0306496 -0.0015748,0.0245157 -0.0127283,0.0367756 -0.0334764,0.0367756 -0.00912205,0 -0.0157205,-0.00487402 -0.0198031,-0.0146142 -0.00346457,-0.00723622 -0.00487795,-0.0158819 -0.00424409,-0.0259331 0,-0.000944882 0.000779528,-0.00597638 0.00235827,-0.0150906 0.00125197,-0.00754331 0.00156693,-0.0141457 0.000940945,-0.0198031 -0.0047126,0.00722835 -0.00833071,0.0166575 -0.0108425,0.0282913 -0.00157874,0.00848425 -0.00314567,0.0169724 -0.00471654,0.0254606 -0.00282677,0.0132047 -0.00770866,0.0198031 -0.0146181,0.0198031 -0.00471654,0 -0.00903937,-0.00432283 -0.0129685,-0.0129685 -0.00393307,-0.00864567 -0.00588976,-0.0179961 -0.00588976,-0.0280512 0,-0.010374 0.000940945,-0.0218543 0.00282677,-0.0344213l0.00235827 0.000472441c-0.000940945,0.00659843 -0.00141339,0.0130354 -0.00141339,0.0193307 0,0.0251457 0.00533858,0.0377205 0.0160315,0.0377205 0.00345276,0 0.00659843,-0.00550394 0.00942913,-0.0165039 0.00534252,-0.0191772 0.00848819,-0.0301772 0.00942913,-0.0330039 0.00502362,-0.0132008 0.011626,-0.0218465 0.0198071,-0.025937l-0.000476378 0.0141496c-0.00251575,0.0201142 -0.00376772,0.0322165 -0.00376772,0.0363071 0,0.0163386 0.00581102,0.0245157 0.0174449,0.0245157 0.00722835,0 0.013748,-0.00298819 0.0195709,-0.00895669 0.00581102,-0.00597244 0.00872047,-0.0128937 0.00872047,-0.020748l-0.00801575 -0.0443228 0.00565748 -0.0150866c0.00377165,0.00691732 0.0059685,0.0125748 0.00660236,0.0169724 0.00188583,0.0135197 0.00377165,0.0270315 0.00565748,0.0405512 0.00439764,0.0179173 0.0125709,0.026878 0.0245197,0.026878 0.00754331,0 0.0128858,-0.00299213 0.0160315,-0.00896063 -0.00377165,-0.00817717 -0.00754331,-0.0163465 -0.011315,-0.0245197 -0.00565748,-0.0132008 -0.00880315,-0.0237323 -0.00943307,-0.0315906l-0.00282677 -0.00754331 0.00377165 -0.0160315 0.0165 0.0254606 0 0.00471654c-0.00220079,-0.00125197 -0.0047126,-0.00314173 -0.00754331,-0.00566142 -0.000314961,0.00157874 -0.000314961,0.00235827 0,0.00235827 0.011,0.0245236 0.0165079,0.0411772 0.0165079,0.0499843 0,0.0135118 -0.00314961,0.0224724 -0.00943307,0.026874 -0.00188583,0.00722835 -0.00283071,0.0128858 -0.00283071,0.0169764 0,0.010374 0.00502362,0.015563 0.0150906,0.015563 0.0100551,0 0.024752,-0.012189 0.0440866,-0.0365433 0.0193307,-0.0243661 0.0344961,-0.0365433 0.0455,-0.0365433 0.00377165,0 0.00879921,0.00219291 0.0150906,0.00659843l0.00612992 -0.0132008c0.0106811,0.0150866 0.0416496,0.0287638 0.0928898,0.0410236 0.0584685,0.0138268 0.125894,0.0207441 0.202283,0.0207441 0.0509252,0 0.107343,-0.00456299 0.169276,-0.0136732 0.053752,-0.00817717 0.102319,-0.0180787 0.145697,-0.0297087 -0.00125591,0.00188976 -0.00188189,0.00424803 -0.00188189,0.0070748 0,0.00439764 0.00148819,0.00855906 0.00447638,0.0124961 0.00298425,0.00392913 0.00620472,0.0058937 0.00966929,0.0058937 0.00722835,0 0.0150866,-0.00393307 0.0235748,-0.0117874l0.0146142 -0.0136772 0.00141732 0.000476378c-0.000633858,0.00156693 -0.000940945,0.00329921 -0.000940945,0.00518504 0,0.0103701 0.00377165,0.0155591 0.011315,0.0155591 0.00407874,0 0.00816929,-0.00346457 0.0122598,-0.010374 0.00533858,-0.00880315 0.00911417,-0.0139882 0.011315,-0.0155591l0.00188976 -0.000472441c-0.000633858,0.00188583 -0.000948819,0.00361024 -0.000948819,0.00518504 0,0.00566142 0.00212598,0.0109213 0.00637008,0.0157992 0.00424016,0.00487008 0.00809055,0.00730709 0.0115512,0.00730709 0.00754331,0 0.011315,-0.00282677 0.011315,-0.00848819 0,-0.00691732 -0.00534646,-0.020437 -0.0160315,-0.0405472 -0.0119488,-0.0220039 -0.0183898,-0.0353661 -0.0193307,-0.0400827 -0.000944882,-0.00156693 -0.00205118,-0.00361024 -0.00330315,-0.00612992 -0.00125591,-0.00251181 -0.00204724,-0.00407874 -0.00235433,-0.0047126l0.00329921 -0.0165039 0.0226339 0.0231024 0 0.00424409 -0.00990157 -0.00424409 0 0.00235827c0.00565354,0.00912205 0.011315,0.0182362 0.0169764,0.0273504 0.0109961,0.0185433 0.0165,0.033315 0.0165,0.0443228zm-0.993969 0.0509213l0 0zm0 0c-0.0015748,-0.0015748 -0.00377165,-0.00408661 -0.00659843,-0.00754331l-0.00188583 0.00612992c0.00156693,0.00125197 0.00345276,0.00188583 0.00565748,0.00188583 0.000940945,0 0.00188583,-0.000161417 0.00282677,-0.000472441zm0.132969 -0.26122l0 0zm0 0c0,0.00377165 -0.00141339,0.00872047 -0.00424016,0.0148543 -0.00283071,0.00612992 -0.00582283,0.0107677 -0.00896063,0.0139094 0.00407874,-0.00879921 0.00612992,-0.0152441 0.00612992,-0.0193346 -0.0459016,0.0144646 -0.0850354,0.0361535 -0.117409,0.0650709 0.000625984,-0.0031378 0.00157087,-0.00690945 0.00282677,-0.011315 0.0122638,-0.0122598 0.0314331,-0.0251457 0.0575315,-0.0386654 0.0248268,-0.0125709 0.0462087,-0.020748 0.064122,-0.0245197zm-0.0466772 0.26311l0 0zm0 0c0,0.00345276 -0.00141732,0.00707087 -0.00424409,0.0108425 -0.00220472,-0.00251969 -0.00409055,-0.00377165 -0.00565748,-0.00377165 -0.00377165,0 -0.00676772,0.00502362 -0.00896063,0.0150906 -0.000940945,0.00754331 -0.00204724,0.0149252 -0.00329921,0.0221614 -0.00188976,-0.00566142 -0.00566142,-0.0133661 -0.0113189,-0.0231024 -0.000629921,0.00407874 -0.00267323,0.00612598 -0.00612992,0.00612598 -0.00659843,0 -0.00990157,-0.00361811 -0.00990157,-0.0108425 0,-0.00754724 0.00298425,-0.0113189 0.00896063,-0.0113189 0.00628346,0 0.0120945,0.00770079 0.0174449,0.0231063 0.00408268,-0.0267244 0.00974016,-0.0400787 0.0169764,-0.0400787 0.00407874,0 0.00612992,0.00392126 0.00612992,0.0117874zm0.00141339 -0.16739l0 0zm0 0c0,0.00911811 -0.00314567,0.0136732 -0.00943307,0.0136732 -0.00251969,0 -0.0055,-0.00172441 -0.00895669,-0.00518898 -0.0015748,0.00597638 -0.00487795,0.00896063 -0.00990157,0.00896063 -0.00471654,0 -0.00738976,-0.00314173 -0.00801575,-0.00942913 0,-0.00471654 0,-0.00943307 0,-0.0141457 -0.00125984,0.00188583 -0.00283071,0.00424409 -0.00471654,0.00707087l0 -0.0047126c0.00125197,-0.00345669 0.00471654,-0.00817323 0.010374,-0.0141496 -0.00188583,0.0154094 -0.000314961,0.0231063 0.00471654,0.0231063 0.00377165,0 0.00565748,-0.00251181 0.00565748,-0.00754331 0,-0.00219685 -0.000787402,-0.00675591 -0.00235827,-0.0136732l0.00377559 -0.00612992c0.00219291,0.00314173 0.00345276,0.00848425 0.00377165,0.0160315 0.000625984,0.0050315 0.00266535,0.00754331 0.00612992,0.00754331 0.00250787,0 0.00377165,-0.00157087 0.00377165,-0.00471654 0,-0.000307087 -0.00126378,-0.00518504 -0.00377165,-0.0146181l0.00424016 -0.00801575c0.0031378,0.00974803 0.00471654,0.0183898 0.00471654,0.025937zm0.0287638 -0.0117913l0 0zm0 0c0,0.00880709 -0.00188583,0.0187087 -0.00565748,0.0297047 0.000307087,-0.00596457 0.000468504,-0.0125669 0.000468504,-0.0197992 0,-0.0132047 -0.00408661,-0.0235787 -0.0122598,-0.031122l0.00141339 -0.0141457c0.00471654,0.00346063 0.00856299,0.00888583 0.0115551,0.0162677 0.00298425,0.00738976 0.00448031,0.0137559 0.00448031,0.0190945zm0.0603504 0.0928898l0 0zm0 0c0,0.0157165 -0.00172835,0.0278228 -0.00518504,0.0363071l-0.00188583 0c0.000625984,-0.0166614 -0.000472441,-0.0341142 -0.00329921,-0.0523346l-0.0193307 -0.125898c-0.000944882,-0.00754724 -0.00235827,-0.0132047 -0.00424803,-0.0169764l0.00566142 -0.0160315 0.0193307 0.0367795 0 0.00707087 -0.00942913 -0.00990157c-0.000633858,0.00157874 -0.000791339,0.00314567 -0.000472441,0.00471654l0.0183898 0.119768c0.000311024,0.00314567 0.000468504,0.00864567 0.000468504,0.0165zm0.0707323 0.0778031l0 0zm0 0c0.00125197,0.00659843 -0.000161417,0.0102126 -0.00424409,0.0108465 -0.00220472,0.000625984 -0.00565748,-0.000791339 -0.010374,-0.00424803 -0.00314567,0.00502756 -0.0078622,0.0117913 -0.0141457,0.0202756 -0.00848819,0.00974016 -0.0194961,0.0160315 -0.0330079,0.0188622l-0.00942913 0.00188976c0.0100551,-0.00503543 0.021374,-0.0124252 0.0339488,-0.0221614 0.0106811,-0.00880709 0.0180748,-0.0172953 0.0221614,-0.0254646 0.00283071,-0.00597638 0.00518898,-0.00927953 0.0070748,-0.00990157 0.00377165,-0.000637795 0.00643701,0.00266535 0.00801575,0.00990157zm-0.00566142 -0.201343l0 0zm0 0c0,0.00346457 -0.00125591,0.0070748 -0.00377165,0.0108465 -0.00220079,-0.00251181 -0.00424409,-0.00377165 -0.00612992,-0.00377165 -0.00346063,0 -0.00629134,0.0050315 -0.00848425,0.0150866 -0.00125984,0.00754724 -0.00235827,0.014937 -0.00330315,0.0221654 -0.00188583,-0.00565748 -0.00565748,-0.0133583 -0.011315,-0.0231063 -0.000944882,0.00409055 -0.00314567,0.00612992 -0.00660236,0.00612992 -0.00629134,0 -0.00942913,-0.00345669 -0.00942913,-0.010374 0,-0.00785433 0.00282677,-0.0117874 0.00848425,-0.0117874 0.00660236,0 0.0125669,0.00770472 0.0179173,0.0231024 0.00408661,-0.0267126 0.00974016,-0.0400787 0.0169764,-0.0400787 0.00377559,0 0.00565748,0.00393701 0.00565748,0.0117874zm0.00235827 0.0622441l0 0zm0 0l-0.0070748 0.0122598c-0.0050315,0.00125984 -0.00990157,0.00251969 -0.0146142,0.00377165 -0.00817717,0.00282677 -0.0122598,0.00612992 -0.0122598,0.00990157 0.00345276,0.0147795 0.00518504,0.0249921 0.00518504,0.0306457 0,0.0138307 -0.000314961,0.0216929 -0.000940945,0.0235787 0,-0.0078622 -0.00149606,-0.0184724 -0.00448031,-0.0318268 -0.00299213,-0.0133583 -0.00448031,-0.0219291 -0.00448031,-0.0256969 0,-0.00691339 0.00243307,-0.0114764 0.00731102,-0.0136772 0.00487008,-0.00219685 0.00950394,-0.00424409 0.0139094,-0.00612992 -0.00346063,-0.00156693 -0.00629134,-0.00235827 -0.00848819,-0.00235827 0.000311024,0 -0.00188583,0.00157874 -0.00659843,0.00471654l0.000468504 -0.00565748c0.00188583,-0.00251181 0.00369291,-0.00525984 0.00542126,-0.00825197 0.00172441,-0.00298425 0.00369291,-0.00447638 0.00589764,-0.00447638 0.00439764,0 0.011315,0.00440157 0.0207441,0.0132008zm0.00141732 0.14287l0 0zm0 0c-0.00314961,-0.00440945 -0.0066063,-0.00550394 -0.010374,-0.00329921 0.00408268,0.00282677 0.00754331,0.0039252 0.010374,0.00329921zm0.0240472 -0.0311181l0 0zm0 0c-0.00252362,-0.00126378 -0.00598031,-0.00456299 -0.010374,-0.00990551 0,0.00408268 0.000944882,0.00840945 0.00283071,0.0129646 0.00188583,0.00455906 0.00376772,0.00684252 0.00565748,0.00684252 0.00125197,0 0.00188583,-0.00329921 0.00188583,-0.00990157zm0.58563 0.0240472l0 0zm0 0c0,0.0153937 -0.00377559,0.0231063 -0.0113189,0.0231063 -0.00377165,0 -0.00659843,-0.00220866 -0.00848819,-0.00660236 -0.0047126,0.00722441 -0.00927559,0.0108425 -0.0136693,0.0108425 -0.00188976,0 -0.00440945,-0.00125984 -0.00754724,-0.00377165 -0.00314567,-0.00251969 -0.00518898,-0.00377559 -0.00612992,-0.00377559 -0.00408661,0 -0.0111614,0.00235827 -0.0212205,0.0070748 -0.0132008,0.00628346 -0.0242047,0.0108465 -0.0330039,0.0136732 -0.0163465,0.00471654 -0.0339488,0.0070748 -0.052811,0.0070748l-0.00188583 -0.00188583c0.0163425,0 0.0330079,-0.00314961 0.0499803,-0.00943307 0.00879921,-0.00346063 0.021374,-0.00942913 0.0377205,-0.0179134 0.0119449,-0.00660236 0.0202795,-0.00990551 0.0249961,-0.00990551 0.00156693,0 0.00384252,0.00141339 0.00683071,0.00424409 0.00298425,0.00283071 0.00573622,0.00424409 0.00825591,0.00424409 0.00282677,0 0.00612598,-0.00393307 0.00990157,-0.0117874l0.00329921 -0.00188583c-0.000633858,0.0062874 0.00141732,0.00942913 0.00612992,0.00942913 0.00219685,0 0.00424409,-0.00393307 0.00612992,-0.0117874 0.00188583,-0.000318898 0.00283071,-0.000633858 0.00283071,-0.000940945zm0.0763858 -0.181067l0 0zm0 0c0,0.00346457 -0.00141339,0.0070748 -0.00424409,0.0108465 -0.00188583,-0.00251181 -0.00377165,-0.00377165 -0.00565748,-0.00377165 -0.00377165,0 -0.00676378,0.0050315 -0.00896063,0.0150866 -0.000940945,0.00723622 -0.00204724,0.0146181 -0.00329921,0.0221614 -0.00188976,-0.00565748 -0.00550394,-0.0133583 -0.0108425,-0.0231024 -0.000944882,0.00408661 -0.00314961,0.00612992 -0.00660236,0.00612992 -0.00629134,0 -0.00942913,-0.00361024 -0.00942913,-0.0108465 0,-0.00754331 0.00282677,-0.0113189 0.00848425,-0.0113189 0.00660236,0 0.0124134,0.00770866 0.0174488,0.0231063 0.00439764,-0.0267126 0.0100512,-0.0400787 0.0169724,-0.0400787 0.00408268,0 0.00612992,0.00393307 0.00612992,0.0117874zm-0.00848819 0.0867598l0 0zm0 0c0,0.0132047 -0.00408661,0.0198031 -0.0122559,0.0198031 -0.00754724,0 -0.0113189,-0.00424409 -0.0113189,-0.0127283 0,-0.00534252 0.00156693,-0.0114724 0.0047126,-0.0183898 0.00408268,-0.00911417 0.0062874,-0.0143031 0.0066063,-0.0155591 0.00156693,0.00534646 0.00172047,0.00942913 0.000468504,0.0122559 0.00785433,0.00440945 0.0117874,0.00927559 0.0117874,0.0146181zm-0.00330315 0.00471654l0 0zm0 0c-0.00282677,-0.00377165 -0.00738583,-0.00644094 -0.0136732,-0.00801575 -0.00251969,0.00314567 -0.00377165,0.0050315 -0.00377165,0.00565748 0,0.00440551 0.00266929,0.00660236 0.00801575,0.00660236 0.00408268,0 0.00722835,-0.00141732 0.00942913,-0.00424409zm0.0561142 0.107508l0 0zm0 0l-0.00848819 0.0179173 -0.0188583 -0.00990157 0.00848819 -0.0179213 0.0188583 0.00990551z"/>
 </g>
</svg>
