<?xml version="1.0" encoding="utf-8"?>
<!-- Generator: Adobe Illustrator 15.0.0, SVG Export Plug-In  -->
<!DOCTYPE svg PUBLIC "-//W3C//DTD SVG 1.1//EN" "http://www.w3.org/Graphics/SVG/1.1/DTD/svg11.dtd" [
	<!ENTITY ns_flows "http://ns.adobe.com/Flows/1.0/">
]>
<svg version="1.1"
	 xmlns="http://www.w3.org/2000/svg" xmlns:xlink="http://www.w3.org/1999/xlink" xmlns:a="http://ns.adobe.com/AdobeSVGViewerExtensions/3.0/"
	 x="0px" y="0px" width="57px" height="51px" viewBox="55 1 57 51" enable-background="new 55 1 57 51" xml:space="preserve">
<defs>
</defs>
<rect x="0.5" y="2.6" fill-rule="evenodd" clip-rule="evenodd" fill="none" width="55.3" height="50.3"/>
<rect x="55.7" y="2.6" fill-rule="evenodd" clip-rule="evenodd" fill="none" width="55.3" height="50.3"/>
<path fill="#144A93" d="M96.4,32.6c0,1.1-0.2,2.3-0.7,3.5h-0.5c0-1.6-0.1-2.8-0.2-3.5c0-0.1-0.1-0.8-0.4-2.1c-0.1-0.9-0.4-2.2-0.7-4
	c-0.1-0.6-0.2-1.1-0.2-1.6c0-0.4,0.1-0.8,0.3-1.2c0.2-0.3,0.7-0.9,1.4-1.7c0,1.3,0.2,3.2,0.6,5.7C96.3,29.4,96.4,31.1,96.4,32.6z"/>
<path fill="#144A93" d="M97.5,14.2c0,0.4,0,0.7-0.1,0.9c-0.1,0.2-0.3,0.4-0.6,0.6l-4.2,2.4c0-0.5,0.1-0.8,0.2-0.9
	c0.1-0.2,0.4-0.4,0.8-0.6L97.5,14.2z"/>
<path fill="#F47E20" d="M90.9,39.3l-1.1,2l-1.9-1.4l1.2-2L90.9,39.3L90.9,39.3z M91.2,31.9c0,1.5-0.3,2.7-1,3.5
	c-0.6,0.9-1.5,1.3-2.6,1.3H86v-3.2h1.6c1.5,0,2.2-0.2,2.2-0.7c0-0.1-0.2-0.5-0.8-1c-0.2-0.3-0.4-0.5-0.4-0.8c0-0.1,0.2-0.8,0.7-1.8
	c0.1-0.3,0.4-0.8,0.7-1.4C90.9,29.4,91.2,30.7,91.2,31.9z"/>
<path fill="#F47E20" d="M91.6,19.4c0,0.4,0,0.7-0.1,0.9c-0.1,0.2-0.3,0.4-0.6,0.6l-4.2,2.4c0-0.4,0.1-0.8,0.2-0.9
	c0.1-0.2,0.4-0.4,0.8-0.6L91.6,19.4z"/>
<path fill="#006235" d="M86.3,36.7h-1.9c-1.5,0-2.6-1.1-3.2-3.3c-1,2-2.5,3-4.4,3.1c-1.6,0-2.5-0.5-2.5-1.6c0-0.1,0.1-0.8,0.5-1.9
	c0.1-0.3,0.2-0.8,0.5-1.5l0.4,0.1c0.2,0.5,0.4,0.9,0.8,1.2c0.4,0.3,0.9,0.4,1.7,0.4c0.9,0,1.5-0.1,1.8-0.2c0.6-0.2,0.9-0.7,0.9-1.3
	c0-0.5-0.1-1.3-0.4-2.6c-0.2-1.1-0.3-2-0.3-2.6c0-0.5,0.2-1.1,0.5-1.6c0.2-0.3,0.5-0.7,1-1.4c0,1.4,0.2,3.1,0.7,5.2l0.5,2.5
	c0.3,1.5,0.9,2.3,1.6,2.3h1.9V36.7z"/>
<path fill="#006034" d="M82.2,19.4c0,0.4,0,0.7-0.1,0.9c-0.1,0.2-0.3,0.4-0.6,0.6l-4.2,2.4c0-0.4,0.1-0.8,0.2-0.9
	c0.1-0.2,0.4-0.4,0.8-0.6L82.2,19.4L82.2,19.4z M82.2,17.2l-4,2.3c-0.4,0.2-0.7,0.4-0.8,0.7c-0.1,0.2-0.2,0.5-0.2,0.9l4.2-2.4
	C81.9,18.4,82.2,17.9,82.2,17.2z"/>
<path fill="#144A93" d="M71.9,32.6c0,1.1-0.2,2.3-0.7,3.5h-0.5c0-1.6-0.1-2.8-0.2-3.5c0-0.1-0.1-0.8-0.4-2.1c-0.2-0.9-0.4-2.2-0.7-4
	c-0.1-0.6-0.1-1.1-0.2-1.6c0-0.4,0.1-0.8,0.3-1.2c0.2-0.3,0.7-0.9,1.4-1.7c0,1.3,0.2,3.2,0.6,5.7C71.8,29.4,71.9,31.1,71.9,32.6z"/>
<rect id="_x3C_Slice_x3E__11_" fill-rule="evenodd" clip-rule="evenodd" fill="none" width="56" height="52"/>
<rect id="_x3C_Slice_x3E__10_" x="55.5" y="1" fill-rule="evenodd" clip-rule="evenodd" fill="none" width="56" height="51"/>
</svg>
