<?xml version="1.0" encoding="utf-8"?>
<!-- Generator: Adobe Illustrator 15.0.0, SVG Export Plug-In  -->
<!DOCTYPE svg PUBLIC "-//W3C//DTD SVG 1.1//EN" "http://www.w3.org/Graphics/SVG/1.1/DTD/svg11.dtd" [
	<!ENTITY ns_flows "http://ns.adobe.com/Flows/1.0/">
]>
<svg version="1.1"
	 xmlns="http://www.w3.org/2000/svg" xmlns:xlink="http://www.w3.org/1999/xlink" xmlns:a="http://ns.adobe.com/AdobeSVGViewerExtensions/3.0/"
	 x="0px" y="0px" width="54px" height="49px" viewBox="0 0 54 49" enable-background="new 0 0 54 49" xml:space="preserve">
<defs>
</defs>
<path fill="#006034" d="M42.1,32L40.9,34l-1.9-1.5l1.2-1.9L42.1,32L42.1,32z M46.5,23.4c-0.1,0-0.4,0-0.8,0.1c-0.4,0-0.6,0-0.8,0
	c-1,0-1.8-0.1-2.3-0.2c-0.5-0.1-1.5-0.4-2.8-0.9c-1.1-0.4-2-0.7-2.7-0.7c-1,0-1.8,0.4-2.3,1.2c-0.3,0.5-0.7,1.4-0.9,2.6
	c0.9-0.4,1.8-0.5,2.5-0.5c0.9,0,2,0.3,3.1,0.9c-2.2,1.1-4,1.7-5.4,1.7h-1.3v3.2h1.3c0.4,0,0.8-0.1,1.3-0.3c0.7-0.5,1.4-0.9,2-1.4
	c1.4-1.1,2.4-1.8,3-2.1c0.8-0.4,1.9-0.7,3.1-0.9c0.4-0.1,0.8-0.1,1-0.1h0.8l0.9-0.1L46.5,23.4z"/>
<path fill="#006034" d="M42.8,13.5c0,0.4,0,0.7-0.1,0.9c-0.1,0.2-0.3,0.4-0.6,0.6l-4.2,2.4c0-0.5,0.1-0.8,0.2-0.9
	c0.1-0.2,0.4-0.4,0.8-0.6L42.8,13.5z"/>
<path fill="#144A93" d="M27.2,27.6c0-0.8-0.1-1.5-0.3-2c-0.2-0.5-0.5-0.8-0.8-0.8c-0.2,0-0.5,0.3-0.8,0.8c-0.1,0.2-0.3,0.6-0.6,1.1
	c0.5,0.5,1,0.9,1.4,1.3c0.2,0.2,0.5,0.3,0.6,0.3C27.1,28.3,27.2,28,27.2,27.6L27.2,27.6z M33,30.8H31c-0.5,0-0.8-0.1-1.1-0.2
	c-0.2-0.1-0.5-0.4-0.7-0.7c-0.2,1.3-0.7,1.9-1.7,1.9c-0.9,0-2.2-1-4-3c-0.3,0.7-0.7,1.2-1,1.5c-0.3,0.3-0.7,0.5-1,0.5h-1v-3.2h1
	c1,0,2-0.8,2.9-2.3c0.4-0.6,0.6-1,0.8-1.2c0.4-0.4,0.8-0.6,1.2-0.6c0.4,0,0.9,0.5,1.5,1.3c0.3,0.5,0.7,1,1.2,1.7
	c0.6,0.8,1.3,1.1,1.9,1.1H33V30.8z"/>
<path fill="#144A93" d="M29.3,13.5c0,0.4,0,0.7-0.1,0.9c-0.1,0.2-0.3,0.4-0.6,0.6l-4.2,2.4c0-0.5,0.1-0.8,0.2-0.9
	c0.1-0.2,0.4-0.4,0.8-0.6L29.3,13.5z"/>
<path fill="#F47E20" d="M22.8,39L17,41.8c-2.6,0-4.7-0.5-6.2-1.6C9,39,8.1,37.1,8.1,34.6c0-1.6,0.4-3,1.2-4.3c0.6-1,1.7-2,3.1-3.3
	c-0.7-0.4-1.5-0.8-2.4-1.2c0.6-2.6,1.9-3.9,4.1-3.9c0.9,0,1.6,0.2,2.2,0.8c0.6,0.5,0.9,1.2,0.9,2c0,0.5-0.1,0.9-0.3,1.2
	c-0.2,0.3-0.6,0.6-1.3,1c0.7,0.3,1.7,0.4,2.9,0.4h2.9v3.2h-2.7c-1.2,0-2.3-0.5-3.2-1.3c-0.4-0.3-0.9-0.8-1.5-1.4
	c-1.3,0.4-2.3,1-3.1,1.8c-0.9,0.9-1.4,2-1.4,3.2c0,2.2,1.2,3.7,3.6,4.7c1.7,0.7,3.8,1,6.4,1c1,0,2.1-0.1,3.3-0.2L22.8,39z"/>
<path fill="#F47E20" d="M16.6,8.3c0,0.4,0,0.7-0.1,0.9c-0.1,0.2-0.3,0.4-0.6,0.6l-4.2,2.4c0-0.5,0.1-0.8,0.2-0.9
	c0.1-0.2,0.4-0.4,0.8-0.6L16.6,8.3z"/>
<rect id="_x3C_Slice_x3E__10_" fill-rule="evenodd" clip-rule="evenodd" fill="none" width="54" height="49"/>
</svg>
