<?xml version="1.0" encoding="utf-8"?>
<!-- Generator: Adobe Illustrator 15.0.0, SVG Export Plug-In  -->
<!DOCTYPE svg PUBLIC "-//W3C//DTD SVG 1.1//EN" "http://www.w3.org/Graphics/SVG/1.1/DTD/svg11.dtd" [
	<!ENTITY ns_flows "http://ns.adobe.com/Flows/1.0/">
]>
<svg version="1.1"
	 xmlns="http://www.w3.org/2000/svg" xmlns:xlink="http://www.w3.org/1999/xlink" xmlns:a="http://ns.adobe.com/AdobeSVGViewerExtensions/3.0/"
	 x="0px" y="0px" width="55px" height="51px" viewBox="54.8 1 55 51" enable-background="new 54.8 1 55 51" xml:space="preserve">
<defs>
</defs>
<rect y="2.6" fill-rule="evenodd" clip-rule="evenodd" fill="none" width="55.3" height="50.3"/>
<rect x="55.3" y="2.6" fill-rule="evenodd" clip-rule="evenodd" fill="none" width="55.3" height="50.3"/>
<path fill="#144A93" d="M97.6,34.9c0,1.1-0.2,2.3-0.7,3.5h-0.5c0-1.6-0.1-2.8-0.2-3.5c0-0.1-0.1-0.8-0.4-2.1c-0.2-0.9-0.4-2.2-0.7-4
	c-0.1-0.6-0.1-1.1-0.2-1.6c0-0.4,0.1-0.8,0.3-1.2c0.2-0.3,0.7-0.9,1.4-1.7c0,1.3,0.2,3.2,0.6,5.7C97.5,31.7,97.6,33.3,97.6,34.9z"/>
<path fill="#144A93" d="M98.7,16.5c0,0.4,0,0.7-0.1,0.9c-0.1,0.2-0.3,0.4-0.6,0.6l-4.2,2.4c0-0.4,0.1-0.8,0.2-0.9
	c0.1-0.2,0.4-0.4,0.8-0.6L98.7,16.5z"/>
<path fill="#F47E20" d="M92.4,31.6L92,34.1l-0.9,0.1h-0.8c-0.2,0-0.6,0-1,0.1c-1.2,0.2-2.2,0.5-3.1,0.9c-0.6,0.3-1.6,1-3,2.1
	c-0.6,0.4-1.3,0.9-2,1.4C80.8,38.8,80.4,39,80,39h-1.3v-3.2H80c1.4,0,3.2-0.6,5.4-1.7c-1.2-0.6-2.2-0.9-3.1-0.9
	c-0.8,0-1.6,0.2-2.5,0.5c0.3-1.2,0.6-2.1,0.9-2.6c0.5-0.8,1.3-1.2,2.3-1.2c0.8,0,1.7,0.2,2.7,0.7c1.3,0.5,2.3,0.8,2.8,0.9
	c0.5,0.1,1.3,0.2,2.3,0.2c0.2,0,0.4,0,0.8,0C91.9,31.6,92.2,31.6,92.4,31.6z"/>
<path fill="#F47E20" d="M88.7,21.7c0,0.4,0,0.7-0.1,0.9c-0.1,0.2-0.3,0.4-0.6,0.6l-4.2,2.4c0-0.4,0.1-0.8,0.2-0.9
	c0.1-0.2,0.4-0.4,0.8-0.6L88.7,21.7z"/>
<path fill="#006034" d="M79.2,39h-1.9c-1.5,0-2.6-1.1-3.2-3.3c-1,2-2.5,3-4.4,3.1c-1.6,0-2.5-0.5-2.5-1.6c0-0.1,0.2-0.8,0.5-1.9
	c0.1-0.3,0.2-0.8,0.4-1.5l0.4,0.1c0.2,0.5,0.4,0.9,0.8,1.2c0.4,0.3,0.9,0.4,1.7,0.4c0.9,0,1.5-0.1,1.8-0.2c0.6-0.2,0.9-0.7,0.9-1.3
	c0-0.5-0.1-1.3-0.4-2.6c-0.2-1.1-0.3-2-0.3-2.6c0-0.5,0.2-1.1,0.5-1.6c0.1-0.3,0.5-0.7,1-1.4c0,1.4,0.2,3.1,0.7,5.2l0.5,2.6
	c0.3,1.5,0.9,2.3,1.6,2.3h1.9V39z"/>
<path fill="#006034" d="M74.3,21.3c0-0.5-0.2-0.8-0.6-0.8c-0.3,0-0.4,0.1-0.4,0.4c0,0.1,0.1,0.2,0.2,0.3c0.1,0.1,0.4,0.3,0.7,0.6
	c0-0.1,0-0.2,0.1-0.3C74.3,21.5,74.3,21.4,74.3,21.3L74.3,21.3z M75.4,23.4l0,0.9c-0.1-0.1-0.4-0.2-0.7-0.4L74,23.4
	c-0.8,0.8-1.3,1.3-1.8,1.6c-0.4,0.3-1,0.5-1.8,0.6c0.4-0.9,0.6-1.6,0.6-1.9c0-0.2-0.1-0.4-0.2-0.6c-0.2-0.1-0.3-0.2-0.5-0.2
	c-0.3,0-0.6,0.4-0.7,1.1c-0.1-0.4-0.1-0.6-0.1-0.8c0-0.5,0.1-0.8,0.3-1.1c0.2-0.3,0.5-0.4,0.8-0.4c0.7,0,1,0.6,1.1,1.7
	c0,0.3-0.1,0.6-0.2,1.1c0.5-0.2,1.1-0.6,1.7-1.2l0.1-0.1c-0.4-0.2-0.6-0.4-0.8-0.5c-0.1-0.2-0.2-0.5-0.2-0.8c0-0.5,0.2-1,0.6-1.4
	c0.4-0.5,0.8-0.8,1.2-0.8c0.3,0,0.5,0.1,0.7,0.4c0.2,0.2,0.3,0.5,0.3,0.8c0,0.3,0,0.5-0.1,0.6c0,0.1-0.2,0.5-0.4,1.1
	C75.2,22.7,75.4,23,75.4,23.4z"/>
<rect id="_x3C_Slice_x3E__10_" x="54.8" fill-rule="evenodd" clip-rule="evenodd" fill="none" width="56" height="52"/>
</svg>
