<?xml version="1.0" encoding="utf-8"?>
<!-- Generator: Adobe Illustrator 15.0.0, SVG Export Plug-In  -->
<!DOCTYPE svg PUBLIC "-//W3C//DTD SVG 1.1//EN" "http://www.w3.org/Graphics/SVG/1.1/DTD/svg11.dtd" [
	<!ENTITY ns_flows "http://ns.adobe.com/Flows/1.0/">
]>
<svg version="1.1"
	 xmlns="http://www.w3.org/2000/svg" xmlns:xlink="http://www.w3.org/1999/xlink" xmlns:a="http://ns.adobe.com/AdobeSVGViewerExtensions/3.0/"
	 x="0px" y="0px" width="55px" height="50px" viewBox="55.1 -0.6 55 50" enable-background="new 55.1 -0.6 55 50"
	 xml:space="preserve">
<defs>
</defs>
<rect fill-rule="evenodd" clip-rule="evenodd" fill="none" width="55.3" height="50.3"/>
<rect x="55.3" fill-rule="evenodd" clip-rule="evenodd" fill="none" width="55.3" height="50.3"/>
<path fill="#144A93" d="M97.6,32.3c0,1.1-0.2,2.3-0.7,3.5h-0.5c0-1.6-0.1-2.8-0.2-3.5c0-0.1-0.1-0.8-0.4-2.1c-0.2-0.9-0.4-2.2-0.7-4
	C95,25.5,95,25,95,24.5c0-0.4,0.1-0.8,0.3-1.2c0.2-0.3,0.7-0.9,1.4-1.7c0,1.3,0.2,3.2,0.6,5.7C97.5,29.1,97.6,30.8,97.6,32.3z"/>
<path fill="#144A93" d="M98.7,13.9c0,0.4,0,0.7-0.1,0.9c-0.1,0.2-0.3,0.4-0.6,0.6l-4.2,2.4c0-0.4,0.1-0.8,0.2-0.9
	c0.1-0.2,0.4-0.4,0.8-0.6L98.7,13.9z"/>
<path fill="#F47E20" d="M92.4,29.1L92,31.6l-0.9,0.1h-0.8c-0.2,0-0.6,0-1,0.1c-1.2,0.2-2.2,0.5-3.1,0.9c-0.6,0.3-1.6,1-3,2.1
	c-0.6,0.4-1.3,0.9-2,1.4c-0.4,0.2-0.9,0.3-1.3,0.3h-1v-3.2h1c1.4,0,3.2-0.6,5.4-1.7c-1.2-0.6-2.2-0.9-3.1-0.9
	c-0.8,0-1.6,0.2-2.5,0.5c0.3-1.2,0.6-2.1,0.9-2.6c0.5-0.8,1.3-1.2,2.3-1.2c0.8,0,1.7,0.2,2.7,0.7c1.4,0.5,2.3,0.8,2.9,0.9
	c0.5,0.1,1.3,0.2,2.3,0.2c0.2,0,0.4,0,0.8,0C92,29.1,92.2,29.1,92.4,29.1L92.4,29.1z M89,24.5L88,26.4l-1.9-1.3l1.1-1.9L89,24.5z"/>
<path fill="#F47E20" d="M88.7,13.9c0,0.4,0,0.7-0.1,0.9c-0.1,0.2-0.3,0.4-0.6,0.6l-4.2,2.4c0-0.4,0.1-0.8,0.2-0.9
	c0.1-0.2,0.4-0.4,0.8-0.6L88.7,13.9z"/>
<path fill="#006034" d="M79.2,36.4h-1.9c-1.5,0-2.6-1.1-3.1-3.3c-1,2-2.5,3-4.4,3.1c-1.6,0-2.5-0.5-2.5-1.6c0-0.1,0.2-0.8,0.5-1.9
	c0.1-0.3,0.2-0.8,0.5-1.5l0.4,0.1c0.2,0.5,0.4,0.9,0.8,1.2c0.4,0.3,0.9,0.4,1.7,0.4c0.9,0,1.5-0.1,1.8-0.2c0.6-0.2,0.9-0.7,0.9-1.3
	c0-0.5-0.1-1.3-0.4-2.6c-0.2-1.1-0.3-2-0.3-2.6c0-0.5,0.2-1.1,0.4-1.6c0.2-0.3,0.5-0.7,1.1-1.4c0,1.4,0.2,3.1,0.7,5.2l0.5,2.6
	c0.3,1.5,0.9,2.3,1.6,2.3h1.9V36.4L79.2,36.4z M75,20.5l-1.1,2L71.9,21l1.2-1.9L75,20.5z"/>
<path fill="#006034" d="M75.1,13.9c0,0.4,0,0.7-0.1,0.9c-0.1,0.2-0.3,0.4-0.6,0.6l-4.2,2.4c0-0.4,0.1-0.8,0.2-0.9
	c0.1-0.2,0.4-0.4,0.8-0.6L75.1,13.9z"/>
<rect id="_x3C_Slice_x3E__10_" x="55.5" fill-rule="evenodd" clip-rule="evenodd" fill="none" width="54" height="49"/>
</svg>
