<?xml version="1.0" encoding="utf-8"?>
<!-- Generator: Adobe Illustrator 15.0.0, SVG Export Plug-In  -->
<!DOCTYPE svg PUBLIC "-//W3C//DTD SVG 1.1//EN" "http://www.w3.org/Graphics/SVG/1.1/DTD/svg11.dtd" [
	<!ENTITY ns_flows "http://ns.adobe.com/Flows/1.0/">
]>
<svg version="1.1"
	 xmlns="http://www.w3.org/2000/svg" xmlns:xlink="http://www.w3.org/1999/xlink" xmlns:a="http://ns.adobe.com/AdobeSVGViewerExtensions/3.0/"
	 x="0px" y="0px" width="55px" height="50px" viewBox="0.1 -0.6 55 50" enable-background="new 0.1 -0.6 55 50"
	 xml:space="preserve">
<defs>
</defs>
<rect fill-rule="evenodd" clip-rule="evenodd" fill="none" width="55.3" height="50.3"/>
<path fill="#8B2889" d="M40.6,28.9c0,1.1-0.2,2.3-0.7,3.5h-0.5c0-1.6-0.1-2.8-0.2-3.5c0-0.1-0.1-0.8-0.4-2.1c-0.1-0.9-0.4-2.2-0.7-4
	C38,22.2,38,21.6,38,21.1c0-0.4,0.1-0.8,0.3-1.2c0.2-0.3,0.7-0.9,1.4-1.7c0,1.3,0.2,3.2,0.6,5.7C40.5,25.7,40.6,27.4,40.6,28.9z"/>
<path fill="#8B2889" d="M41.7,10.5c0,0.4,0,0.7-0.1,0.9c-0.1,0.2-0.3,0.4-0.6,0.6l-4.2,2.4c0-0.5,0.1-0.8,0.2-0.9
	c0.1-0.2,0.4-0.4,0.8-0.6L41.7,10.5z"/>
<path fill="#F47E20" d="M35.3,28.8c0,1.6-0.4,2.7-1.3,3.3c-0.5,0.4-1.2,0.6-2.1,0.8c-0.8,0.2-1.8,0.3-2.8,0.3h-0.2
	c-0.4,0-0.7,0-0.8,0c-0.2,0-0.5-0.1-1.1-0.1l0.6-3.7c0.6,0,1.1,0,1.4,0.1c3.5,0,5.3-0.4,5.3-1.2c0-0.6-0.7-1.3-2-2.1
	c-0.5-0.3-1.6-0.8-3.1-1.6l1.4-3.5c1.1,0.7,2,1.4,2.6,2.2C34.6,24.8,35.3,26.7,35.3,28.8L35.3,28.8z M31.9,18.1l-1.1,1.9l-1.9-1.4
	l1.2-1.9L31.9,18.1z"/>
<path fill="#F47E20" d="M33.7,35.9c0,0.5,0,0.8-0.1,1c-0.1,0.1-0.3,0.3-0.6,0.5l-4.2,2.4c0-0.4,0.1-0.8,0.2-0.9
	c0.1-0.2,0.4-0.4,0.8-0.6L33.7,35.9z"/>
<path fill="#8B2889" d="M24.7,32.2c0,1.8-0.6,3.3-1.8,4.4c-1.2,1.1-2.8,1.7-4.6,1.7c-1.3,0-2.3-0.3-3.2-0.9
	c-0.9-0.7-1.4-1.6-1.4-2.9c0-1.1,0.2-2.1,0.6-3.1c0.2-0.6,0.7-1.6,1.4-2.8l0.4,0.3c-0.4,0.6-0.7,1.2-0.8,1.7c-0.2,0.5-0.3,1-0.3,1.3
	c0,0.9,0.5,1.6,1.3,2.1c0.8,0.4,1.6,0.6,2.6,0.6c0.9,0,1.9-0.1,2.9-0.5c1.3-0.5,1.9-1.1,1.9-1.9c0-0.5-0.4-1.3-1.1-2.3
	c-0.8-1-1.2-1.7-1.2-2.1c0-0.5,0.4-1.5,1.1-2.9C24,27.1,24.7,29.4,24.7,32.2L24.7,32.2z M19.7,23.8l-1.9-1.4l-1.2,1.9l1.9,1.3
	L19.7,23.8z"/>
<path fill="#8B2889" d="M21.7,15.7c0,0.4,0,0.7-0.1,0.9c-0.1,0.2-0.3,0.4-0.6,0.6l-4.2,2.4c0-0.4,0.1-0.8,0.2-0.9
	c0.1-0.2,0.4-0.4,0.8-0.6L21.7,15.7z"/>
<rect id="_x3C_Slice_x3E__10_" x="0.4" fill-rule="evenodd" clip-rule="evenodd" fill="none" width="54" height="49"/>
</svg>
