<?xml version="1.0" encoding="utf-8"?>
<!-- Generator: Adobe Illustrator 15.0.0, SVG Export Plug-In  -->
<!DOCTYPE svg PUBLIC "-//W3C//DTD SVG 1.1//EN" "http://www.w3.org/Graphics/SVG/1.1/DTD/svg11.dtd" [
	<!ENTITY ns_flows "http://ns.adobe.com/Flows/1.0/">
]>
<svg version="1.1"
	 xmlns="http://www.w3.org/2000/svg" xmlns:xlink="http://www.w3.org/1999/xlink" xmlns:a="http://ns.adobe.com/AdobeSVGViewerExtensions/3.0/"
	 x="0px" y="0px" width="54px" height="50px" viewBox="0.4 -0.6 54 50" enable-background="new 0.4 -0.6 54 50"
	 xml:space="preserve">
<defs>
</defs>
<rect fill-rule="evenodd" clip-rule="evenodd" fill="none" width="55.3" height="50.3"/>
<path fill="#8B2889" d="M39.2,28.5c0,1.1-0.2,2.3-0.7,3.5H38c0-1.6-0.1-2.8-0.2-3.5c0-0.1-0.1-0.8-0.4-2.1c-0.1-0.9-0.4-2.2-0.7-4
	c-0.1-0.6-0.2-1.1-0.2-1.6c0-0.4,0.1-0.8,0.3-1.2c0.2-0.3,0.7-0.9,1.4-1.7c0,1.3,0.2,3.2,0.6,5.7C39.1,25.3,39.2,27,39.2,28.5z"/>
<path fill="#8B2889" d="M40.2,10.1c0,0.4,0,0.7-0.1,0.9c-0.1,0.2-0.3,0.4-0.6,0.6L35.3,14c0-0.5,0.1-0.8,0.2-0.9
	c0.1-0.2,0.4-0.4,0.8-0.6L40.2,10.1z"/>
<path fill="#F47E20" d="M32.7,27.8c0-0.3-0.1-0.7-0.5-0.9s-0.7-0.4-1-0.4c-0.5,0-0.8,0.3-1.1,0.9c0.6,0.4,1.1,0.6,1.4,0.8
	c0.2,0.1,0.4,0.1,0.8,0.2C32.5,28.3,32.7,28.2,32.7,27.8L32.7,27.8z M34.4,28.5c0,0.8-0.2,1.4-0.5,1.9c-0.4,0.5-0.8,0.8-1.4,0.8
	c-0.7,0-1.8-0.4-3.4-1.2c-0.5,1.7-1.2,2.6-2,2.6h-1v-3.2h1c0.8,0,1.4-0.6,1.9-1.8l0.8-2c0.5-1.2,1.1-1.8,2-1.8
	c0.3,0,0.6,0.1,0.9,0.3c0.6,0.5,1.1,1.4,1.5,2.6C34.3,27.3,34.4,27.9,34.4,28.5z"/>
<path fill="#F47E20" d="M33,15.3c0,0.4,0,0.7-0.1,0.9c-0.1,0.2-0.3,0.4-0.6,0.6l-4.2,2.4c0-0.4,0.1-0.8,0.2-0.9
	c0.1-0.2,0.4-0.4,0.8-0.6L33,15.3z"/>
<path fill="#8B2889" d="M26.5,32.6h-2.1c-0.2,1.9-0.7,3.5-1.4,4.8c-1,1.9-2.2,2.8-3.8,2.8c-1.1,0-2.5-0.5-4.1-1.6l0.2-0.4
	c0.7,0.1,1.2,0.2,1.4,0.2c2.2,0,4.5-1.7,6.8-5c-0.4-0.5-0.8-0.9-0.9-1.1c-0.6-0.8-1-1.5-1.3-2.1l1.7-2.6c0.7,1.2,1.3,1.8,1.8,1.8
	h1.6V32.6z"/>
<path fill="#8B2889" d="M23,15.3c0,0.4,0,0.7-0.1,0.9c-0.1,0.2-0.3,0.4-0.6,0.6l-4.2,2.4c0-0.4,0.1-0.8,0.2-0.9
	c0.1-0.2,0.4-0.4,0.8-0.6L23,15.3z"/>
<rect id="_x3C_Slice_x3E__10_" x="0.4" fill-rule="evenodd" clip-rule="evenodd" fill="none" width="54" height="49"/>
</svg>
