<?xml version="1.0" encoding="utf-8"?>
<!-- Generator: Adobe Illustrator 15.0.0, SVG Export Plug-In  -->
<!DOCTYPE svg PUBLIC "-//W3C//DTD SVG 1.1//EN" "http://www.w3.org/Graphics/SVG/1.1/DTD/svg11.dtd" [
	<!ENTITY ns_flows "http://ns.adobe.com/Flows/1.0/">
]>
<svg version="1.1"
	 xmlns="http://www.w3.org/2000/svg" xmlns:xlink="http://www.w3.org/1999/xlink" xmlns:a="http://ns.adobe.com/AdobeSVGViewerExtensions/3.0/"
	 x="0px" y="0px" width="55px" height="49px" viewBox="-0.4 0 55 49" enable-background="new -0.4 0 55 49" xml:space="preserve">
<defs>
</defs>
<path fill="#006034" d="M19.8,47.1l0.7-0.7h0c0.1,0.1,0.4,0.3,0.6,0.6l0,0.1c-0.2,0.3-0.4,0.5-0.6,0.6c-0.1,0-0.1,0-0.1,0
	c-0.1,0-0.1-0.1-0.1-0.1C20.1,47.5,20,47.4,19.8,47.1L19.8,47.1L19.8,47.1z M19.2,45.7l0.7-0.7l0.1,0c0.2,0.1,0.4,0.4,0.7,0.6h0
	l0.5-0.5h0.1c0.2,0.2,0.5,0.4,0.7,0.6l0,0.1c-0.1,0.2-0.4,0.4-0.7,0.7c-0.1,0-0.3-0.2-0.6-0.4c0,0-0.1-0.1-0.1-0.2h0L20,46.3
	c0,0-0.1,0-0.1,0c0,0-0.1,0-0.1-0.1c-0.1,0-0.1-0.1-0.1-0.1c-0.1-0.1-0.2-0.2-0.3-0.2C19.3,45.9,19.2,45.8,19.2,45.7L19.2,45.7
	L19.2,45.7z M18.9,40.7l0.1,0c0.5-0.1,0.7-0.2,0.8-0.5l-0.1-0.1c0,0-0.1,0-0.1,0c-0.1,0-0.3,0.1-0.4,0.2
	C19.1,40.5,19,40.6,18.9,40.7L18.9,40.7z M19.1,38.8l0.2-0.4c0,0,0.1,0,0.1,0c0,0.1,0,0.4,0,0.8c0,0.3,0,0.6-0.1,0.7h0.1
	c0.2-0.2,0.5-0.3,0.6-0.3c0.1,0,0.2,0.1,0.2,0.2c0,0.1,0,0.1,0,0.2c0,0.1-0.1,0.3-0.2,0.4c-0.1,0.1-0.2,0.2-0.3,0.4
	c-0.1,0.1-0.3,0.1-0.6,0.2c-0.3,0-0.6,0.1-0.7,0.1c-0.1,0-0.1-0.1-0.1-0.1c0-0.1,0.1-0.2,0.2-0.2c0.3-0.4,0.5-0.7,0.5-1.1
	c0,0,0-0.2,0-0.5C19,39.1,19.1,38.9,19.1,38.8z"/>
<path fill="#006034" d="M22.1,40.5c-0.1,0.5-0.2,0.9-0.5,1.3c-0.1,0.1-0.2,0.2-0.4,0.2c-0.2,0.1-0.3,0.1-0.4,0.2
	c-0.2,0.2-0.4,0.5-0.5,0.8c-0.1,0.3-0.3,0.6-0.4,0.8c-0.1,0.1-0.1,0.2-0.2,0.3c-0.1,0.1-0.1,0.1-0.2,0.2c-0.6,0.1-1.1,0.2-1.6,0.2
	c0,0-0.1,0-0.1-0.1c0-0.1,0-0.1,0.1-0.1c0.1,0,0.1-0.1,0.2-0.1c0.3-0.2,0.7-0.4,1-0.5c0.4-0.2,0.7-0.5,0.9-0.8
	c0.1-0.1,0.2-0.4,0.5-1c0.2-0.4,0.4-0.7,0.7-0.8c0.4-0.1,0.6-0.3,0.6-0.6c0,0,0.1-0.1,0.1-0.1C22,40.3,22.1,40.4,22.1,40.5z"/>
<path fill="#006034" d="M17,38.7c0,0.1,0,0.3-0.1,0.5c0,0.3,0,0.7-0.1,1.3c0,0.6,0,1.1,0,1.3c0,0.5-0.2,1.1-0.4,1.7
	c-0.1,0.1-0.1,0.2-0.1,0.2c0,0,0,0-0.1,0c-0.1,0-0.1-0.1-0.1-0.2c0.1-0.2,0.1-0.7,0.1-1.4c-0.1-0.6-0.1-1.3-0.1-2
	c0.1-0.4,0.3-0.8,0.6-1.4C17,38.7,17,38.7,17,38.7z"/>
<path fill="#006034" d="M15.2,38.7c-0.1,0.5-0.1,1-0.2,1.5c-0.1,0.6-0.2,1.1-0.4,1.4c-0.3,0.4-0.5,0.7-0.8,0.9
	c-0.1,0.5-0.2,1-0.5,1.5c-0.1,0.2-0.3,0.3-0.7,0.4c-0.3,0-0.6,0.1-1.2,0.2c0,0-0.1,0-0.1-0.1c0-0.1,0-0.1,0.1-0.2
	c0.1,0,0.1-0.1,0.2-0.1c0.2-0.1,0.4-0.2,0.8-0.4c0.3-0.2,0.6-0.3,0.8-0.4c0.2-0.2,0.2-0.3,0.2-0.4c0,0,0-0.1,0-0.1
	c0-0.1-0.1-0.1-0.1-0.2c-0.3,0-0.6,0-0.7-0.2c-0.1-0.1-0.1-0.2-0.1-0.3c0-0.1,0.1-0.3,0.2-0.5c0.1-0.3,0.2-0.4,0.2-0.5
	c0.1-0.2,0.2-0.3,0.3-0.3c0.2,0,0.3,0,0.3,0.1c0.2,0.2,0.4,0.5,0.4,1c0,0,0,0,0.1,0c0.4-0.2,0.6-0.5,0.6-0.9c0-0.7,0-1.2,0-1.3
	c0.1-0.2,0.2-0.5,0.5-0.8C15,38.7,15.1,38.7,15.2,38.7L15.2,38.7z M14.4,36.9L14.4,36.9c0.4,0.3,0.6,0.5,0.8,0.6c0,0,0,0.1,0,0.1
	l-0.6,0.7c0,0-0.1,0.1-0.1,0.1c-0.1,0-0.1,0-0.2-0.1c-0.1,0-0.1-0.1-0.2-0.1C14,38.1,13.9,38,13.9,38c-0.1-0.1-0.2-0.2-0.2-0.3
	C13.8,37.5,14.1,37.2,14.4,36.9z"/>
<path fill="#006034" d="M7,41.9l0.7-0.8l0.1,0c0.2,0.2,0.5,0.5,0.8,0.7c-0.2,0.2-0.4,0.4-0.7,0.7c-0.1,0-0.2-0.1-0.4-0.2
	c-0.1-0.1-0.2-0.2-0.4-0.3L7,41.9L7,41.9z M6,40.8c0-0.1-0.1,0-0.1,0c-0.2,0.3-0.3,0.6-0.3,0.7c0,0,0,0.1,0,0.2
	c0,0.1-0.1,0.1-0.1,0.2c-0.2,0.6-0.3,1.2-0.3,1.7c0,0.9,0.3,1.6,0.8,1.9c0.2,0.1,0.5,0.2,0.9,0.2c0.3,0,0.6-0.1,0.9-0.1
	c0.5-0.2,1-0.5,1.4-0.8c0.5-0.6,0.9-1.3,1.1-2.1c0.1-0.3,0.1-0.7,0.2-1.2c0-0.4,0-0.8,0-1.2c0-0.5,0-0.9,0-1c0,0-0.1,0-0.1,0
	c-0.2,0.4-0.3,0.8-0.4,1.1c0,0.2,0,0.5,0,0.9c0,0.5,0,0.8,0,0.9c0,0.2,0,0.5,0,0.6c-0.2,0.5-0.5,0.9-1,1.3c-0.5,0.3-1,0.5-1.6,0.5
	c-0.4,0-0.7-0.1-1-0.2c-0.5-0.3-0.7-0.7-0.7-1.4c0-0.2,0-0.4,0.1-0.7C5.9,41.6,6,41.2,6,40.8L6,40.8z"/>
<path fill="#144A93" d="M33.8,32.2c0,1.1-0.2,2.3-0.7,3.5h-0.5c0-1.7-0.1-2.8-0.2-3.5c0-0.1-0.1-0.8-0.4-2.1c-0.2-0.9-0.4-2.2-0.7-4
	c-0.1-0.6-0.2-1.1-0.2-1.6c0-0.4,0.1-0.8,0.3-1.2c0.2-0.3,0.7-0.9,1.4-1.7c0,1.3,0.2,3.2,0.6,5.7C33.6,29,33.8,30.7,33.8,32.2z"/>
<path fill="#144A93" d="M34.8,13.8c0,0.4,0,0.7-0.1,0.9c-0.1,0.2-0.3,0.4-0.6,0.6l-4.2,2.4c0-0.5,0.1-0.8,0.2-0.9
	c0.1-0.2,0.4-0.4,0.8-0.6L34.8,13.8z"/>
<path fill="#006034" d="M28.6,31.5c0,1.5-0.3,2.7-1,3.5c-0.6,0.9-1.5,1.3-2.6,1.3h-1v-3.2h1c1.5,0,2.2-0.2,2.2-0.7
	c0-0.1-0.2-0.5-0.8-1c-0.2-0.3-0.4-0.5-0.4-0.8c0-0.2,0.2-0.8,0.7-1.8c0.1-0.3,0.4-0.8,0.7-1.4C28.2,28.9,28.6,30.3,28.6,31.5
	L28.6,31.5z M28.2,24.4l-1.1,1.9L25.2,25l1.1-1.9L28.2,24.4z"/>
<path fill="#006034" d="M29.3,13.8c0,0.4,0,0.7-0.1,0.9c-0.1,0.2-0.3,0.4-0.6,0.6l-4.2,2.4c0-0.5,0.1-0.8,0.2-0.9
	c0.1-0.2,0.4-0.4,0.8-0.6L29.3,13.8z"/>
<path fill="#8B2889" d="M25,36.3h-2.1c-1.9,0-2.8-1.7-2.8-5c0-1.8-0.1-3.2-0.2-4.2c0-0.3-0.2-0.8-0.4-1.5c-0.2-0.7-0.3-1.1-0.3-1.5
	c0-0.5,0.2-1,0.6-1.5c0.2-0.1,0.5-0.5,0.9-1.1l0.2,1.4c0.5,2.9,0.8,5.6,0.8,8.2c0,0.7,0.1,1.2,0.4,1.6c0.2,0.3,0.5,0.5,0.9,0.5H25
	V36.3z"/>
<rect id="_x3C_Slice_x3E__10_" fill-rule="evenodd" clip-rule="evenodd" fill="none" width="54" height="49"/>
</svg>
