<?xml version="1.0" encoding="utf-8"?>
<!-- Generator: Adobe Illustrator 15.0.0, SVG Export Plug-In  -->
<!DOCTYPE svg PUBLIC "-//W3C//DTD SVG 1.1//EN" "http://www.w3.org/Graphics/SVG/1.1/DTD/svg11.dtd" [
	<!ENTITY ns_flows "http://ns.adobe.com/Flows/1.0/">
]>
<svg version="1.1"
	 xmlns="http://www.w3.org/2000/svg" xmlns:xlink="http://www.w3.org/1999/xlink" xmlns:a="http://ns.adobe.com/AdobeSVGViewerExtensions/3.0/"
	 x="0px" y="0px" width="55px" height="49px" viewBox="-0.9 0 55 49" enable-background="new -0.9 0 55 49" xml:space="preserve">
<defs>
</defs>
<path fill="#144A93" d="M44.3,34.6l-1.1,2l-1.9-1.4l1.2-2L44.3,34.6L44.3,34.6z M44.6,27.3c0,1.5-0.3,2.7-1,3.5
	c-0.6,0.9-1.5,1.3-2.6,1.3h-1.6v-3.2H41c1.5,0,2.2-0.2,2.2-0.7c0-0.1-0.2-0.5-0.8-1c-0.2-0.3-0.4-0.5-0.4-0.8c0-0.1,0.2-0.7,0.7-1.8
	c0.1-0.3,0.4-0.8,0.7-1.4C44.2,24.7,44.6,26.1,44.6,27.3z"/>
<path fill="#144A93" d="M45,14.8c0,0.4,0,0.7-0.1,0.9c-0.1,0.2-0.3,0.4-0.6,0.6l-4.2,2.4c0-0.4,0.1-0.8,0.2-0.9
	c0.1-0.2,0.4-0.4,0.8-0.6L45,14.8z"/>
<path fill="#F47E20" d="M40.4,32.1H37c-2.6,0-3.9-0.8-3.9-2.3c0-0.4,0.2-1.2,0.5-2.3c-1.2,0.2-2.3,0.5-3.2,1c-0.7,0.3-1.6,1-2.8,2
	c-1.5,1.1-2.6,1.7-3.3,1.7h-1v-3.2h1c1.4,0,3.2-0.6,5.4-1.7c-1.2-0.6-2.2-0.9-3.2-0.9c-0.8,0-1.6,0.2-2.5,0.5
	c0.3-1.2,0.6-2.1,0.9-2.6c0.5-0.8,1.3-1.2,2.3-1.2c0.8,0,1.7,0.2,2.7,0.7c1.4,0.4,2.3,0.8,2.9,0.9c0.5,0.1,1.3,0.2,2.3,0.2
	c0.2,0,0.6,0,1.1-0.1c0.5,0,0.8-0.1,1.1-0.1l-0.4,2.5l-1.4,0.1l-0.7,0.1c0.3,0.6,0.6,1,1.1,1.2c0.3,0.1,0.9,0.2,1.7,0.2h2.9V32.1
	L40.4,32.1z M33.4,20.2l-1.1,1.9l-1.9-1.4l1.1-1.9L33.4,20.2z"/>
<path fill="#F47E20" d="M34,34.9c0,0.5,0,0.8-0.1,1c-0.1,0.1-0.3,0.3-0.6,0.5l-4.2,2.4c0-0.4,0.1-0.8,0.2-0.9
	c0.1-0.2,0.4-0.4,0.8-0.6L34,34.9z"/>
<path fill="#006034" d="M24,32.1h-1.6c-1.2,0-2.1-1.3-2.6-3.9c0,0.6,0,1.3,0.1,2c0.2,2.2,0.3,3.5,0.3,4c0,2-0.5,3.5-1.6,4.7
	c-1.1,1.1-2.6,1.7-4.6,1.7c-1.4,0-2.4-0.4-3.2-1.1c-0.8-0.7-1.2-1.7-1.2-2.9c0-1.7,0.6-3.7,1.9-5.9l0.5,0.3
	c-0.4,0.8-0.7,1.4-0.8,1.7c-0.2,0.6-0.3,1.2-0.4,1.8c0,0.8,0.3,1.4,1,1.9c0.7,0.4,1.6,0.7,2.9,0.7c3.2,0,4.9-1,4.9-2.9
	c0-0.5-0.1-1.3-0.2-2.3c-0.1-0.8-0.2-2-0.4-3.6c-0.1-0.5-0.1-1.4-0.2-2.8c-0.1-1.4-0.2-3.4-0.3-6.2c0-0.9,0.3-1.9,1.1-3.1l0.5-0.6
	l0.1,1.9c0,1.2,0.1,2.8,0.2,4.9c0.1,1.1,0.3,2.5,0.6,4.2c0.3,1.7,0.9,2.5,1.9,2.5H24V32.1z"/>
<path fill="#006034" d="M18.4,9.6c0,0.4,0,0.7-0.1,0.9c-0.1,0.2-0.3,0.4-0.6,0.6l-4.2,2.4c0-0.5,0.1-0.8,0.2-0.9
	c0.1-0.2,0.4-0.4,0.8-0.6L18.4,9.6z"/>
<rect id="_x3C_Slice_x3E__10_" fill-rule="evenodd" clip-rule="evenodd" fill="none" width="54" height="49"/>
</svg>
