<?xml version="1.0" encoding="utf-8"?>
<!-- Generator: Adobe Illustrator 15.0.0, SVG Export Plug-In  -->
<!DOCTYPE svg PUBLIC "-//W3C//DTD SVG 1.1//EN" "http://www.w3.org/Graphics/SVG/1.1/DTD/svg11.dtd" [
	<!ENTITY ns_flows "http://ns.adobe.com/Flows/1.0/">
]>
<svg version="1.1"
	 xmlns="http://www.w3.org/2000/svg" xmlns:xlink="http://www.w3.org/1999/xlink" xmlns:a="http://ns.adobe.com/AdobeSVGViewerExtensions/3.0/"
	 x="0px" y="0px" width="55px" height="49px" viewBox="-0.4 0 55 49" enable-background="new -0.4 0 55 49" xml:space="preserve">
<defs>
</defs>
<path fill="#8B2889" d="M43.8,31.8l-1.1,2l-1.9-1.4l1.2-1.9L43.8,31.8L43.8,31.8z M44.1,24.4c0,1.5-0.3,2.7-1,3.5
	c-0.6,0.9-1.5,1.3-2.6,1.3h-1.6V26h1.6c1.5,0,2.2-0.2,2.2-0.7c0-0.1-0.2-0.5-0.8-1c-0.2-0.3-0.4-0.5-0.4-0.8c0-0.1,0.2-0.8,0.7-1.8
	c0.1-0.3,0.4-0.8,0.7-1.4C43.8,21.9,44.1,23.3,44.1,24.4z"/>
<path fill="#8B2889" d="M44.5,11.9c0,0.4,0,0.7-0.1,0.9c-0.1,0.2-0.3,0.4-0.6,0.6l-4.2,2.4c0-0.4,0.1-0.8,0.2-0.9
	c0.1-0.2,0.4-0.4,0.8-0.6L44.5,11.9z"/>
<path fill="#F47E20" d="M39.3,29.3h-2.1c-0.2,1.9-0.7,3.5-1.4,4.8c-1,1.9-2.2,2.8-3.8,2.8c-1.1,0-2.5-0.5-4.1-1.6l0.2-0.4
	c0.7,0.1,1.2,0.2,1.4,0.2c2.2,0,4.5-1.7,6.8-5c-0.4-0.5-0.8-0.9-0.9-1.1c-0.6-0.8-1-1.5-1.3-2.1l1.7-2.6c0.7,1.2,1.3,1.8,1.8,1.8
	h1.6V29.3z"/>
<path fill="#F47E20" d="M35.9,11.9c0,0.4,0,0.7-0.1,0.9c-0.1,0.2-0.3,0.4-0.6,0.6l-4.2,2.4c0-0.4,0.1-0.8,0.2-0.9
	c0.1-0.2,0.4-0.4,0.8-0.6L35.9,11.9z"/>
<path fill="#144A93" d="M27.2,28.7c0,1.7-0.4,3.3-1.3,4.9c-1,1.8-2.3,2.7-3.9,2.7c-0.7,0-1.3-0.1-2-0.4c-0.4-0.1-0.9-0.5-1.7-1
	l0.2-0.4c0.4,0.1,0.7,0.2,1.1,0.2c1.3,0,2.7-0.6,4.2-1.8c1.6-1.3,2.4-2.5,2.4-3.8c0-0.7-0.4-1.4-1.2-2.1c-0.8-0.8-1.2-1.3-1.2-1.7
	c0-0.3,0.1-0.8,0.3-1.6l0.4-1.7C26.3,23.9,27.2,26.2,27.2,28.7z"/>
<path fill="#144A93" d="M25.3,11.9c0,0.4,0,0.7-0.1,0.9c-0.1,0.2-0.3,0.4-0.6,0.6l-4.2,2.4c0-0.4,0.1-0.8,0.2-0.9
	c0.1-0.2,0.4-0.4,0.8-0.6L25.3,11.9z"/>
<path fill="#006034" d="M15.9,24.6c-1.1-1.4-2.1-2.1-3.1-2.1c-0.4,0-0.7,0.1-1,0.5c-0.3,0.3-0.4,0.6-0.4,1c0,0.9,0.6,1.3,1.9,1.3
	C13.9,25.4,14.7,25.1,15.9,24.6L15.9,24.6z M16.8,24.2c0,1.4-0.3,2.5-0.8,3.5c-0.7,1.1-1.7,1.6-2.9,1.6c-0.9,0-1.6-0.3-2.1-0.9
	c-0.5-0.6-0.7-1.3-0.7-2.3c0-1.7,0.6-3.7,1.7-5.9c0.6-1.3,1.3-1.9,1.9-1.9c0.9,0,1.7,0.8,2.3,2.4C16.6,21.9,16.8,23,16.8,24.2
	L16.8,24.2z M16,14.8l-1.2,2l-1.8-1.2l-0.9,1.6l-1.9-1.4l1.1-1.9l1.8,1.3l1.1-1.7L16,14.8z"/>
<path fill="#006034" d="M16.2,34.3c0,0.4,0,0.7-0.1,0.9c-0.1,0.2-0.3,0.4-0.6,0.6l-4.2,2.4c0-0.4,0.1-0.7,0.2-0.9
	c0.1-0.2,0.4-0.4,0.8-0.6L16.2,34.3L16.2,34.3z M16.2,32.1l-4,2.3c-0.4,0.2-0.7,0.5-0.8,0.7c-0.1,0.2-0.2,0.5-0.2,0.9l4.2-2.5
	c0.3-0.2,0.5-0.4,0.6-0.5C16.2,32.9,16.2,32.6,16.2,32.1z"/>
<rect id="_x3C_Slice_x3E__10_" fill-rule="evenodd" clip-rule="evenodd" fill="none" width="54" height="49"/>
</svg>
