<?xml version="1.0" encoding="utf-8"?>
<!-- Generator: Adobe Illustrator 15.0.0, SVG Export Plug-In  -->
<!DOCTYPE svg PUBLIC "-//W3C//DTD SVG 1.1//EN" "http://www.w3.org/Graphics/SVG/1.1/DTD/svg11.dtd" [
	<!ENTITY ns_flows "http://ns.adobe.com/Flows/1.0/">
]>
<svg version="1.1"
	 xmlns="http://www.w3.org/2000/svg" xmlns:xlink="http://www.w3.org/1999/xlink" xmlns:a="http://ns.adobe.com/AdobeSVGViewerExtensions/3.0/"
	 x="0px" y="0px" width="55px" height="49px" viewBox="-0.3 0 55 49" enable-background="new -0.3 0 55 49" xml:space="preserve">
<defs>
</defs>
<path fill="#006034" d="M40.9,33.4l-1.1,1.9l-1.9-1.5l1.2-1.9L40.9,33.4L40.9,33.4z M45.3,24.7c-0.2,0-0.4,0-0.8,0.1
	c-0.4,0-0.6,0-0.8,0c-1,0-1.8-0.1-2.3-0.2c-0.5-0.1-1.5-0.4-2.8-0.9c-1.1-0.4-2-0.7-2.7-0.7c-1,0-1.8,0.4-2.3,1.2
	c-0.3,0.5-0.7,1.4-0.9,2.6c0.9-0.4,1.8-0.5,2.5-0.5c0.9,0,2,0.3,3.2,0.9c-2.2,1.1-4,1.7-5.4,1.7h-1.3v3.2h1.3c0.4,0,0.8-0.1,1.3-0.3
	c0.7-0.5,1.4-0.9,2-1.4c1.4-1.1,2.4-1.8,3-2.1c0.8-0.4,1.9-0.7,3.1-0.9c0.4-0.1,0.8-0.1,1-0.1H44l0.9-0.1L45.3,24.7z"/>
<path fill="#006034" d="M41.6,14.8c0,0.4,0,0.7-0.1,0.9c-0.1,0.2-0.3,0.4-0.6,0.6l-4.2,2.4c0-0.5,0.1-0.8,0.2-0.9s0.4-0.4,0.8-0.6
	L41.6,14.8z"/>
<path fill="#8B2889" d="M32.9,32.1h-2.1c-0.4,0-1-0.4-1.8-1.1c-0.5-0.5-1-1-1.5-1.6c-0.6,0.5-1.1,1.1-1.7,1.6c-0.8,0.7-1.4,1-1.9,1
	h-1v-3.2h1c0.5,0,0.9-0.1,1.2-0.2c0.1-0.1,0.4-0.2,0.8-0.4l-0.9-0.5c-0.3-0.1-0.8-0.4-1.4-0.6c0.4-2.6,1.8-4,4-4
	c0.9,0,1.7,0.2,2.4,0.7c0.7,0.5,1.1,1.3,1.1,2.2c0,0.6-0.1,1.1-0.4,1.4s-0.7,0.6-1.3,0.9l0.6,0.3c0.2,0.1,0.5,0.2,0.8,0.2h2.1V32.1z
	"/>
<path fill="#8B2889" d="M30,14.8c0,0.4,0,0.7-0.1,0.9c-0.1,0.2-0.3,0.4-0.6,0.6L25,18.7c0-0.5,0.1-0.8,0.2-0.9
	c0.1-0.2,0.4-0.4,0.8-0.6L30,14.8z"/>
<path fill="#F47E20" d="M23.7,32.1h-1.6c-1.2,0-2.1-1.3-2.6-3.9c0,0.6,0,1.3,0.1,2c0.2,2.2,0.3,3.5,0.3,4c0,2-0.5,3.5-1.6,4.7
	c-1.1,1.1-2.6,1.7-4.6,1.7c-1.4,0-2.4-0.4-3.2-1.1c-0.8-0.7-1.2-1.7-1.2-2.9c0-1.7,0.6-3.7,1.9-5.9l0.4,0.3
	c-0.4,0.8-0.7,1.4-0.8,1.7c-0.2,0.6-0.3,1.2-0.4,1.8c0,0.8,0.3,1.4,1,1.9c0.7,0.5,1.6,0.7,2.8,0.7c3.2,0,4.9-1,4.9-2.9
	c0-0.5-0.1-1.3-0.2-2.3c-0.1-0.8-0.2-2-0.5-3.6c-0.1-0.5-0.1-1.4-0.2-2.8c-0.1-1.4-0.2-3.5-0.3-6.2c0-0.9,0.3-2,1.1-3.2l0.5-0.6
	l0.1,1.9c0,1.2,0.1,2.8,0.2,4.9c0.1,1.1,0.3,2.5,0.6,4.2c0.3,1.7,0.9,2.6,1.9,2.6h1.6V32.1z"/>
<path fill="#F47E20" d="M18.1,9.6c0,0.4,0,0.7-0.1,0.9c-0.1,0.2-0.3,0.4-0.6,0.6l-4.2,2.4c0-0.5,0.1-0.8,0.2-0.9s0.4-0.4,0.8-0.6
	L18.1,9.6z"/>
<rect id="_x3C_Slice_x3E__10_" fill-rule="evenodd" clip-rule="evenodd" fill="none" width="54" height="49"/>
</svg>
